<svg id="bitcoinIcon" width="16" height="16" viewBox="0 0 16 16" fill="none" xmlns="http://www.w3.org/2000/svg">
<path d="M15.7608 9.93524C14.6924 14.221 10.3516 16.8292 6.06531 15.7605C1.78084 14.692 -0.827386 10.351 0.241541 6.06558C1.30953 1.77935 5.65031 -0.829071 9.93524 0.239387C14.2212 1.30785 16.8293 5.64936 15.7607 9.93532L15.7608 9.93524H15.7608Z" fill="#F7931A"/>
<path fill-rule="evenodd" clip-rule="evenodd" d="M11.5287 6.86218C11.6879 5.79755 10.8774 5.22527 9.76902 4.84351L10.1286 3.40138L9.2507 3.18264L8.90069 4.5868C8.6699 4.52924 8.4329 4.475 8.19734 4.42123L8.54989 3.00781L7.67257 2.78906L7.31282 4.23072C7.12184 4.18724 6.93426 4.14426 6.75228 4.09898L6.75329 4.09445L5.5427 3.79214L5.30917 4.72976C5.30917 4.72976 5.96047 4.87905 5.94675 4.88824C6.30224 4.97697 6.36652 5.21229 6.35585 5.39882L5.94628 7.04174C5.97076 7.04796 6.00251 7.05695 6.03755 7.07103L6.01206 7.06466C5.99039 7.05924 5.96787 7.05361 5.94476 7.04807L5.37068 9.34958C5.32724 9.45758 5.21696 9.61966 4.96842 9.55811C4.97722 9.57086 4.33038 9.39888 4.33038 9.39888L3.89453 10.4038L5.03693 10.6885C5.16204 10.7199 5.28566 10.7521 5.40803 10.7841C5.49355 10.8063 5.57845 10.8285 5.66282 10.85L5.29955 12.3087L6.1764 12.5275L6.53615 11.0843C6.7757 11.1493 7.00817 11.2093 7.23575 11.2658L6.87721 12.7022L7.75512 12.921L8.11835 11.465C9.6153 11.7483 10.7409 11.6341 11.2147 10.2801C11.5964 9.18999 11.1957 8.56121 10.4081 8.15118C10.9817 8.01889 11.4138 7.64162 11.529 6.86229L11.5287 6.8621L11.5287 6.86218ZM9.5229 9.67473C9.27399 10.6749 7.70847 10.2614 6.9922 10.0722C6.92777 10.0552 6.87021 10.04 6.82109 10.0278L7.30316 8.09531C7.36301 8.11025 7.43614 8.12667 7.519 8.14526L7.51902 8.14527C8.25992 8.31154 9.77792 8.6522 9.52293 9.67473H9.5229ZM7.66763 7.24834C8.26479 7.40771 9.56751 7.75538 9.79439 6.84637H9.79446C10.0261 5.91668 8.76011 5.63638 8.14179 5.49949C8.07223 5.48409 8.01087 5.4705 7.96076 5.45801L7.5237 7.21066C7.56496 7.22094 7.61339 7.23386 7.66763 7.24834Z" fill="white"/>
</svg>
