<svg id="dollarIcon" width="16" height="16" viewBox="0 0 16 16" fill="none" xmlns="http://www.w3.org/2000/svg">
<rect width="16" height="16" rx="8" fill="#C1FF11"/>
<path d="M4.66602 10.6667C5.33268 11.3333 6.66602 12 7.99935 12M7.99935 12C9.66602 12 11.3327 11.6667 11.3327 10C11.3327 8.33333 9.69902 8 7.99935 8M7.99935 12V8M7.99935 12V14M7.99935 8C6.33268 8 4.66602 7.66667 4.66602 6C4.66602 4.33333 6.33268 4 7.99935 4M7.99935 8V4M7.99935 4C9.33268 4 10.666 4.66667 11.3327 5.33333M7.99935 4V2" stroke="black"/>
</svg>
