<svg id="etheriumIcon" width="16" height="16" viewBox="0 0 16 16" fill="none" xmlns="http://www.w3.org/2000/svg">
<g clip-path="url(#clip0_5794_48209)">
<circle cx="8" cy="8" r="8" fill="#EDF0F4"/>
<path fill-rule="evenodd" clip-rule="evenodd" d="M5.06663 7.50143L8.01789 5.9478L10.945 7.51107L8.00501 3.19922L5.06663 7.50143ZM5.17897 7.94991L8.02085 6.43346L10.8257 7.93883L8.02245 9.45695L5.17897 7.94991ZM5.06641 8.38418C6.10215 8.93422 7.18292 9.50998 8.01766 9.95549L10.9448 8.38418C9.88491 9.95869 9.00182 11.2695 8.01766 12.7202L7.44858 11.8848L7.44818 11.8842C6.62668 10.6783 5.77682 9.43075 5.06641 8.38418Z" fill="#3AB83A"/>
<path fill-rule="evenodd" clip-rule="evenodd" d="M8.00391 3.19922L8.01678 5.94791L10.9439 7.51107L8.00391 3.19922ZM8.02018 6.43346L10.8251 7.93883L8.02178 9.45695L8.02018 6.43346ZM8.01699 9.95549L10.9441 8.38418C9.88424 9.95869 8.01699 12.7202 8.01699 12.7202V9.95549Z" fill="#0B8311"/>
<path d="M5.17969 7.95104L8.02172 8.18427L10.8266 7.94141L8.02317 9.45965L5.17969 7.95104Z" fill="#0B8311"/>
<path d="M8.02148 8.18427L10.8264 7.94141L8.02308 9.45965L8.02148 8.18427Z" fill="#146714"/>
</g>
<defs>
<clipPath id="clip0_5794_48209">
<rect width="16" height="16" fill="white"/>
</clipPath>
</defs>
</svg>
