<svg id="metronomeIcon" width="16" height="16" viewBox="0 0 16 16" fill="none" xmlns="http://www.w3.org/2000/svg">
<circle cx="8" cy="8" r="8" fill="#7967EF"/>
<path fill-rule="evenodd" clip-rule="evenodd" d="M11.6002 7.54046C11.5826 6.39638 10.6968 5.46484 9.59358 5.46484C8.94196 5.46484 8.3662 5.78981 8.00039 6.29161C7.63457 5.78989 7.05886 5.46497 6.40729 5.46497C5.29289 5.46497 4.40039 6.41542 4.40039 7.57532V9.99601L4.40055 10.0076C4.40668 10.2308 4.58953 10.4098 4.81418 10.4098C5.04272 10.4098 5.22798 10.2245 5.22798 9.99601V7.57532L5.22814 7.55394C5.23867 6.84994 5.76845 6.29256 6.40729 6.29256C7.05258 6.29256 7.5866 6.86125 7.5866 7.57532V9.99601L7.58676 10.0076C7.59289 10.2308 7.77573 10.4098 8.00039 10.4098C8.14236 10.4098 8.26763 10.3383 8.34216 10.2294C8.38766 10.1629 8.41427 10.0825 8.41427 9.99588V7.57519L8.41443 7.55381C8.42496 6.84981 8.95474 6.29243 9.59358 6.29243C10.2389 6.29243 10.7729 6.86112 10.7729 7.57519V9.99588L10.7731 10.0075C10.7792 10.2306 10.962 10.4097 11.1867 10.4097C11.4152 10.4097 11.6005 10.2244 11.6005 9.99588V7.57519L11.6002 7.54046Z" fill="white"/>
</svg>
