<svg id="nanoIcon" width="16" height="16" viewBox="0 0 16 16" fill="none" xmlns="http://www.w3.org/2000/svg">
<path d="M15.7589 9.93524C14.6904 14.221 10.3496 16.8292 6.06336 15.7605C1.77889 14.692 -0.829339 10.351 0.239588 6.06558C1.30758 1.77935 5.64835 -0.829071 9.93329 0.239387C14.2192 1.30785 16.8273 5.64936 15.7587 9.93532L15.7588 9.93524H15.7589Z" fill="#4A90E2"/>
<circle cx="4.00566" cy="9.33183" r="0.671676" fill="white"/>
<path fill-rule="evenodd" clip-rule="evenodd" d="M8.00842 7.34335H8.06453C8.40009 7.37141 8.66607 7.65141 8.68009 7.98698C8.68009 8.36462 8.38607 8.65865 8.00842 8.65865C7.63077 8.65865 7.33674 8.3506 7.33674 7.98698C7.33674 7.51114 7.18298 7.32933 6.66506 7.32933C6.14715 7.32933 5.99339 7.51114 5.99339 8.001V8.04308C5.97936 8.37865 5.68533 8.65865 5.33574 8.65865C4.95809 8.65865 4.66406 8.3506 4.66406 7.98698C4.66406 7.63738 4.93004 7.35738 5.2656 7.32933H5.32171C5.90923 7.32933 5.99339 7.20362 5.99339 6.67168C5.99339 6.29403 6.30144 6 6.66506 6C7.04271 6 7.33674 6.30805 7.33674 6.67168C7.33674 7.20362 7.4209 7.34335 8.00842 7.34335ZM11.3388 6.67168C11.3388 6.29403 11.6468 6 12.0105 6C12.3741 6 12.6681 6.29403 12.6681 6.64362C12.6681 7.02127 12.3601 7.3153 11.9964 7.3153C11.4785 7.3153 11.3248 7.49711 11.3248 7.98698V8.02906C11.3107 8.37865 11.0167 8.65865 10.6671 8.65865H10.6531C10.1492 8.67268 9.99544 8.85449 9.99544 9.33033V9.38644C9.98141 9.722 9.68739 10.002 9.33779 10.002C8.96014 10.002 8.66611 9.69395 8.66611 9.33033C8.66611 8.99476 8.93209 8.71476 9.26766 8.67268C9.28168 8.65865 9.30974 8.65865 9.33779 8.65865C9.91128 8.65865 10.0095 8.53295 10.0095 8.01503V8.001C10.0095 7.65141 10.2754 7.37141 10.611 7.34335H10.6671C11.2546 7.34335 11.3388 7.20362 11.3388 6.67168Z" fill="white"/>
</svg>
