<svg id="oxygenIcon" width="16" height="16" viewBox="0 0 16 16" fill="none" xmlns="http://www.w3.org/2000/svg">
<circle cx="8" cy="8" r="8" fill="#EDF0F4"/>
<circle cx="8.04018" cy="12.5499" r="0.784316" fill="#2261F6"/>
<circle cx="8.04018" cy="3.45228" r="0.784316" fill="#2261F6"/>
<circle cx="8.03956" cy="5.75245" r="0.627453" fill="#2261F6"/>
<circle cx="5.84425" cy="4.60402" r="0.627453" fill="#2261F6"/>
<circle cx="5.84425" cy="11.4517" r="0.627453" fill="#2261F6"/>
<circle cx="10.0005" cy="6.92823" r="0.627453" fill="#2261F6"/>
<circle cx="10.0005" cy="9.10011" r="0.627453" fill="#2261F6"/>
<circle cx="8.03956" cy="10.2485" r="0.627453" fill="#2261F6"/>
<circle cx="8.0397" cy="8.00064" r="0.496733" fill="#2261F6"/>
<circle cx="5.84439" cy="9.12564" r="0.496733" fill="#2261F6"/>
<circle cx="5.84439" cy="6.93033" r="0.496733" fill="#2261F6"/>
<circle cx="3.7" cy="5.75273" r="0.366015" fill="#2261F6"/>
<circle cx="3.7" cy="8.00273" r="0.366015" fill="#2261F6"/>
<circle cx="3.7" cy="10.2488" r="0.366015" fill="#2261F6"/>
<circle cx="10.0011" cy="4.60463" r="0.784316" fill="#2261F6"/>
<circle cx="10.0011" cy="11.4249" r="0.784316" fill="#2261F6"/>
<circle cx="11.9621" cy="5.75307" r="0.784316" fill="#2261F6"/>
<circle cx="11.9621" cy="10.2492" r="0.784316" fill="#2261F6"/>
<circle cx="11.9621" cy="8.00307" r="0.784316" fill="#2261F6"/>
</svg>
