<svg id="platoncoinIcon" width="16" height="16" viewBox="0 0 16 16" fill="none" xmlns="http://www.w3.org/2000/svg">
<circle cx="8" cy="8" r="8" fill="#EDF0F4"/>
<mask id="mask0_5794_48294" style="mask-type:luminance" maskUnits="userSpaceOnUse" x="4" y="3" width="8" height="9">
<path fill-rule="evenodd" clip-rule="evenodd" d="M8.00043 3.60156L6.70736 4.89366L8.41795 6.60426L8.4238 6.60881L8.45955 6.64283L8.79756 6.30493L7.38737 4.89366L7.39365 4.8876L8.00054 4.2793L8.61393 4.89388L8.60786 4.89995L8.15752 5.35224L8.49552 5.69025L8.53788 5.64984L8.53853 5.65038L9.29394 4.89366L8.00065 3.60156H8.00043ZM8.15619 7.25873L8.4957 7.59706L9.90708 6.1859L10.5207 6.80069L10.5147 6.80676L10.0634 7.25722L10.4038 7.59749L11.2004 6.80004L9.90708 5.50794L8.15619 7.25873ZM4.80078 6.80004L6.55146 8.54975L6.88968 8.21164L6.85003 8.16993L6.85046 8.1695L5.4809 6.80004L5.48708 6.79398L6.09418 6.1859L6.55276 6.64329L6.8912 6.30496L6.09527 5.50794L4.80078 6.80004ZM6.25117 7.259L6.58939 7.5982L7.79201 6.39569L7.84325 6.34228L7.50492 6.00384L6.25117 7.259ZM9.11139 7.29653L10.5204 8.70672L10.5142 8.71278L9.90711 9.32086L9.4495 8.86347L9.11248 9.20299L9.15386 9.24438L9.15289 9.24557L9.90711 9.9999L11.2004 8.70661L9.44961 6.9569L9.11139 7.29653ZM7.20482 7.29649L8.45933 8.5497L8.79744 8.21137L7.54423 6.95697L7.20482 7.29649ZM9.3698 7.95182L8.11117 9.21034V11.2371H7.89071V9.21001L7.54318 8.86259L7.2029 9.20297L7.40917 9.41043V11.0788L7.40657 11.0812L7.25089 11.2371H6.09421V11.7162H9.90714V11.2371H8.7498L8.74731 11.2346L8.59142 11.0787V9.41L8.59402 9.40751L9.75135 8.24909L9.41151 7.90925L9.3698 7.95182ZM6.09427 9.32182L6.08831 9.31564L5.48099 8.70659L5.48717 8.70041L5.8854 8.30218L5.93675 8.24866L5.59843 7.91022L4.80195 8.70659L6.09416 9.99988L7.84322 8.24866L7.50489 7.91022L6.09427 9.32182Z" fill="white"/>
</mask>
<g mask="url(#mask0_5794_48294)">
<path fill-rule="evenodd" clip-rule="evenodd" d="M6.70736 4.89366L8.00043 3.60156H8.00065L9.29394 4.89366L8.53853 5.65038L8.53788 5.64984L8.49552 5.69025L8.15752 5.35224L8.60786 4.89995L8.61393 4.89388L8.00054 4.2793L7.39365 4.8876L7.38737 4.89366L8.79756 6.30493L8.45955 6.64283L8.4238 6.60881L8.41795 6.60426L6.70736 4.89366ZM8.4957 7.59706L8.15619 7.25873L9.90708 5.50794L11.2004 6.80004L10.4038 7.59749L10.0634 7.25722L10.5147 6.80676L10.5207 6.80069L9.90708 6.1859L8.4957 7.59706ZM4.80078 6.80004L6.55146 8.54975L6.88968 8.21164L6.85003 8.16993L6.85046 8.1695L5.4809 6.80004L5.48708 6.79398L6.09418 6.1859L6.55276 6.64329L6.8912 6.30496L6.09527 5.50794L4.80078 6.80004ZM6.58939 7.5982L6.25117 7.259L7.50492 6.00384L7.84325 6.34228L7.79201 6.39569L6.58939 7.5982ZM9.11139 7.29653L10.5204 8.70672L10.5142 8.71278L9.90711 9.32086L9.4495 8.86347L9.11248 9.20299L9.15386 9.24438L9.15289 9.24557L9.90711 9.9999L11.2004 8.70661L9.44961 6.9569L9.11139 7.29653ZM8.45933 8.5497L7.20482 7.29649L7.54423 6.95697L8.79744 8.21137L8.45933 8.5497ZM9.3698 7.95182L8.11117 9.21034V11.2371H7.89071V9.21001L7.54318 8.86259L7.2029 9.20297L7.40917 9.41043V11.0788L7.40657 11.0812L7.25089 11.2371H6.09421V11.7162H9.90714V11.2371H8.7498L8.74731 11.2346L8.59142 11.0787V9.41L8.59402 9.40751L9.75135 8.24909L9.41151 7.90925L9.3698 7.95182ZM6.08831 9.31564L6.09427 9.32182L7.50489 7.91022L7.84322 8.24866L6.09416 9.99988L4.80195 8.70659L5.59843 7.91022L5.93675 8.24866L5.8854 8.30217L5.48717 8.70041L5.48099 8.70659L6.08831 9.31564Z" fill="url(#paint0_linear_5794_48294)"/>
</g>
<defs>
<linearGradient id="paint0_linear_5794_48294" x1="12.0669" y1="7.63545" x2="6.33208" y2="4.06859" gradientUnits="userSpaceOnUse">
<stop stop-color="#24B1C6"/>
<stop offset="1" stop-color="#D852D8"/>
</linearGradient>
</defs>
</svg>
