<svg id="tetherIcon" width="16" height="16" viewBox="0 0 16 16" fill="none" xmlns="http://www.w3.org/2000/svg">
<path d="M15.7589 9.93524C14.6904 14.221 10.3496 16.8292 6.06336 15.7605C1.77889 14.692 -0.829339 10.351 0.239588 6.06558C1.30758 1.77935 5.64835 -0.829071 9.93329 0.239387C14.2192 1.30785 16.8273 5.64936 15.7587 9.93532L15.7588 9.93524H15.7589Z" fill="#50AF95"/>
<path fill-rule="evenodd" clip-rule="evenodd" d="M9.01185 8.90598C8.95529 8.91023 8.66302 8.92767 8.01109 8.92767C7.49255 8.92767 7.12439 8.91211 6.99523 8.90598C4.99134 8.81783 3.49561 8.469 3.49561 8.05135C3.49561 7.63369 4.99134 7.28533 6.99523 7.19577V8.55857C7.12628 8.568 7.50151 8.59015 8.02004 8.59015C8.64228 8.59015 8.95387 8.56422 9.00997 8.55904V7.19671C11.0096 7.2858 12.5021 7.63464 12.5021 8.05135C12.5021 8.46806 11.0101 8.81689 9.00997 8.90551L9.01185 8.90598ZM9.01196 7.05571V5.83621H11.8026V3.97656H4.20468V5.83621H6.99486V7.05523C4.72699 7.15941 3.02148 7.60865 3.02148 8.14698C3.02148 8.68531 4.72699 9.13408 6.99486 9.23873V13.1466H9.01148V9.23732C11.2742 9.13314 12.9768 8.68437 12.9768 8.14651C12.9768 7.60865 11.2756 7.15988 9.01148 7.05523L9.01196 7.05571Z" fill="white"/>
</svg>
