<svg id="brazilFlagIcon" width="20" height="20" viewBox="0 0 20 20" fill="none" xmlns="http://www.w3.org/2000/svg">
<g clip-path="url(#clip0_4898_7530)">
<path d="M10 20C15.5228 20 20 15.5228 20 10C20 4.47715 15.5228 0 10 0C4.47715 0 0 4.47715 0 10C0 15.5228 4.47715 20 10 20Z" fill="#6DA544"/>
<path d="M10.0001 3.91406L18.261 10.001L10.0001 16.088L1.73926 10.001L10.0001 3.91406Z" fill="#FFDA44"/>
<path d="M10.0002 13.4799C11.9212 13.4799 13.4785 11.9227 13.4785 10.0017C13.4785 8.0807 11.9212 6.52344 10.0002 6.52344C8.07923 6.52344 6.52197 8.0807 6.52197 10.0017C6.52197 11.9227 8.07923 13.4799 10.0002 13.4799Z" fill="#F0F0F0"/>
<path d="M8.26096 9.78516C7.65611 9.78516 7.0724 9.87715 6.52295 10.0479C6.54729 11.9479 8.09432 13.4808 10.0001 13.4808C11.1785 13.4808 12.2193 12.8942 12.8485 11.9977C11.7721 10.6502 10.1158 9.78516 8.26096 9.78516Z" fill="#0052B4"/>
<path d="M13.4138 10.6681C13.4557 10.4523 13.4783 10.2297 13.4783 10.0017C13.4783 8.08066 11.921 6.52344 10 6.52344C8.56668 6.52344 7.33621 7.39066 6.80371 8.62887C7.27441 8.53133 7.76176 8.47996 8.26094 8.47996C10.2811 8.47992 12.1087 9.31969 13.4138 10.6681Z" fill="#0052B4"/>
</g>
<defs>
<clipPath id="clip0_4898_7530">
<rect width="20" height="20" fill="white"/>
</clipPath>
</defs>
</svg>
