<svg id="portugalFlagIcon" width="20" height="20" viewBox="0 0 20 20" fill="none" xmlns="http://www.w3.org/2000/svg">
<g clip-path="url(#clip0_4898_7551)">
<path d="M0 9.9991C0 14.2987 2.71375 17.9641 6.52168 19.3771L7.39129 9.99906L6.52168 0.621094C2.71375 2.03406 0 5.69945 0 9.9991Z" fill="#6DA544"/>
<path d="M20.0003 10C20.0003 4.47719 15.5231 0 10.0003 0C8.77709 0 7.60533 0.220039 6.52197 0.621992V19.378C7.60533 19.78 8.77709 20 10.0003 20C15.5231 20 20.0003 15.5228 20.0003 10Z" fill="#D80027"/>
<path d="M6.5217 13.4799C8.44268 13.4799 9.99994 11.9227 9.99994 10.0017C9.99994 8.0807 8.44268 6.52344 6.5217 6.52344C4.60072 6.52344 3.04346 8.0807 3.04346 10.0017C3.04346 11.9227 4.60072 13.4799 6.5217 13.4799Z" fill="#FFDA44"/>
<path d="M4.56543 8.26172V10.4356C4.56543 11.5162 5.44137 12.3921 6.52195 12.3921C7.60254 12.3921 8.47848 11.5162 8.47848 10.4356V8.26172H4.56543Z" fill="#D80027"/>
<path d="M6.52182 11.0881C6.16221 11.0881 5.86963 10.7955 5.86963 10.4359V9.56641H7.17396V10.436C7.17396 10.7955 6.88139 11.0881 6.52182 11.0881Z" fill="#F0F0F0"/>
</g>
<defs>
<clipPath id="clip0_4898_7551">
<rect width="20" height="20" fill="white"/>
</clipPath>
</defs>
</svg>
