<svg id="avatarIcon" width="24" height="24" viewBox="0 0 24 24" fill="none" xmlns="http://www.w3.org/2000/svg">
<path d="M13.3337 5.93579C13.5576 6.23277 13.7226 6.58487 13.6686 6.9661C13.6142 7.35046 13.3768 7.64626 13.0705 7.87018C13.0431 7.89004 13.0151 7.90908 12.9865 7.9273C12.9855 7.91654 12.9875 7.922 12.9777 7.91223L12.9661 7.91968C12.9243 7.94605 12.8921 7.97113 12.8418 7.96004C12.8035 7.92198 12.7944 7.83465 12.7732 7.78182C12.7366 7.69086 12.5691 7.50456 12.5622 7.45857C12.5571 7.42468 12.565 7.4592 12.5577 7.42822C12.5569 7.42489 12.556 7.42161 12.5552 7.41831C12.5742 7.37232 12.6915 7.32221 12.7356 7.2901L12.7352 7.2711C13.0157 7.09206 13.3569 6.87735 13.4353 6.52923C13.483 6.3178 13.4189 6.12704 13.3337 5.93579Z" fill="#F6AE1C"/>
<path d="M10.6343 14.7781C10.7052 14.9343 10.7004 15.1708 10.705 15.3421C10.7199 15.8993 10.604 16.3612 10.2862 16.8211C10.1232 17.057 9.97536 17.2736 9.87707 17.5461C9.60828 18.2913 9.67855 19.2257 9.9219 19.9739C9.98399 20.1648 10.0672 20.344 10.1526 20.5251C10.0431 20.4257 9.94719 20.3116 9.84922 20.2011C9.79799 20.1357 9.7487 20.0688 9.70135 20.0004C9.38645 19.5439 9.17239 19.0357 9.08966 18.4857C8.97179 17.7023 9.21153 17.0009 9.70881 16.3938C9.89436 16.1672 10.1067 15.9607 10.267 15.7144C10.4582 15.4206 10.5714 15.121 10.6343 14.7781Z" fill="#EA5E14"/>
<path d="M12.3062 6.39343C12.4063 6.48498 12.5008 6.59734 12.5469 6.7265C12.6342 6.97133 12.5547 7.21534 12.4528 7.4395C12.5451 7.38012 12.6392 7.32392 12.7353 7.27089L12.7356 7.28989C12.6915 7.322 12.5743 7.37211 12.5552 7.4181C12.5561 7.4214 12.557 7.42468 12.5578 7.42801C12.5651 7.45899 12.5572 7.42447 12.5623 7.45836C12.5692 7.50435 12.7366 7.69065 12.7733 7.78161C12.7945 7.83444 12.8036 7.92177 12.8419 7.95983C12.8922 7.97092 12.9244 7.94584 12.9661 7.91947L12.9778 7.91202C12.9875 7.92179 12.9856 7.91633 12.9866 7.92709C12.9531 7.95739 12.9108 7.98076 12.873 8.00556C12.8314 7.98779 12.7872 7.97256 12.7436 7.96035C12.4284 7.87217 12.0665 7.96121 11.7876 8.11679C11.4731 8.29213 11.2964 8.53513 11.1994 8.87788C11.2386 8.7988 11.2782 8.71888 11.3264 8.64477C11.5068 8.36741 11.8152 8.17086 12.1375 8.10496C12.4558 8.03989 12.8523 8.10175 13.1243 8.28404C13.3154 8.41215 13.4609 8.60699 13.5014 8.83562C13.5145 8.90933 13.5123 8.96007 13.4688 9.02195L13.4551 9.01789C13.422 8.91894 13.3894 8.82566 13.2995 8.7639C13.1921 8.69007 13.0518 8.68203 12.9272 8.707C12.5955 8.77342 12.3275 8.9881 12.1417 9.26467C11.893 9.63507 11.8177 10.075 11.905 10.511C11.998 10.975 12.2528 11.4096 12.6505 11.6737C12.5038 11.6422 12.3604 11.5998 12.2203 11.5465C11.6023 11.3154 11.0952 10.8107 10.8257 10.2118C10.5691 9.64138 10.4922 8.89632 10.7218 8.3046C10.8411 7.99717 11.071 7.68477 11.367 7.52828C11.5037 7.45602 11.6585 7.40317 11.8007 7.34103C11.9642 7.21862 12.1398 7.13183 12.252 6.9516C12.3685 6.76442 12.3531 6.59935 12.3062 6.39343Z" fill="url(#paint0_linear_4404_58011)"/>
<path d="M5.50028 1.49658C5.25088 2.99628 5.62977 4.3366 6.50708 5.56507C6.99669 6.25067 7.66551 6.83128 8.35555 7.30864C8.80403 7.6189 9.33515 7.93676 9.69313 8.35036C10.0224 8.73075 9.99065 9.08663 9.99878 9.55475C10.0019 9.73664 10.0183 9.92808 10.0475 10.1078C10.1038 10.4537 10.2682 10.8314 10.4601 11.1258C10.7888 11.6301 11.1889 11.9208 11.657 12.2765C12.3235 12.783 13.0945 13.3571 13.5305 14.0886C13.5251 14.0863 13.5195 14.0842 13.5142 14.0816C13.4547 14.0522 13.3239 13.838 13.2755 13.7746C13.1538 13.615 12.7785 13.1609 12.6125 13.1117C12.5806 13.1022 12.5727 13.0728 12.5462 13.0656C12.5277 13.0955 12.5097 13.1288 12.4825 13.1516C12.4085 13.2136 12.2461 13.2833 12.1523 13.3041C12.1337 13.3082 12.1144 13.3102 12.0954 13.3128C12.0137 13.3243 11.6984 13.4102 11.6438 13.4656C11.6617 13.5237 12.5763 14.1978 12.6995 14.6203C12.6316 14.5475 12.5761 14.4472 12.5166 14.3657C12.4548 14.2812 12.389 14.1997 12.3193 14.1215C12.2497 14.0432 12.1764 13.9685 12.0995 13.8973C11.6686 13.5024 11.1827 13.1683 10.7228 12.8093C10.2109 12.4097 9.72297 11.9572 9.32481 11.4424C9.04827 11.0848 8.79564 10.6985 8.59513 10.293C8.50096 10.1025 8.42319 9.86171 8.31055 9.68628C8.30819 9.6826 8.3057 9.67896 8.30326 9.67531C8.47581 10.328 8.70836 10.9359 9.04265 11.5232C8.85465 11.3857 8.55046 10.4853 8.50768 10.4631C8.45066 10.4335 8.32933 10.5156 8.22278 10.4466C8.19143 10.4455 8.16028 10.4424 8.12931 10.4374C8.09834 10.4324 8.06781 10.4255 8.03772 10.4167C7.79033 10.3466 7.54604 10.2446 7.30075 10.1647C7.24872 10.1477 7.17604 10.1456 7.13097 10.1209C7.01931 10.0596 6.88764 9.94465 6.79651 9.85519C6.74671 9.80632 6.70047 9.74846 6.6456 9.70552C6.50631 9.59651 6.33407 9.52615 6.18847 9.42427C6.0576 9.3327 5.96593 9.21884 5.84828 9.11496C5.82981 9.11267 5.83675 9.11182 5.81931 9.11611C5.81533 9.11707 5.81139 9.11827 5.80745 9.11937C5.75275 9.06931 5.69001 9.01939 5.64297 8.96218C5.5724 8.87644 5.51083 8.77899 5.43294 8.69989C5.36886 8.6348 5.28154 8.58849 5.22261 8.52029C5.15286 8.43957 5.10606 8.32634 5.04435 8.23789C4.97211 8.13432 4.88101 8.04249 4.80381 7.94199C4.7815 7.91295 4.75879 7.88421 4.74142 7.8518C4.63382 7.65104 4.56463 7.38331 4.47395 7.16623C4.4549 7.1206 4.42827 7.06768 4.42499 7.01799C4.41972 6.93816 4.46809 6.88817 4.42733 6.80684C4.34071 6.63396 4.21837 6.47105 4.11819 6.30467C4.05911 6.20661 3.99714 6.10301 3.95202 5.99773C3.93927 5.96799 3.94051 5.93499 3.92894 5.90801C3.91375 5.87264 3.88016 5.84126 3.86301 5.80245C3.80294 5.66653 3.68896 5.35006 3.66229 5.20988C3.65826 5.18867 3.66376 5.20004 3.64248 5.18103C3.59837 5.27452 3.53357 5.66262 3.50908 5.78841C3.46745 6.00223 3.46965 6.23082 3.47047 6.44841C3.47291 7.10438 3.60653 7.76972 3.92933 8.34694C4.02421 8.51658 4.14484 8.68029 4.25666 8.83948C4.29062 8.88783 4.33654 8.92629 4.37333 8.97225C5.07154 9.84418 6.07926 10.2741 7.12729 10.571C7.28211 10.6149 7.44925 10.6287 7.60492 10.673C7.63033 10.6802 7.64099 10.6907 7.65114 10.7146L7.63846 10.7329C7.63398 10.7335 7.62955 10.7343 7.62505 10.7346C7.54047 10.7403 6.76138 10.6699 6.70377 10.6524C6.68685 10.6473 6.67808 10.639 6.66489 10.6278C6.96294 10.6544 7.25772 10.6962 7.55793 10.6964C7.27318 10.6125 6.9824 10.5574 6.69857 10.4663C5.71129 10.1493 4.87492 9.68215 4.23742 8.84562C4.11779 8.68864 4.00342 8.5287 3.90829 8.35538C3.38087 7.39468 3.32345 6.18511 3.62654 5.14386C3.63644 5.10928 3.64776 5.07518 3.66053 5.04157C3.85689 6.22967 4.89679 7.53202 5.85793 8.21939C6.38736 8.59803 6.96341 8.94418 7.55905 9.20808C7.55673 9.2055 7.55446 9.20286 7.55209 9.20032C7.44287 9.08407 7.26008 9.0015 7.12846 8.90796C6.96442 8.79136 6.80704 8.65915 6.65507 8.52732C6.24344 8.17027 5.85318 7.78636 5.5239 7.35033C4.91992 6.55053 4.52352 5.51443 4.53826 4.50502C4.53876 4.43821 4.54053 4.37142 4.54356 4.30465C4.54659 4.2379 4.55087 4.17124 4.5564 4.10466C4.56195 4.03807 4.56875 3.9716 4.57679 3.90525C4.58486 3.83893 4.59416 3.77277 4.60471 3.70679C4.61526 3.6408 4.62704 3.57504 4.64008 3.50951C4.65311 3.44396 4.66737 3.37869 4.68287 3.31369C4.69836 3.24869 4.71507 3.18401 4.73301 3.11965C4.75094 3.05528 4.77009 2.99127 4.79045 2.92763C4.81079 2.86399 4.83233 2.80075 4.85507 2.7379C4.87782 2.67507 4.90174 2.6127 4.92683 2.55078C4.95193 2.48884 4.97818 2.4274 5.00558 2.36646C5.03301 2.30552 5.06156 2.24512 5.09125 2.18526C5.12094 2.1254 5.15175 2.06612 5.18369 2.00742C5.21561 1.94873 5.24863 1.89065 5.28276 1.8332C5.31688 1.77575 5.35208 1.71896 5.38834 1.66284C5.42461 1.60671 5.46192 1.5513 5.50028 1.49658Z" fill="#F6AE1C"/>
<path d="M6.66492 10.628C6.67812 10.6391 6.68689 10.6474 6.70381 10.6526C6.76142 10.6701 7.5405 10.7404 7.62509 10.7347C7.62959 10.7344 7.63402 10.7336 7.63849 10.733L7.65118 10.7147C7.64103 10.6908 7.63036 10.6804 7.60496 10.6731C7.44928 10.6288 7.28215 10.615 7.12732 10.5712C6.07929 10.2742 5.07157 9.8443 4.37337 8.97238C4.33657 8.92642 4.29066 8.88796 4.2567 8.83961C4.14488 8.68042 4.02425 8.51671 3.92937 8.34707C3.60657 7.76985 3.47295 7.1045 3.47051 6.44853C3.46969 6.23094 3.46749 6.00236 3.50911 5.78853C3.53361 5.66275 3.59841 5.27464 3.64252 5.18115C3.6638 5.20016 3.65829 5.18879 3.66232 5.21C3.689 5.35018 3.80297 5.66666 3.86304 5.80257C3.8802 5.84139 3.91378 5.87277 3.92897 5.90814C3.94055 5.93511 3.93931 5.96811 3.95206 5.99786C3.99718 6.10314 4.05914 6.20673 4.11823 6.30479C4.2184 6.47118 4.34075 6.63409 4.42737 6.80696C4.46813 6.88829 4.41975 6.93828 4.42503 7.01811C4.42831 7.0678 4.45493 7.12072 4.47399 7.16636C4.56467 7.38343 4.63386 7.65116 4.74146 7.85193C4.75882 7.88434 4.78153 7.91307 4.80385 7.94211C4.88105 8.04261 4.97215 8.13444 5.04439 8.23801C5.1061 8.32646 5.1529 8.43969 5.22265 8.52041C5.28157 8.58861 5.3689 8.63493 5.43298 8.70001C5.51086 8.77911 5.57243 8.87657 5.643 8.9623C5.69004 9.01951 5.75278 9.06943 5.80749 9.1195C5.81143 9.11839 5.81536 9.1172 5.81935 9.11624C5.83678 9.11195 5.82985 9.11279 5.84832 9.11509C5.96597 9.21896 6.05764 9.33282 6.18851 9.42439C6.3341 9.52628 6.50635 9.59664 6.64564 9.70564C6.7005 9.74858 6.74675 9.80645 6.79655 9.85532C6.88767 9.94478 7.01935 10.0598 7.131 10.121C7.17607 10.1457 7.24875 10.1479 7.30078 10.1648C7.54608 10.2447 7.79037 10.3467 8.03775 10.4168C8.06785 10.4256 8.09838 10.4325 8.12935 10.4375C8.16032 10.4425 8.19147 10.4456 8.22282 10.4467C8.32936 10.5158 8.4507 10.4337 8.50772 10.4633C8.55049 10.4854 8.85469 11.3858 9.04268 11.5233C8.70839 10.936 8.47585 10.3282 8.3033 9.67543C8.30574 9.67909 8.30822 9.68272 8.31059 9.6864C8.42323 9.86183 8.501 10.1027 8.59517 10.2931C8.79567 10.6987 9.04831 11.0849 9.32485 11.4425C9.723 11.9574 10.2109 12.4099 10.7228 12.8094C11.1828 13.1684 11.6686 13.5025 12.0996 13.8974C12.1764 13.9686 12.2497 14.0433 12.3194 14.1216C12.389 14.1999 12.4548 14.2813 12.5167 14.3659C12.5762 14.4473 12.6317 14.5476 12.6995 14.6204C12.5764 14.1979 11.6618 13.5239 11.6439 13.4657C11.6984 13.4103 12.0137 13.3244 12.0955 13.3129C12.1144 13.3103 12.1337 13.3084 12.1524 13.3042C12.2461 13.2834 12.4085 13.2137 12.4826 13.1517C12.5098 13.1289 12.5277 13.0956 12.5463 13.0657C12.5727 13.073 12.5806 13.1023 12.6125 13.1118C12.7786 13.1611 13.1538 13.6151 13.2756 13.7748C13.3239 13.8381 13.4547 14.0523 13.5142 14.0817C13.5195 14.0844 13.5251 14.0864 13.5305 14.0888C13.533 14.0913 13.5358 14.0936 13.538 14.0964C13.6551 14.2429 13.7482 14.4301 13.8256 14.5997C13.8446 14.6411 13.8629 14.6828 13.8805 14.7248C13.8981 14.7667 13.915 14.809 13.9312 14.8515C13.9474 14.894 13.963 14.9368 13.9778 14.9798C13.9927 15.0229 14.0068 15.0661 14.0203 15.1096C14.0337 15.1531 14.0465 15.1968 14.0585 15.2407C14.0706 15.2846 14.0819 15.3286 14.0925 15.3729C14.1032 15.4171 14.1131 15.4616 14.1222 15.5061C14.1314 15.5507 14.1399 15.5954 14.1476 15.6403C14.1554 15.6852 14.1624 15.7301 14.1687 15.7752C14.175 15.8203 14.1805 15.8654 14.1854 15.9107C14.1902 15.956 14.1943 16.0013 14.1977 16.0467C14.2011 16.0921 14.2037 16.1375 14.2056 16.183C14.2075 16.2285 14.2087 16.274 14.2091 16.3195C14.2095 16.365 14.2092 16.4105 14.2082 16.456C14.2072 16.5015 14.2054 16.547 14.2029 16.5924C14.2004 16.6379 14.1972 16.6833 14.1932 16.7286C14.1442 17.3425 13.9574 17.9692 13.5631 18.4515C13.3973 18.6543 13.2051 18.826 13.0064 18.9951C13.4837 18.3679 13.7611 17.5284 13.7441 16.7413C13.6925 16.9708 13.64 17.1992 13.5435 17.415C13.1127 18.3782 12.1811 19.1387 12.0245 20.1988C11.9404 20.7679 12.0667 21.3966 12.3782 21.8822C12.5007 22.0731 12.6496 22.2365 12.7844 22.4175C12.6158 22.3284 12.4461 22.2457 12.2817 22.1484C12.2163 22.1098 12.1519 22.0696 12.0883 22.0279C12.0248 21.9862 11.9623 21.943 11.9008 21.8983C11.8393 21.8537 11.7789 21.8076 11.7196 21.7602C11.6602 21.7127 11.6021 21.6638 11.545 21.6136C11.488 21.5634 11.4322 21.5119 11.3776 21.459C11.323 21.4062 11.2696 21.3521 11.2175 21.2967C11.1655 21.2414 11.1147 21.1848 11.0653 21.1271C11.0159 21.0694 10.9679 21.0105 10.9212 20.9505C10.191 20.0184 9.90366 18.5886 10.4258 17.496C10.5279 17.2825 10.6682 17.0936 10.7943 16.8943C10.9741 16.6101 11.1022 16.2738 11.1406 15.939C11.175 15.64 11.1583 15.3308 11.1038 15.0353C10.9341 14.1139 10.4266 13.7364 9.84879 13.0835C9.63584 12.8429 9.4601 12.5761 9.26039 12.326C9.51778 13.0216 10.0917 13.5446 10.4197 14.2008C10.2377 14.2916 10.026 14.3466 9.82728 14.3855C8.97141 14.5534 7.96552 14.3534 7.2375 13.8629C7.385 13.8638 7.53223 13.8834 7.68026 13.8837C8.13837 13.8846 8.64317 13.8095 9.06659 13.6333C9.24387 13.5595 9.41152 13.4623 9.57968 13.3701C8.96006 13.5308 8.30834 13.6115 7.67014 13.5225C6.8348 13.406 5.96768 12.9796 5.363 12.3917C5.2845 12.3153 5.20018 12.2403 5.1338 12.153C5.20025 12.1845 5.26693 12.2148 5.33576 12.2409C6.08867 12.5262 7.11024 12.5316 7.89825 12.3893C8.07183 12.3579 8.26111 12.3249 8.42213 12.2524C8.40591 12.2533 8.38978 12.2548 8.37361 12.2562C7.2713 12.35 6.19329 12.1684 5.24789 11.574C5.07959 11.4681 4.91635 11.36 4.76414 11.2314C4.53122 11.0347 4.30894 10.8306 4.1153 10.5942C3.72877 10.1224 3.37615 9.40583 3.32471 8.79332C3.34611 8.82519 3.36793 8.85678 3.39017 8.88807C3.78861 9.44785 4.33383 9.84093 4.94499 10.1383C5.12412 10.2255 5.30576 10.3093 5.49551 10.3708C5.88028 10.4955 6.26733 10.562 6.66492 10.628Z" fill="#EA5E14"/>
<path d="M8.30347 9.6748C8.3059 9.67846 8.30839 9.68209 8.31076 9.68577C8.4234 9.8612 8.50116 10.102 8.59533 10.2925C8.79584 10.698 9.04847 11.0843 9.32501 11.4419C9.72317 11.9567 10.2111 12.4092 10.723 12.8088C11.183 13.1678 11.6688 13.5019 12.0997 13.8968C12.1766 13.968 12.2499 14.0427 12.3195 14.121C12.3892 14.1992 12.455 14.2807 12.5168 14.3652C12.5763 14.4467 12.6318 14.547 12.6997 14.6198C12.7177 14.7072 12.8094 14.8353 12.8483 14.9227C12.9225 15.0897 12.9813 15.2909 13.0177 15.4693C13.1063 15.904 13.0685 16.4155 12.8183 16.7939C12.8432 16.7171 12.8676 16.6394 12.8839 16.5603C12.9441 16.2677 12.9048 15.9876 12.8266 15.7022C12.5831 14.8145 11.8335 14.1809 11.1236 13.6522C10.8584 13.4547 10.5823 13.2668 10.3348 13.0469C9.82163 12.591 9.41743 12.0966 9.04285 11.5227C8.70856 10.9354 8.47601 10.3275 8.30347 9.6748Z" fill="#FEFEFE"/>
<path d="M18.5606 1.49854C18.6962 1.76749 18.8365 2.03588 18.9502 2.31503C19.4085 3.4402 19.6301 4.7617 19.2411 5.94166C18.7666 7.3812 17.6315 8.38868 16.3676 9.14655C17.7682 8.69416 19.2239 7.57814 19.9017 6.25727C20.094 5.88265 20.2607 5.47413 20.3215 5.05636C20.6768 6.14995 20.6135 7.24781 20.0908 8.27489C19.5525 9.3326 18.5318 10.0768 17.4179 10.4378C17.1286 10.5315 16.8363 10.5773 16.5362 10.6194C17.8375 10.7287 19.1688 10.253 20.1593 9.41384C20.3773 9.22912 20.5547 9.0127 20.7505 8.80645C20.6402 9.1556 20.5248 9.5017 20.3604 9.83002C19.9226 10.7046 19.1891 11.3483 18.3299 11.7935C17.6562 12.1426 16.8808 12.2852 16.1252 12.2394C16.0293 12.2337 15.934 12.2235 15.8391 12.2088C15.7437 12.1942 15.6198 12.1529 15.5256 12.1638C15.5998 12.2169 15.7341 12.2435 15.822 12.2717C16.557 12.5074 17.3561 12.5253 18.1131 12.4003C18.3695 12.358 18.616 12.298 18.8645 12.2227C17.9859 13.0729 16.9595 13.5553 15.7213 13.5351C15.1448 13.5257 14.6015 13.4116 14.0651 13.2017C14.1706 13.2804 14.2907 13.3442 14.4067 13.4061C15.1054 13.7788 15.9892 13.9571 16.7797 13.8413C16.831 13.8334 16.8821 13.8243 16.933 13.8139C16.8285 13.8881 16.714 13.9474 16.6015 14.0081C15.8786 14.3985 15.0809 14.5268 14.272 14.3913C14.2111 14.381 14.1543 14.3677 14.0965 14.3453C13.8479 13.9178 13.6583 13.5997 13.334 13.2174C13.8092 12.8918 14.0618 12.6842 14.433 12.2396C14.5335 12.1193 14.6351 11.9992 14.724 11.8699C14.8343 11.7095 14.9181 11.5277 15.0305 11.3704C15.2748 10.8984 15.4712 10.4141 15.6041 9.89888C15.526 10.0303 15.4726 10.1805 15.4081 10.3192C15.3369 10.4727 15.2535 10.6235 15.1705 10.771C14.6558 11.6861 13.929 12.3616 13.074 12.9514C12.8333 12.7391 12.5944 12.5364 12.334 12.3487C12.6292 12.1695 12.9027 11.9816 13.1527 11.7425C13.7274 11.1928 14.0075 10.4374 14.0547 9.65454C14.0677 9.43927 14.0496 9.22669 14.0551 9.01195C14.0745 8.24909 14.7221 7.8783 15.2975 7.51659C15.49 7.39298 15.6786 7.26352 15.8631 7.12819C16.2375 6.85423 16.5629 6.54623 16.9002 6.22966C18.0994 4.9106 18.6571 3.50662 18.5723 1.71785C18.5689 1.64472 18.565 1.57161 18.5606 1.49854Z" fill="url(#paint1_linear_4404_58011)"/>
<defs>
<linearGradient id="paint0_linear_4404_58011" x1="11.009" y1="10.7177" x2="13.6354" y2="7.4795" gradientUnits="userSpaceOnUse">
<stop stop-color="#CD4A0C"/>
<stop offset="1" stop-color="#FFA818"/>
</linearGradient>
<linearGradient id="paint1_linear_4404_58011" x1="15.0316" y1="7.11268" x2="20.0801" y2="10.2913" gradientUnits="userSpaceOnUse">
<stop stop-color="#FF8B0F"/>
<stop offset="1" stop-color="#D20F16"/>
</linearGradient>
</defs>
</svg>
