<?xml version="1.0" encoding="UTF-8"?>
<svg id="betChanceIcon" xmlns="http://www.w3.org/2000/svg" width="16" height="17" version="1.1" viewBox="0 0 16 17">
      <path d="M13.3,8.5v4c0,1.5-1.2,2.7-2.7,2.7h-5.3c-1.5,0-2.7-1.2-2.7-2.7v-4c0-.4.3-.7.7-.7h1.3c.4,0,.7.3.7.7v2.1c0,.5.3.9.7,1.2.2.1.4.2.6.2s.5,0,.7-.2l.6-.4.6.4c.4.3.9.3,1.4,0,.4-.2.7-.7.7-1.2v-2.1c0-.4.3-.7.7-.7h1.3c.4,0,.7.3.7.7ZM14.3,5.2v.7c0,.7-.4,1.3-1.3,1.3H3c-1,0-1.3-.6-1.3-1.3v-.7c0-.7.3-1.3,1.3-1.3h10c1,0,1.3.6,1.3,1.3ZM7.8,3.8h-3.7c-.2-.2-.2-.6,0-.9l.9-.9c.2-.2.7-.2.9,0l1.8,1.8ZM11.9,3.8h-3.7l1.8-1.8c.2-.2.7-.2.9,0l.9.9c.2.2.2.6,0,.9ZM9.3,7.8c.4,0,.7.3.7.7v2.1c0,.5-.6.9-1,.6l-.6-.4c-.2-.1-.5-.1-.7,0l-.6.4c-.4.3-1,0-1-.6v-2.1c0-.4.3-.7.7-.7h2.7Z"/>
</svg>