<svg id="bitcoinBTCIcon" width="16" height="17" viewBox="0 0 16 17" fill="none" xmlns="http://www.w3.org/2000/svg">
<path d="M9.97994 9H9.46661H6.35327V10.8867H7.22661H9.97994C10.6133 10.8867 11.1333 10.46 11.1333 9.94C11.1333 9.42 10.6133 9 9.97994 9Z" fill="#C1FF11"/>
<path d="M7.99992 1.83203C4.31992 1.83203 1.33325 4.8187 1.33325 8.4987C1.33325 12.1787 4.31992 15.1654 7.99992 15.1654C11.6799 15.1654 14.6666 12.1787 14.6666 8.4987C14.6666 4.8187 11.6799 1.83203 7.99992 1.83203ZM9.97992 11.8854H8.87992V12.832C8.87992 13.1054 8.65325 13.332 8.37992 13.332C8.10659 13.332 7.87992 13.1054 7.87992 12.832V11.8854H7.22659H7.07325V12.832C7.07325 13.1054 6.84659 13.332 6.57325 13.332C6.29992 13.332 6.07325 13.1054 6.07325 12.832V11.8854H5.85325H4.69992C4.42659 11.8854 4.19992 11.6587 4.19992 11.3854C4.19992 11.112 4.42659 10.8854 4.69992 10.8854H5.35325V8.4987V6.11203H4.69992C4.42659 6.11203 4.19992 5.88536 4.19992 5.61203C4.19992 5.3387 4.42659 5.11203 4.69992 5.11203H5.85325H6.07325V4.16536C6.07325 3.89203 6.29992 3.66536 6.57325 3.66536C6.84659 3.66536 7.07325 3.89203 7.07325 4.16536V5.11203H7.22659H7.87992V4.16536C7.87992 3.89203 8.10659 3.66536 8.37992 3.66536C8.65325 3.66536 8.87992 3.89203 8.87992 4.16536V5.11203H9.46659C10.4999 5.11203 11.4133 6.0187 11.4133 7.0587C11.4133 7.50536 11.2533 7.91203 10.9999 8.24536C11.6733 8.57203 12.1333 9.21203 12.1333 9.95203C12.1333 11.012 11.1666 11.8854 9.97992 11.8854Z" fill="#C1FF11"/>
<path d="M10.4133 7.05214C10.4133 6.61214 9.99994 6.10547 9.4666 6.10547H7.22661H6.35327V7.99214H9.4666C9.9866 7.9988 10.4133 7.57214 10.4133 7.05214Z" fill="#C1FF11"/>
</svg>