<?xml version="1.0" encoding="UTF-8"?>
<svg id="blackjackIcon" xmlns="http://www.w3.org/2000/svg" width="20" height="20" version="1.1" viewBox="0 0 20 20">
      <path d="M14,17.4c-.2,0-.4,0-.6,0l.2-1.1c.7.1,1.4,0,1.9-.4.6-.4.9-1,1.1-1.7l1.3-7.6c.1-.8,0-1.5-.5-2.2s-1.1-1.1-1.9-1.2l-6.1-1c-.5,0-1.1,0-1.5.3-.4.3-.7.8-.8,1.3l-1.1-.2c.1-.8.6-1.6,1.3-2.1.7-.5,1.6-.7,2.4-.5l6.1,1c1.1.2,2,.8,2.6,1.7.6.9.9,2,.7,3l-1.3,7.6c-.2,1-.7,1.8-1.5,2.4-.6.5-1.4.7-2.2.7ZM14.6,7.5v8c0,2.2-1.8,4.1-4.1,4.1h-5c-2.2,0-4.1-1.8-4.1-4.1V7.5c0-2.2,1.8-4.1,4.1-4.1h5c2.2,0,4.1,1.8,4.1,4.1ZM10.2,10c-.5-.6-1.4-.7-2-.2h-.1c0,0-.1,0-.1,0-.6-.5-1.5-.4-2,.2-.2.3-.4.7-.3,1,0,.4.2.7.5,1l1.5,1.3c.1.1.3.2.5.2.2,0,.3,0,.4-.2l1.5-1.3c.6-.5.7-1.4.2-2Z"/> 
</svg>