<?xml version="1.0" encoding="UTF-8"?>
<svg id="blackjack2Icon" xmlns="http://www.w3.org/2000/svg" width=".3in" height=".3in" version="1.1" viewBox="0 0 21 21">
  <path d="M12.8,12.4l-2.7-4.6c-1-1.7-3.1-2.2-4.8-1.3l-3.1,1.8c-1.7,1-2.2,3.1-1.3,4.8l2.7,4.6c1,1.7,3.1,2.2,4.8,1.3l3.1-1.8c1.7-1,2.2-3.1,1.3-4.8ZM8.3,13.8c0,.3-.4.6-.7.4l-1.7-.8c-.2,0-.3-.3-.3-.5l.2-1.6c0-.3.4-.5.7-.4l1.6.7c.2,0,.3.3.3.5v1.7ZM20.1,5.7c-.4-1-1.2-1.8-2.1-2.3l-3.3-1.4c-1-.4-2.1-.5-3.1,0-1,.4-1.8,1.2-2.3,2.1l-.7,1.6c.9.3,1.8.9,2.3,1.8l2.7,4.6c.7,1.2.7,2.7,0,3.9.2,0,.3,0,.5,0,1.6,0,3-.9,3.7-2.4l2.2-4.9c.4-1,.5-2.1,0-3.1ZM15,9.2l-1.4.9c-.3.2-.7,0-.8-.3l-.4-1.8c0-.2,0-.4.2-.5l1.4-.8c.3-.2.6,0,.7.3l.4,1.7c0,.2,0,.4-.2.5Z"/>
</svg>