
<svg id="bigBookmarkIcon" xmlns="http://www.w3.org/2000/svg" width="65" height="64" version="1.1" viewBox="0 0 65 64">
      <path d="M59.2,20.8v22.3c0,8.6-6.9,15.5-15.5,15.5h-22.3c-8.6,0-15.5-6.9-15.5-15.5v-22.3c0-6.6,2.7-11.5,7.5-13.8,1.8-.9,3.8.5,3.8,2.4v23.7c0,3.2,1.2,5.7,3.4,7,2.2,1.3,5.1,1,7.9-.7l3.5-2.1c.2-.1.7-.1.9,0l3.5,2.1c1.9,1.1,3.6,1.5,4.9,1.5s2.5-.4,3.1-.8c2.2-1.3,3.4-3.8,3.4-7V9.4c0-1.9,2.1-3.3,3.8-2.4,4.8,2.3,7.5,7.2,7.5,13.8ZM41.2,5.3c1.5,0,2.7,1.2,2.7,2.7v25.1c0,1.7-.5,3-1.4,3.5-.9.5-2.3.3-3.9-.7l-3.5-2.1c-1.4-.8-3.6-.8-5,0l-3.5,2.1c-1.6,1-3,1.2-3.9.7-.9-.5-1.4-1.8-1.4-3.5V8c0-1.5,1.2-2.7,2.7-2.7h17.3Z"/>
</svg>