<svg id="bookmarkIcon" viewBox="0 0 20 20" fill="none" xmlns="http://www.w3.org/2000/svg">
<path d="M5.00008 17.5C4.85692 17.4996 4.71629 17.4623 4.59174 17.3917C4.46302 17.3193 4.35584 17.2141 4.28116 17.0867C4.20648 16.9593 4.167 16.8143 4.16674 16.6667V4.44167C4.15548 3.94193 4.3416 3.45789 4.68477 3.09444C5.02794 2.73099 5.50052 2.51741 6.00008 2.5H14.0001C14.4996 2.51741 14.9722 2.73099 15.3154 3.09444C15.6586 3.45789 15.8447 3.94193 15.8334 4.44167V16.6667C15.8325 16.8121 15.7936 16.9548 15.7205 17.0805C15.6474 17.2062 15.5427 17.3106 15.4167 17.3833C15.2901 17.4565 15.1464 17.495 15.0001 17.495C14.8538 17.495 14.7101 17.4565 14.5834 17.3833L9.85841 14.7083L5.41674 17.375C5.29137 17.4528 5.14758 17.496 5.00008 17.5Z" fill="currentColor"/>
</svg>
