<svg id='britainLogo' width="16" height="16" viewBox="0 0 16 16" fill="none" xmlns="http://www.w3.org/2000/svg">
<g clip-path="url(#clip0_5529_143050)">
<path d="M8.00009 16C12.4184 16 16.0001 12.4183 16.0001 8C16.0001 3.58172 12.4184 0 8.00009 0C3.58181 0 9.15527e-05 3.58172 9.15527e-05 8C9.15527e-05 12.4183 3.58181 16 8.00009 16Z" fill="#F0F0F0"/>
<path d="M1.65382 3.13281C1.02542 3.95041 0.551572 4.89275 0.275665 5.91647H4.43748L1.65382 3.13281Z" fill="#0052B4"/>
<path d="M15.7245 5.91644C15.4486 4.89275 14.9747 3.95041 14.3464 3.13281L11.5628 5.91644H15.7245Z" fill="#0052B4"/>
<path d="M0.275665 10.0898C0.551603 11.1135 1.02545 12.0559 1.65382 12.8734L4.43738 10.0898H0.275665Z" fill="#0052B4"/>
<path d="M12.8706 1.65553C12.053 1.02713 11.1107 0.553281 10.087 0.277344V4.43912L12.8706 1.65553Z" fill="#0052B4"/>
<path d="M3.12947 14.3461C3.94706 14.9745 4.88941 15.4483 5.9131 15.7242V11.5625L3.12947 14.3461Z" fill="#0052B4"/>
<path d="M5.91306 0.277344C4.88938 0.553281 3.94703 1.02712 3.12947 1.6555L5.91306 4.43909V0.277344Z" fill="#0052B4"/>
<path d="M10.087 15.7242C11.1107 15.4483 12.053 14.9745 12.8706 14.3461L10.087 11.5625V15.7242Z" fill="#0052B4"/>
<path d="M11.5628 10.0898L14.3464 12.8735C14.9747 12.0559 15.4486 11.1135 15.7245 10.0898H11.5628Z" fill="#0052B4"/>
<path d="M15.9324 6.95653H9.0437H9.04367V0.0677188C8.70207 0.02325 8.35382 0 8.00017 0C7.64645 0 7.29826 0.02325 6.9567 0.0677188V6.95647V6.9565H0.0678866C0.0234178 7.29809 0.000167847 7.64634 0.000167847 8C0.000167847 8.35372 0.0234178 8.70191 0.0678866 9.04347H6.95664H6.95667V15.9323C7.29826 15.9768 7.64645 16 8.00017 16C8.35382 16 8.70207 15.9768 9.04364 15.9323V9.04353V9.0435H15.9324C15.9769 8.70191 16.0002 8.35372 16.0002 8C16.0002 7.64634 15.9769 7.29809 15.9324 6.95653Z" fill="#D80027"/>
<path d="M10.0872 10.086L13.6571 13.6558C13.8213 13.4917 13.9779 13.3201 14.1273 13.1423L11.071 10.0859H10.0872V10.086Z" fill="#D80027"/>
<path d="M5.91323 10.0859H5.91317L2.34332 13.6558C2.50745 13.82 2.67904 13.9766 2.85692 14.126L5.91323 11.0697V10.0859Z" fill="#D80027"/>
<path d="M5.91335 5.91372V5.91366L2.34348 2.34375C2.17929 2.50787 2.02267 2.67947 1.87323 2.85734L4.92957 5.91369H5.91335V5.91372Z" fill="#D80027"/>
<path d="M10.0872 5.91125L13.6571 2.34131C13.493 2.17713 13.3214 2.0205 13.1435 1.87109L10.0872 4.92744V5.91125Z" fill="#D80027"/>
</g>
<defs>
<clipPath id="clip0_5529_143050">
<rect width="16" height="16" fill="white"/>
</clipPath>
</defs>
</svg>
