<svg width="24" height="24" id="btcIcon" viewBox="0 0 24 24" fill="none" xmlns="http://www.w3.org/2000/svg">
<path d="M23.6402 14.9029C22.0376 21.3315 15.5264 25.2438 9.09699 23.6407C2.67029 22.0381 -1.24206 15.5265 0.361336 9.09837C1.96332 2.66903 8.47448 -1.24361 14.9019 0.359081C21.3308 1.96177 25.2429 8.47405 23.6401 14.903L23.6402 14.9029H23.6402Z" fill="#F7931A"/>
<path fill-rule="evenodd" clip-rule="evenodd" d="M17.293 10.2903C17.5318 8.69337 16.316 7.83495 14.6535 7.2623L15.1929 5.09911L13.8761 4.771L13.351 6.87723C13.0049 6.79089 12.6493 6.70954 12.296 6.62889L12.8248 4.50875L11.5089 4.18063L10.9692 6.34312C10.6828 6.2779 10.4014 6.21344 10.1284 6.14551L10.1299 6.13871L8.31404 5.68525L7.96376 7.09168C7.96376 7.09168 8.94071 7.31562 8.92012 7.3294C9.45336 7.46249 9.54978 7.81548 9.53377 8.09526L8.91942 10.5596C8.95614 10.569 9.00377 10.5825 9.05632 10.6036L9.01805 10.594L9.01802 10.594C8.98554 10.5859 8.95179 10.5774 8.91713 10.5692L8.05602 14.0214C7.99085 14.1834 7.82545 14.4265 7.45264 14.3342C7.46583 14.3533 6.49556 14.0954 6.49556 14.0954L5.8418 15.6027L7.5554 16.0299C7.74304 16.0769 7.92847 16.1253 8.11201 16.1731L8.11204 16.1731C8.24032 16.2066 8.36768 16.2398 8.49423 16.2721L7.94933 18.4601L9.2646 18.7882L9.80423 16.6235C10.1635 16.721 10.5123 16.811 10.8536 16.8958L10.3158 19.0504L11.6327 19.3785L12.1775 17.1946C14.423 17.6195 16.1113 17.4482 16.822 15.4172C17.3946 13.782 16.7935 12.8389 15.6122 12.2238C16.4726 12.0254 17.1207 11.4595 17.2935 10.2905L17.2931 10.2902L17.293 10.2903ZM14.2844 14.5091C13.911 16.0093 11.5628 15.3891 10.4884 15.1053C10.3917 15.0798 10.3054 15.057 10.2317 15.0387L10.9548 12.14C11.0446 12.1624 11.1543 12.187 11.2785 12.2149L11.2786 12.2149C12.3899 12.4643 14.6669 12.9753 14.2845 14.5091H14.2844ZM11.5015 10.8696C12.3973 11.1086 14.3513 11.6301 14.6916 10.2666H14.6918C15.0393 8.87207 13.1402 8.45163 12.2128 8.24628C12.1084 8.22318 12.0164 8.2028 11.9412 8.18407L11.2856 10.813C11.3475 10.8285 11.4201 10.8479 11.5015 10.8696Z" fill="white"/>
</svg>
