<?xml version="1.0" encoding="UTF-8"?>
<svg id="cardsLogo" xmlns="http://www.w3.org/2000/svg" width="16" height="16" version="1.1" viewBox="0 0 16 16">
      <path d="M0,6.7v-1.4C0,4,0,2.7,0,1.3c0-.3.1-.7.3-.9C.6.2.9,0,1.2,0,1.9,0,2.5,0,3.2,0,3.8,0,4.4,0,5,0,6.5,0,8,0,9.6,0c.6,0,1,.3,1.2.7,0,.2.1.4.1.6,0,1.2,0,2.4,0,3.6,0,1.9,0,3.7,0,5.6,0,.6,0,1.1,0,1.7,0,.5-.3.9-.8,1.1-.2,0-.3,0-.5,0-2.1,0-4.1,0-6.2,0H1.3c-.6,0-1.1-.4-1.3-1,0-.1,0-.2,0-.3,0-.4,0-.8,0-1.2C0,9.5,0,8.1,0,6.7H0h0ZM5.7,7.7h0s0,0,0,0c.4.2.9.2,1.3,0,.7-.2,1-1,.8-1.6-.1-.4-.3-.7-.5-1-.5-.7-1.2-1.3-1.8-1.8,0,0-.1,0-.2,0-.2.2-.5.4-.7.6-.4.4-.8.7-1.1,1.2-.3.4-.5.7-.6,1.2,0,.4,0,1,.5,1.3.4.3.8.2,1.2.2.2,0,.3,0,.5-.1,0,0,0,0,0,0-.2.5-.4,1-.6,1.5,0,.1,0,.1,0,.1.6,0,1.2,0,1.8,0,.1,0,.1,0,0-.1-.2-.4-.3-.8-.5-1.2,0-.1-.1-.3-.2-.4h0ZM15.6,3.5c-.2-.2-.5-.3-.8-.4-.3,0-.6-.2-.9-.3-.4-.1-.8-.2-1.1-.4-.4-.1-.8-.2-1.2-.4,0,0,0,0,0,0,0,.9,0,1.8,0,2.7v.6s0,0,0,0c.8.2,1.2,1,1,1.8,0,0,0,0,0,0,0,.2-.2.4-.4.6,0,0,.1,0,.2,0,.3,0,.5.2.7.4.4.4.5.9.4,1.4-.2.8-1,1.2-1.8,1,0,.2,0,.4,0,.7s0,.4,0,.7c0,.6-.3,1.1-.7,1.5-.4.3-.8.4-1.3.4-1.4,0-2.9,0-4.3,0,0,0,0,0-.1,0,0,0,0,0,0,0,0,0,0,0,0,0,.3,0,.5.2.8.3.3.1.7.2,1,.3.4.1.7.2,1.1.3.3,0,.6.2.9.3.3,0,.6.2.9.3.3,0,.6.2.9.3.3.1.8.2,1.1.1.4-.1.7-.4.8-.8,0-.3.2-.6.3-.8,0-.3.2-.6.3-1,.1-.3.2-.7.3-1,.1-.4.2-.7.3-1.1.1-.4.2-.8.4-1.1.1-.3.2-.7.3-1,.1-.4.2-.8.4-1.2.1-.3.2-.7.3-1,.1-.4.2-.7.3-1.1.1-.4.3-.8.3-1.1.1-.5,0-.9-.3-1.2h0Z"/>
</svg>