<svg width="16" height="16" viewBox="0 0 16 16" fill="none" xmlns="http://www.w3.org/2000/svg">
<path d="M15.7589 9.93524C14.6904 14.221 10.3496 16.8292 6.06336 15.7605C1.77889 14.692 -0.829339 10.351 0.239588 6.06558C1.30758 1.77935 5.64835 -0.82907 9.93329 0.239387C14.2192 1.30785 16.8273 5.64936 15.7587 9.93532L15.7588 9.93524H15.7589Z" fill="#50AF95"/>
<path fill-rule="evenodd" clip-rule="evenodd" d="M9.01244 8.90996V8.90996C8.95587 8.9142 8.66361 8.93164 8.01167 8.93164C7.49314 8.93164 7.12498 8.91608 6.99582 8.90996V8.90996C4.99192 8.82181 3.49619 8.47297 3.49619 8.05532C3.49619 7.63766 4.99192 7.2893 6.99582 7.19974V8.56254C7.12687 8.57197 7.5021 8.59412 8.02063 8.59412C8.64287 8.59412 8.95446 8.5682 9.01055 8.56301V7.20068C11.0102 7.28978 12.5026 7.63861 12.5026 8.05532C12.5026 8.47203 11.0107 8.82086 9.01055 8.90948V8.90948L9.01244 8.90996ZM9.01244 7.05961V5.84012H11.8031V3.98047H4.20517V5.84012H6.99535V7.05914C4.72748 7.16332 3.02197 7.61256 3.02197 8.15089C3.02197 8.68922 4.72748 9.13799 6.99535 9.24264V13.1505H9.01197V9.24122C11.2747 9.13704 12.9773 8.68828 12.9773 8.15042C12.9773 7.61256 11.2761 7.16379 9.01197 7.05914V7.05914L9.01244 7.05961Z" fill="white"/>
</svg>
