<?xml version="1.0" encoding="UTF-8"?>
<svg id="coinIcon" xmlns="http://www.w3.org/2000/svg" width="20" height="20" version="1.1" viewBox="0 0 20 20">
      <path d="M18.3,14c-.3,2.2-2.1,4-4.3,4.3-1.3.2-2.6-.2-3.6-.9-.6-.4-.4-1.3.2-1.5,2.5-.8,4.5-2.7,5.2-5.2.2-.7,1.1-.8,1.5-.2.7,1,1.1,2.2.9,3.6ZM8.3,1.7c-3.7,0-6.7,3-6.7,6.7s3,6.7,6.7,6.7,6.7-3,6.7-6.7c0-3.7-3-6.7-6.7-6.7ZM7.5,7.4l2,.7c.7.3,1.1.8,1.1,1.6s-.7,1.6-1.6,1.6h0c0,.4-.3.7-.6.7s-.6-.3-.6-.6h0c-.9,0-1.7-.9-1.7-1.8s.3-.6.6-.6.6.3.6.6.2.5.5.5h1.2c.2,0,.3-.2.3-.4s0-.3-.2-.4l-2-.7c-.7-.2-1.1-.8-1.1-1.6s.7-1.6,1.6-1.6h0c0-.4.3-.7.6-.7s.6.3.6.6h0c.9,0,1.7.9,1.7,1.8s-.3.6-.6.6-.6-.3-.6-.6-.2-.5-.5-.5h-1.3c-.2,0-.3.2-.3.4,0,.3,0,.3.2.4Z"/>
</svg>