<svg id="coinLogoIcon" width="16" height="17" viewBox="0 0 16 17" fill="none" xmlns="http://www.w3.org/2000/svg">
<path d="M15.7607 10.4352C14.6922 14.721 10.3515 17.3292 6.06519 16.2605C1.78072 15.192 -0.827508 10.851 0.241419 6.56558C1.30941 2.27935 5.65018 -0.329071 9.93512 0.739387C14.2211 1.80785 16.8291 6.14936 15.7606 10.4353L15.7606 10.4352H15.7607Z" fill="#F7931A"/>
<path fill-rule="evenodd" clip-rule="evenodd" d="M11.5285 7.36022C11.6878 6.2956 10.8772 5.72332 9.76889 5.34156L10.1284 3.89943L9.25058 3.68068L8.90057 5.08484C8.66978 5.02728 8.43277 4.97305 8.19722 4.91928L8.54977 3.50585L7.67245 3.28711L7.3127 4.72877C7.12172 4.68529 6.93414 4.64231 6.75215 4.59703L6.75317 4.59249L5.54257 4.29019L5.30905 5.2278C5.30905 5.2278 5.96035 5.3771 5.94663 5.38629C6.30211 5.47502 6.3664 5.71034 6.35573 5.89686L5.94616 7.53979C5.97064 7.546 6.00239 7.555 6.03743 7.56907L6.01193 7.56271C5.99027 7.55729 5.96775 7.55166 5.94463 7.54612L5.37056 9.84762C5.32711 9.95563 5.21684 10.1177 4.9683 10.0562C4.9771 10.0689 4.33025 9.89693 4.33025 9.89693L3.89441 10.9018L5.03681 11.1866C5.16191 11.218 5.28554 11.2502 5.40791 11.2821C5.49343 11.3044 5.57833 11.3265 5.6627 11.3481L5.29943 12.8068L6.17628 13.0255L6.53603 11.5823C6.77558 11.6473 7.00805 11.7073 7.23563 11.7639L6.87709 13.2003L7.755 13.419L8.11823 11.9631C9.61518 12.2464 10.7408 12.1322 11.2145 10.7782C11.5963 9.68804 11.1955 9.05926 10.408 8.64922C10.9816 8.51694 11.4137 8.13967 11.5289 7.36034L11.5286 7.36015L11.5285 7.36022ZM9.52282 10.1728C9.27391 11.1729 7.7084 10.7594 6.99212 10.5702C6.92769 10.5532 6.87013 10.538 6.82102 10.5258L7.30308 8.59334C7.36293 8.60829 7.43607 8.6247 7.51893 8.6433L7.51894 8.6433C8.25984 8.80957 9.77784 9.15024 9.52286 10.1728H9.52282ZM7.66755 7.7464C8.26472 7.90577 9.56743 8.25344 9.79431 7.34443H9.79439C10.0261 6.41473 8.76004 6.13444 8.14172 5.99754C8.07215 5.98214 8.01079 5.96856 7.96068 5.95606L7.52362 7.70871C7.56489 7.719 7.61331 7.73192 7.66755 7.7464Z" fill="white"/>
</svg>