<?xml version="1.0" encoding="UTF-8"?>
<svg id="convertCardIcon" xmlns="http://www.w3.org/2000/svg" width="20" height="20" version="1.1" viewBox="0 0 20 20">
      <path d="M12.5,19.1c-.3,0-.5-.1-.7-.4-.1-.2-.1-.5,0-.8l.9-1.5c.2-.4.7-.5,1-.3.4.2.5.7.3,1h0c2.1-.5,3.6-2.5,3.6-4.8s.3-.8.8-.8.8.3.8.8c0,3.6-3,6.6-6.6,6.6ZM2.4,7.5c0-2.3,1.5-4.2,3.6-4.9h0c-.2.5,0,.9.3,1.1.4.2.8,0,1-.3l.9-1.5c.1-.2.1-.5,0-.8-.1-.2-.4-.4-.7-.4C3.9.9.9,3.9.9,7.5s.3.8.8.8.8-.3.8-.8ZM16.5,1.7h-4.6c-1.5,0-1.9.4-1.9,1.8h0c0,.3.2.5.4.5h7.5c.2,0,.4-.2.4-.4h0c0-1.6-.4-1.9-1.9-1.9ZM17.9,4.8c.2,0,.4.2.4.4v1.7c0,1.5-.4,1.8-1.9,1.8h-4.6c-1.5,0-1.9-.4-1.9-1.8v-1.7c0-.2.2-.4.4-.4h7.5ZM8.2,11.3H3.5c-1.5,0-1.9.4-1.9,1.8h0c0,.3.2.5.4.5h7.5c.2,0,.4-.2.4-.4h0c0-1.6-.4-1.9-1.9-1.9ZM9.6,14.4c.2,0,.4.2.4.4v1.7c0,1.5-.4,1.8-1.9,1.8H3.5c-1.5,0-1.9-.4-1.9-1.8v-1.7c0-.2.2-.4.4-.4h7.5Z"/>  
</svg>