<svg width="40" height="40" id="crown2Icon" viewBox="0 0 40 40" fill="none" xmlns="http://www.w3.org/2000/svg">
<path d="M28.3346 36.6666H11.668C10.9846 36.6666 10.418 36.1 10.418 35.4166C10.418 34.7333 10.9846 34.1666 11.668 34.1666H28.3346C29.018 34.1666 29.5846 34.7333 29.5846 35.4166C29.5846 36.1 29.018 36.6666 28.3346 36.6666Z" fill="currentColor"/>
<path d="M33.9151 9.20002L27.2484 13.9667C26.3651 14.6 25.0984 14.2167 24.7151 13.2L21.5651 4.80002C21.0317 3.35002 18.9817 3.35002 18.4484 4.80002L15.2817 13.1834C14.8984 14.2167 13.6484 14.6 12.7651 13.95L6.09841 9.18336C4.76508 8.25002 2.99841 9.56669 3.54841 11.1167L10.4817 30.5334C10.7151 31.2 11.3484 31.6334 12.0484 31.6334H27.9317C28.6317 31.6334 29.2651 31.1834 29.4984 30.5334L36.4317 11.1167C36.9984 9.56669 35.2317 8.25002 33.9151 9.20002ZM24.1651 24.5834H15.8317C15.1484 24.5834 14.5817 24.0167 14.5817 23.3334C14.5817 22.65 15.1484 22.0834 15.8317 22.0834H24.1651C24.8484 22.0834 25.4151 22.65 25.4151 23.3334C25.4151 24.0167 24.8484 24.5834 24.1651 24.5834Z" fill="currentColor"/>
</svg>
