<?xml version="1.0" encoding="UTF-8"?>
<svg id="documentCopyIcon" xmlns="http://www.w3.org/2000/svg" width="65" height="65" version="1.1" viewBox="0 0 65 65">
      <path d="M41.8,35.6h-5.8c-4.7,0-8.6-3.8-8.6-8.6v-5.8c0-1.1-.9-2-2-2h-8.5c-6.2,0-11.1,4-11.1,11.1v17.7c0,7.1,5,11.1,11.1,11.1h15.7c6.2,0,11.1-4,11.1-11.1v-10.5c0-1.1-.9-2-2-2ZM48,5.8h-15.7c-6,0-10.9,3.8-11.1,10.7.2,0,.3,0,.5,0h15.7c6.2,0,11.1,4,11.1,11.1v17.7c0,.2,0,.3,0,.4,5.9-.2,10.7-4.1,10.7-11.1v-17.7c0-7.1-5-11.1-11.1-11.1ZM32.4,19.6c-.8-.8-2.2-.3-2.2.9v7c0,2.9,2.5,5.3,5.5,5.3,1.9,0,4.5,0,6.8,0s1.7-1.3.9-2.1c-2.9-2.9-8.1-8.1-11-11.1Z"/>
</svg>