<?xml version="1.0" encoding="UTF-8"?>
<svg id="editIcon" xmlns="http://www.w3.org/2000/svg" width="16" height="16" version="1.1" viewBox="0 0 16 16">
      <path d="M14,14.7H2c-.3,0-.5-.2-.5-.5s.2-.5.5-.5h12c.3,0,.5.2.5.5s-.2.5-.5.5ZM12.7,2.3c-1.3-1.3-2.6-1.3-3.9,0l-.8.8c0,0,0,.2,0,.3.5,1.8,1.9,3.2,3.7,3.7,0,0,0,0,0,0,0,0,.1,0,.2,0l.8-.8c.7-.7,1-1.3,1-1.9,0-.7-.3-1.3-1-2ZM10.4,7.7c-.2,0-.4-.2-.6-.3-.1,0-.3-.2-.4-.3-.1,0-.2-.2-.4-.3,0,0,0,0-.1-.1-.2-.2-.5-.4-.7-.7,0,0,0,0-.1-.1,0,0-.2-.2-.3-.4,0,0-.2-.2-.3-.4-.1-.2-.2-.4-.3-.5-.1-.3-.5-.3-.7-.1l-3.7,3.7c0,0-.2.3-.2.4l-.4,2.6c0,.5,0,.9.3,1.2.2.2.6.4.9.4s.2,0,.2,0l2.6-.4c.1,0,.3-.1.4-.2l3.8-3.8c.2-.2.1-.5-.1-.7Z"/> 
</svg>