<?xml version="1.0" encoding="UTF-8"?>
<svg id="happyEmojiIcon" xmlns="http://www.w3.org/2000/svg" width="16" height="16" version="1.1" viewBox="0 0 16 16">
      <path d="M10.8,1.3h-5.6c-2.4,0-3.9,1.4-3.9,3.9v5.6c0,2.4,1.4,3.9,3.9,3.9h5.6c2.4,0,3.9-1.4,3.9-3.9v-5.6c0-2.4-1.4-3.9-3.9-3.9ZM5.7,4.3c.7,0,1.3.6,1.3,1.3s-.6,1.3-1.3,1.3-1.3-.6-1.3-1.3.6-1.2,1.3-1.2ZM8,12.7c-1.8,0-3.3-1.5-3.3-3.3s.4-.9.8-.9h4.8c.5,0,.8.4.8.9,0,1.8-1.4,3.3-3.2,3.3ZM10.3,6.7c-.7,0-1.3-.6-1.3-1.3s.6-1.3,1.3-1.3,1.3.6,1.3,1.3-.6,1.3-1.3,1.3Z"/>  
</svg>