<svg id="exportIcon" width="16" height="16" viewBox="0 0 16 16" fill="none" xmlns="http://www.w3.org/2000/svg">
<path d="M11.2007 6H8.50065V10.1667C8.50065 10.44 8.27398 10.6667 8.00065 10.6667C7.72732 10.6667 7.50065 10.44 7.50065 10.1667V6H4.80065C2.66732 6 1.33398 7.33333 1.33398 9.46667V11.1933C1.33398 13.3333 2.66732 14.6667 4.80065 14.6667H11.194C13.3273 14.6667 14.6607 13.3333 14.6607 11.2V9.46667C14.6673 7.33333 13.334 6 11.2007 6Z" fill="black"/>
<path d="M8.49924 3.03999L9.87924 4.41999C9.97924 4.51999 10.1059 4.56666 10.2326 4.56666C10.3592 4.56666 10.4859 4.51999 10.5859 4.41999C10.7792 4.22666 10.7792 3.90666 10.5859 3.71333L8.35258 1.47999C8.15924 1.28666 7.83924 1.28666 7.64591 1.47999L5.41258 3.71333C5.21924 3.90666 5.21924 4.22666 5.41258 4.41999C5.60591 4.61332 5.92591 4.61332 6.11924 4.41999L7.49924 3.03999V5.99999H8.49924V3.03999Z" fill="black"/>
</svg>
