<svg width="24" height="25" viewBox="0 0 24 25" fill="none" xmlns="http://www.w3.org/2000/svg">
<path d="M14 10.0241V12.9241H16.6C16.8 12.9241 16.9 13.1241 16.9 13.3241L16.5 15.2241C16.5 15.3241 16.3 15.4241 16.2 15.4241H14V22.7241H11V15.5241H9.3C9.1 15.5241 9 15.4241 9 15.2241V13.3241C9 13.1241 9.1 13.0241 9.3 13.0241H11V9.72412C11 8.02412 12.3 6.72412 14 6.72412H16.7C16.9 6.72412 17 6.82412 17 7.02412V9.42412C17 9.62412 16.9 9.72412 16.7 9.72412H14.3C14.1 9.72412 14 9.82412 14 10.0241Z" stroke="white" stroke-width="1.5" stroke-miterlimit="10" stroke-linecap="round"/>
<path d="M15 22.7241H9C4 22.7241 2 20.7241 2 15.7241V9.72412C2 4.72412 4 2.72412 9 2.72412H15C20 2.72412 22 4.72412 22 9.72412V15.7241C22 20.7241 20 22.7241 15 22.7241Z" stroke="white" stroke-width="1.5" stroke-linecap="round" stroke-linejoin="round"/>
</svg>
