<?xml version="1.0" encoding="UTF-8"?>
<svg id="fire2Icon" xmlns="http://www.w3.org/2000/svg" width="40" height="40" version="1.1" viewBox="0 0 40 40">
      <path d="M20.1,3.4c-.5-.2-1,0-1.3.2-.3.3-.4.8-.3,1.2.2.7.3,1.5.3,2.3,0,1.8-.5,3-1.2,4.1-.8,1.1-1.9,1.9-3.4,2.9,0,0,0,0,0,0l-.2.2c-3.1,2-5.2,5.5-5.2,9.5,0,6.2,5,11.2,11.2,11.2s11.2-5,11.2-11.2-.4-3.5-1.2-5.1c0-.1-.2-.2-.3-.2-.1,0-.3,0-.4.1-.1.1-.2.3-.3.4-1.5,1.7-2.6,3.1-5.1,3.7-.1,0-.2,0-.2,0,0,0-.1-.1-.2-.2,0-.2,0-.5.1-.7,1.3-1.4,2.2-3.3,2.5-6,.6-5.1-1.7-10.5-6.1-12.4Z"/>
</svg>