<?xml version="1.0" encoding="UTF-8"?>
<svg id="fireIcon" xmlns="http://www.w3.org/2000/svg" width="20" height="20" version="1.1" viewBox="0 0 20 20">
      <path d="M10.1,1.7c-.2-.1-.5,0-.6.1-.1.2-.2.4-.2.6,0,.4.1.7.1,1.1,0,.9-.2,1.5-.6,2-.4.5-1,1-1.7,1.4,0,0,0,0,0,0h0c-1.5,1.1-2.6,2.8-2.6,4.8,0,3.1,2.5,5.6,5.6,5.6s5.6-2.5,5.6-5.6-.2-1.8-.6-2.5c0,0,0-.1-.2-.1,0,0-.1,0-.2,0,0,0-.1.1-.2.2-.7.9-1.3,1.5-2.5,1.9,0,0,0,0-.1,0,0,0,0,0,0-.1,0-.1,0-.3,0-.3.6-.7,1.1-1.7,1.3-3,.3-2.5-.8-5.2-3.1-6.2Z"/>
</svg>