<?xml version="1.0" encoding="UTF-8"?>
<svg id="footballLogo" xmlns="http://www.w3.org/2000/svg" width="14" height="14" version="1.1" viewBox="0 0 14 14">
      <path d="M5.2.2c-1.7.4-3.1,1.5-4,2.9l1.4.4,2.6-1.9V.2ZM.7,4C.2,4.9,0,5.9,0,7s.1,1.5.3,2.2l1.6.2,1.3-1.8-1-3.1-1.6-.4ZM2.1,12c-.5-.5-1-1.1-1.3-1.8h1c0,.1.4,1.8.4,1.8ZM3.3,13c1.1.7,2.3,1,3.7,1s.8,0,1.2,0c-.1-.1-.2-.3-.1-.5l.7-3.5-1.4-1.8h-3.3l-1.4,1.8.6,3ZM13,10.6c-.8,1.3-2,2.4-3.5,2.9l-.4-.3.6-3,3-.3.3.6ZM13.6,9.5c.3-.8.4-1.6.4-2.5s0-1.1-.2-1.7l-2.6-1.4-2.1.6-1,3.1,1.4,1.8,3.5-.4c.2,0,.4,0,.5.3v.2ZM12.2,2.3c.4.5.8,1,1.1,1.6l-1.4-.8.3-.8ZM11.4,1.6C10.2.6,8.7,0,7,0s-.6,0-.8,0v1.6l2.6,1.9,2.1-.6.5-1.4ZM3.2,4.3l2.5-1.8,2.5,1.8-.9,2.9h-3l-.9-2.9Z"/>
</svg>