<?xml version="1.0" encoding="UTF-8"?>
<svg id="gameIcon" xmlns="http://www.w3.org/2000/svg" width="20" height="20" version="1.1" viewBox="0 0 20 20">
      <path d="M13.9,4.8h-7.8c-2.5,0-4.5,2-4.5,4.5v4.6c0,2.5,2,4.5,4.5,4.5h7.8c2.5,0,4.5-2,4.5-4.5v-4.6c0-2.5-2-4.5-4.5-4.5ZM12.1,10c0-.5.4-.8.8-.8s.8.4.8.8-.4.8-.8.8-.8-.4-.8-.8h0ZM8.4,13.4c-.1.1-.3.2-.4.2s-.3,0-.4-.2l-.9-.9-.8.8c-.1.1-.3.2-.4.2s-.3,0-.4-.2c-.2-.2-.2-.6,0-.9l.8-.8-.8-.8c-.2-.2-.2-.6,0-.9.2-.2.6-.2.9,0l.8.8.8-.8c.2-.2.6-.2.9,0,.2.2.2.6,0,.9l-.8.8.9.9c.2.2.2.6,0,.9ZM11.3,12.5c-.5,0-.8-.4-.8-.8s.4-.8.8-.8h0c.5,0,.8.4.8.8s-.4.8-.8.8ZM12.9,14.1c-.5,0-.8-.4-.8-.8h0c0-.5.4-.9.8-.9s.8.4.8.8-.4.8-.8.8ZM14.6,12.5c-.5,0-.8-.4-.8-.8s.4-.8.8-.8h0c.5,0,.8.4.8.8s-.4.8-.8.8ZM11.4,2.3v.8c0,.7-.6,1.3-1.4,1.3s-.2,0-.2.2,0,.2.2.2h-1.3c0,0,0-.1,0-.2,0-.7.6-1.4,1.4-1.4s.2,0,.2-.2v-.8c0-.3.3-.6.6-.6h0c.3,0,.6.3.6.6Z"/>
</svg>