<svg id="germanyLogo" width="16" height="16" viewBox="0 0 16 16" fill="none" xmlns="http://www.w3.org/2000/svg">
<g clip-path="url(#clip0_5529_143071)">
<path d="M0.497635 10.7816C1.62798 13.8279 4.56032 15.999 8.00004 15.999C11.4398 15.999 14.3721 13.8279 15.5024 10.7816L8.00004 10.0859L0.497635 10.7816Z" fill="#FFDA44"/>
<path d="M8.00004 0C4.56032 0 1.62798 2.171 0.497635 5.21741L8.00004 5.91303L15.5024 5.21737C14.3721 2.171 11.4398 0 8.00004 0Z" fill="black"/>
<path d="M0.497594 5.21875C0.176031 6.08541 0 7.02278 0 8.00134C0 8.97991 0.176031 9.91728 0.497594 10.7839H15.5024C15.824 9.91728 16 8.97991 16 8.00134C16 7.02278 15.824 6.08541 15.5024 5.21875H0.497594Z" fill="#D80027"/>
</g>
<defs>
<clipPath id="clip0_5529_143071">
<rect width="16" height="16" fill="white"/>
</clipPath>
</defs>
</svg>
