<?xml version="1.0" encoding="UTF-8"?>
<svg id="giftIcon" xmlns="http://www.w3.org/2000/svg" width="20" height="20" version="1.1" viewBox="0 0 20 20">
  <path d="M17,10v5.2c0,1.9-1.6,3.5-3.5,3.5h-7c-1.9,0-3.5-1.6-3.5-3.5s0,0,0,0v-5.2c0-.5.4-.9.9-.9h1.7c.5,0,.9.4.9.9v2.7c0,.6.4,1.2.9,1.5.6.3,1.2.3,1.8,0l.8-.5.8.5c.5.4,1.2.4,1.8,0,.6-.3.9-.9.9-1.5v-2.7c0-.5.4-.9.9-.9h1.7c.5,0,.9.4.9.9M18.3,5.7v.9c0,1-.5,1.7-1.7,1.7H3.5c-1.3,0-1.7-.8-1.7-1.7v-.9c0-1,.4-1.7,1.7-1.7h13.1c1.3,0,1.7.8,1.7,1.7M9.7,3.9h-4.8c-.3-.3-.3-.8,0-1.1l1.2-1.2c.3-.3.9-.3,1.2,0l2.4,2.4ZM15.2,3.9h-4.8l2.4-2.4c.3-.3.9-.3,1.2,0l1.2,1.2c.3.3.3.8,0,1.1M11.8,9.2c.5,0,.9.4.9.9v2.7c0,.5-.4.9-.9.9-.2,0-.3,0-.5-.1l-.8-.5c-.3-.2-.7-.2-1,0l-.8.5c-.4.3-.9.2-1.2-.2,0-.1-.1-.3-.1-.5v-2.8c0-.5.4-.9.9-.9h3.5Z"/> 
</svg>