<?xml version="1.0" encoding="UTF-8"?>
<svg id="globalLogo" xmlns="http://www.w3.org/2000/svg" width="16" height="16" version="1.1" viewBox="0 0 16 16">
      <path d="M5.1,13.9s0,0,0,0c-1.3-.6-2.3-1.7-3-3,0,0,0,0,0,0,.8.2,1.7.4,2.5.6.1.8.3,1.7.6,2.5ZM14,11c-.7,1.3-1.8,2.4-3.1,3,.3-.8.5-1.7.6-2.6.8-.1,1.7-.3,2.5-.6,0,0,0,0,0,0ZM14,5.1c-.8-.3-1.7-.5-2.5-.6-.1-.9-.3-1.7-.6-2.5,1.4.7,2.5,1.8,3.2,3.2ZM5.1,2.1c-.2.8-.4,1.6-.6,2.5-.9.1-1.7.3-2.6.6.6-1.3,1.7-2.4,3-3.1,0,0,0,0,0,0ZM10.3,4.4c-1.5-.2-3.1-.2-4.7,0,.2-.9.4-1.8.7-2.7,0,0,0,0,0-.1.5-.1,1.1-.2,1.6-.2s1.1,0,1.6.2c0,0,0,0,0,.1.3.9.5,1.8.7,2.7ZM4.4,10.3c-.9-.2-1.8-.4-2.7-.7,0,0,0,0-.1,0-.1-.5-.2-1.1-.2-1.6s0-1.1.2-1.6c0,0,0,0,.1,0,.9-.3,1.8-.5,2.7-.7-.2,1.5-.2,3.1,0,4.7ZM14.7,8c0,.6,0,1.1-.2,1.6,0,0,0,0-.1,0-.9.3-1.8.5-2.7.7.2-1.5.2-3.1,0-4.7.9.2,1.8.4,2.7.7,0,0,0,0,.1,0,.1.5.2,1.1.2,1.6ZM10.3,11.6c-.2.9-.4,1.8-.7,2.7,0,0,0,0,0,.1-.5.1-1.1.2-1.6.2s-1.1,0-1.6-.2c0,0,0,0,0-.1-.3-.9-.5-1.8-.7-2.7.8,0,1.5.1,2.3.1s1.6,0,2.3-.1ZM10.5,10.5c-1.7.2-3.4.2-5,0-.2-1.7-.2-3.4,0-5,1.7-.2,3.4-.2,5,0,.2,1.7.2,3.4,0,5Z"/>
</svg>