<?xml version="1.0" encoding="UTF-8"?>
<svg id="infoIconWhite" xmlns="http://www.w3.org/2000/svg" width="16" height="16" version="1.1" viewBox="0 0 16 16">
      <path d="M8,1.3c-1.3,0-2.6.4-3.7,1.1-1.1.7-2,1.8-2.5,3-.5,1.2-.6,2.6-.4,3.9.3,1.3.9,2.5,1.8,3.4.9.9,2.1,1.6,3.4,1.8,1.3.3,2.6.1,3.9-.4,1.2-.5,2.3-1.4,3-2.5.7-1.1,1.1-2.4,1.1-3.7s-.2-1.7-.5-2.6c-.3-.8-.8-1.5-1.4-2.2-.6-.6-1.4-1.1-2.2-1.4-.8-.3-1.7-.5-2.6-.5ZM8.7,10.7c0,.2,0,.3-.2.5-.1.1-.3.2-.5.2s-.3,0-.5-.2c-.1-.1-.2-.3-.2-.5v-3.3c0-.2,0-.3.2-.5.1-.1.3-.2.5-.2s.3,0,.5.2c.1.1.2.3.2.5v3.3ZM8,6c-.1,0-.3,0-.4-.1-.1,0-.2-.2-.2-.3,0-.1,0-.3,0-.4,0-.1,0-.2.2-.3,0,0,.2-.2.3-.2.1,0,.3,0,.4,0,.1,0,.2.1.3.2,0,.1.1.2.1.4s0,.3-.2.5c-.1.1-.3.2-.5.2Z"/>   
</svg>