<svg id="infoIcon"  viewBox="0 0 14 14" fill="none" xmlns="http://www.w3.org/2000/svg">
<path d="M6.99992 0.333344C5.68138 0.333344 4.39245 0.724337 3.29612 1.45688C2.19979 2.18942 1.34531 3.23061 0.840725 4.44879C0.336141 5.66696 0.204118 7.00741 0.461353 8.30061C0.718588 9.59382 1.35353 10.7817 2.28588 11.7141C3.21823 12.6464 4.40611 13.2813 5.69932 13.5386C6.99253 13.7958 8.33297 13.6638 9.55115 13.1592C10.7693 12.6546 11.8105 11.8001 12.5431 10.7038C13.2756 9.60748 13.6666 8.31855 13.6666 7.00001C13.6666 6.12453 13.4942 5.25762 13.1591 4.44879C12.8241 3.63995 12.333 2.90502 11.714 2.28596C11.0949 1.66691 10.36 1.17584 9.55115 0.840813C8.74231 0.505782 7.8754 0.333344 6.99992 0.333344ZM7.66659 9.66668C7.66659 9.84349 7.59635 10.0131 7.47133 10.1381C7.3463 10.2631 7.17673 10.3333 6.99992 10.3333C6.82311 10.3333 6.65354 10.2631 6.52852 10.1381C6.40349 10.0131 6.33326 9.84349 6.33326 9.66668V6.33334C6.33326 6.15653 6.40349 5.98696 6.52852 5.86194C6.65354 5.73692 6.82311 5.66668 6.99992 5.66668C7.17673 5.66668 7.3463 5.73692 7.47133 5.86194C7.59635 5.98696 7.66659 6.15653 7.66659 6.33334V9.66668ZM6.99992 5.00001C6.86807 5.00001 6.73917 4.96091 6.62954 4.88766C6.51991 4.8144 6.43446 4.71028 6.384 4.58847C6.33354 4.46665 6.32034 4.3326 6.34607 4.20328C6.37179 4.07396 6.43528 3.95517 6.52852 3.86194C6.62175 3.7687 6.74054 3.70521 6.86986 3.67949C6.99918 3.65376 7.13323 3.66697 7.25504 3.71742C7.37686 3.76788 7.48098 3.85333 7.55423 3.96296C7.62749 4.0726 7.66659 4.20149 7.66659 4.33334C7.66659 4.51015 7.59635 4.67972 7.47133 4.80475C7.3463 4.92977 7.17673 5.00001 6.99992 5.00001Z" fill="currentColor"/>
</svg>
