<svg width="24" height="25" viewBox="0 0 24 25" fill="none" xmlns="http://www.w3.org/2000/svg">
<path d="M9 22.7241H15C20 22.7241 22 20.7241 22 15.7241V9.72412C22 4.72412 20 2.72412 15 2.72412H9C4 2.72412 2 4.72412 2 9.72412V15.7241C2 20.7241 4 22.7241 9 22.7241Z" stroke="white" stroke-width="1.5" stroke-linecap="round" stroke-linejoin="round"/>
<path d="M12 16.2241C13.933 16.2241 15.5 14.6571 15.5 12.7241C15.5 10.7911 13.933 9.22412 12 9.22412C10.067 9.22412 8.5 10.7911 8.5 12.7241C8.5 14.6571 10.067 16.2241 12 16.2241Z" stroke="white" stroke-width="1.5" stroke-linecap="round" stroke-linejoin="round"/>
<path d="M17.6361 7.72412H17.6477" stroke="white" stroke-width="2" stroke-linecap="round" stroke-linejoin="round"/>
</svg>
