<?xml version="1.0" encoding="UTF-8"?>
<svg id="keyIcon" xmlns="http://www.w3.org/2000/svg" width="20" height="20" version="1.1" viewBox="0 0 20 20">
      <path d="M16.5,3.5c-2.5-2.5-6.5-2.5-8.9,0-1.7,1.7-2.2,4.2-1.6,6.3l-3.9,3.9c-.3.3-.5.8-.4,1.2l.2,1.8c0,.6.7,1.2,1.2,1.2l1.8.2c.4,0,1-.1,1.2-.4l.7-.7c.2-.2.2-.4,0-.6l-1.6-1.6c-.2-.2-.2-.6,0-.9.2-.2.6-.2.9,0l1.6,1.6c.2.2.4.2.6,0l1.8-1.8c2.2.7,4.6.2,6.3-1.6,2.5-2.5,2.5-6.5,0-8.9ZM12.1,10c-1.1,0-2.1-.9-2.1-2.1s.9-2.1,2.1-2.1,2.1.9,2.1,2.1-.9,2.1-2.1,2.1Z"/>
</svg>