<svg id="levelAvatarIcon" width="16" height="16" viewBox="0 0 16 16" fill="none" xmlns="http://www.w3.org/2000/svg">
<rect width="16" height="16" rx="8" fill="url(#paint0_linear_1855_295164)"/>
<path d="M6.94684 5.00169C6.98172 4.99946 6.96396 4.99786 7.00006 5.00762C6.99961 5.02528 7.0006 5.02736 6.99412 5.0468C6.95258 5.17146 6.74527 5.35397 6.6354 5.4174C6.47489 5.51003 6.30278 5.51868 6.12668 5.47336L6.00006 5.41786C6.30953 5.25538 6.61303 5.10815 6.94684 5.00169Z" fill="#A56F28"/>
<path d="M7.38154 11.4446C5.4793 11.1028 4.21396 9.28399 4.55574 7.38175C4.89723 5.47951 6.71606 4.21417 8.6186 4.55565C7.35034 4.3279 6.13778 5.17126 5.91002 6.43952C5.68227 7.70778 6.52564 8.92034 7.79389 9.14809L7.38154 11.4443V11.4446Z" fill="white"/>
<path d="M8.61852 4.5C10.5208 4.84149 11.7861 6.66062 11.4443 8.56286C11.1028 10.4651 9.28371 11.7304 7.38147 11.3887C8.64973 11.6164 9.86228 10.773 10.09 9.50479C10.3178 8.23653 9.47443 7.02397 8.20617 6.79622L8.61852 4.5Z" fill="white"/>
<defs>
<linearGradient id="paint0_linear_1855_295164" x1="11.5" y1="2" x2="0.378384" y2="9.79779" gradientUnits="userSpaceOnUse">
<stop stop-color="#FF8B0F"/>
<stop offset="1" stop-color="#D20F16"/>
</linearGradient>
</defs>
</svg>
