<svg id="likeDislikeIcon" width="20" height="20" viewBox="0 0 20 20" fill="none" xmlns="http://www.w3.org/2000/svg">
<path d="M10.9584 12.8083C10.7751 12.5417 10.4501 12.3917 10.0751 12.3917H8.13341C8.00841 12.3917 7.88341 12.3417 7.80841 12.2417C7.72508 12.1417 7.69175 12.0167 7.70841 11.875L7.95008 10.325C8.05008 9.86668 7.74175 9.34168 7.28341 9.18334C6.85008 9.02501 6.35008 9.24168 6.14175 9.55001L4.21675 12.4167V12.0583C4.21675 11.3583 3.91675 11.075 3.18341 11.075H2.70008C1.96675 11.0833 1.66675 11.3667 1.66675 12.0667V16.825C1.66675 17.525 1.96675 17.8083 2.70008 17.8083H3.18341C3.88341 17.8083 4.17508 17.5333 4.20008 16.9L5.65841 18.025C5.86675 18.225 6.30841 18.3333 6.62508 18.3333H8.46675C9.10008 18.3333 9.73341 17.8583 9.88341 17.275L11.0501 13.7333C11.1751 13.3917 11.1417 13.0667 10.9584 12.8083Z" fill="currentColor"/>
<path d="M17.5916 2.17499H17.1083C16.4083 2.17499 16.1166 2.44999 16.0833 3.08333L14.625 1.95833C14.425 1.75833 13.975 1.64999 13.6583 1.64999H11.8166C11.1833 1.64999 10.55 2.12499 10.4 2.70833L9.23331 6.24999C9.10831 6.59166 9.14998 6.91666 9.32498 7.17499C9.50831 7.44166 9.83331 7.59166 10.2083 7.59166H12.15C12.275 7.59166 12.4 7.64166 12.475 7.74166C12.5583 7.84166 12.5916 7.96666 12.575 8.10833L12.3333 9.65833C12.2333 10.1167 12.5416 10.6417 13 10.8C13.4333 10.9583 13.9333 10.7417 14.1416 10.4333L16.0666 7.56666V7.92499C16.0666 8.62499 16.3666 8.90833 17.1 8.90833H17.5833C18.3166 8.90833 18.6166 8.62499 18.6166 7.92499V3.14999C18.625 2.45833 18.325 2.17499 17.5916 2.17499Z" fill="currentColor"/>
</svg>
