<?xml version="1.0" encoding="UTF-8"?>
<svg id="lock2Icon" xmlns="http://www.w3.org/2000/svg" width="20" height="20" version="1.1" viewBox="0 0 20 20">
      <path d="M15.6,6.7v1.7c-.4,0-.8,0-1.2,0v-1.7c0-2.6-.7-4.4-4.4-4.4s-4.4,1.8-4.4,4.4v1.7c-.5,0-.9,0-1.2,0v-1.7c0-2.4.6-5.6,5.6-5.6s5.6,3.2,5.6,5.6ZM15.6,8.4c-.4,0-.8,0-1.2,0H5.6c-.5,0-.9,0-1.2,0-2.1.3-2.7,1.3-2.7,4.1v1.7c0,3.3.8,4.2,4.2,4.2h8.3c3.3,0,4.2-.8,4.2-4.2v-1.7c0-2.8-.6-3.8-2.7-4.1ZM7.3,13.9c-.2.1-.4.2-.6.2s-.2,0-.3,0c-.1,0-.2,0-.3-.2-.2-.2-.2-.4-.2-.6s0-.2,0-.3c0-.1,0-.2.2-.3,0,0,.2-.1.3-.2.3-.1.7,0,.9.2,0,0,.1.2.2.3,0,.1,0,.2,0,.3,0,.2,0,.4-.2.6ZM10.8,13.6c0,.1-.1.2-.2.3-.2.1-.4.2-.6.2s-.4,0-.6-.2c0,0-.1-.2-.2-.3,0,0,0-.2,0-.3,0-.2,0-.4.2-.6.3-.3.9-.3,1.2,0,.1.2.2.4.2.6s0,.2,0,.3ZM13.9,13.9c-.2.1-.4.2-.6.2s-.4,0-.6-.2c-.1-.2-.2-.4-.2-.6s0-.4.2-.6c.3-.3.9-.3,1.2,0,0,0,0,0,.1.1,0,0,0,0,0,.1,0,0,0,.1,0,.1,0,0,0,.1,0,.2,0,.2,0,.4-.2.6Z"/>
</svg>