<svg width="16" height="16" viewBox="0 0 16 16" fill="none" xmlns="http://www.w3.org/2000/svg">
<path d="M9.08678 10.4784C9.08678 11.0784 8.60011 11.5651 8.00011 11.5651C7.57345 11.5651 7.20678 11.3184 7.03345 10.9651L8.48678 9.51172C8.84011 9.68505 9.08678 10.0517 9.08678 10.4784Z" fill="#F03D3D"/>
<path d="M14.5134 1.48536C14.3134 1.28536 13.9867 1.28536 13.7867 1.48536L11.9134 3.3587C11.4001 2.01203 10.0867 1.33203 8.00008 1.33203C4.24674 1.33203 3.81341 3.7187 3.81341 5.5187V6.35203C3.82008 6.35203 3.82674 6.35203 3.83341 6.35203C1.94674 6.5787 1.33341 7.5187 1.33341 9.8587V11.0987C1.33341 12.1654 1.46008 12.9387 1.78008 13.492L1.48008 13.792C1.28008 13.992 1.28008 14.3187 1.48008 14.5187C1.58674 14.612 1.71341 14.6654 1.84674 14.6654C1.98008 14.6654 2.10674 14.612 2.20674 14.512L14.5134 2.20536C14.7201 2.00536 14.7201 1.68536 14.5134 1.48536ZM4.90008 6.29203C4.84675 6.29203 4.80008 6.29203 4.74674 6.29203V5.5187C4.74674 3.56536 5.30008 2.26536 8.00008 2.26536C10.2667 2.26536 10.9801 3.13203 11.1801 4.0987L8.98674 6.29203H4.90008Z" fill="#F03D3D"/>
<path d="M14.6666 9.86063V11.1006C14.6666 13.834 13.8333 14.6673 11.1 14.6673H4.93995C4.34662 14.6673 4.05329 13.9473 4.47329 13.5273L6.35329 11.6473C6.39995 11.714 6.45329 11.774 6.50662 11.834C6.97329 12.3406 7.66662 12.6073 8.43329 12.4473C8.49329 12.434 8.55329 12.4206 8.61329 12.394C8.67329 12.3806 8.72662 12.3606 8.77995 12.334C8.91329 12.2873 9.03995 12.214 9.15995 12.1273C9.20662 12.1006 9.24662 12.0673 9.27995 12.034C9.37995 11.954 9.47329 11.8606 9.55329 11.7606C9.58662 11.7273 9.61995 11.6873 9.64662 11.6406C9.73329 11.5206 9.80662 11.394 9.85329 11.2606C9.87995 11.2073 9.89995 11.154 9.91329 11.094C9.93995 11.034 9.95329 10.974 9.96662 10.914C10.1266 10.1473 9.85995 9.45397 9.35329 8.9873C9.29995 8.93397 9.23329 8.88063 9.16662 8.83397L11.2466 6.75397C11.28 6.72063 11.3066 6.69397 11.34 6.6673C11.6066 6.4473 11.9466 6.34063 12.2866 6.3673C12.3466 6.37397 12.4133 6.38063 12.4733 6.39397C12.5866 6.41397 12.7 6.44063 12.8066 6.4673C12.9133 6.49397 13.0133 6.5273 13.1133 6.56063C13.3066 6.63397 13.4733 6.72063 13.6266 6.82063C13.78 6.92063 13.9066 7.04063 14.0266 7.18063C14.0866 7.25397 14.1466 7.33397 14.1933 7.42063C14.24 7.49397 14.28 7.57397 14.32 7.66063C14.36 7.7473 14.3933 7.84063 14.4266 7.93397C14.4666 8.0473 14.5 8.17397 14.5266 8.3073C14.5533 8.40063 14.5666 8.50063 14.5866 8.6073C14.6 8.7073 14.6133 8.81397 14.6266 8.9273C14.6533 9.2073 14.6666 9.52063 14.6666 9.86063Z" fill="#F03D3D"/>
</svg>
