<svg id="lockIcon" width="21" height="20" viewBox="0 0 21 20" fill="none" xmlns="http://www.w3.org/2000/svg">
<path fill-rule="evenodd" clip-rule="evenodd" d="M6.11204 6.44047L6.39792 9.00593L5.8194 9.05198C5.01266 9.1162 4.3539 9.72087 4.22313 10.5172C3.92172 12.3526 3.92172 14.2247 4.22313 16.06C4.3539 16.8564 5.01266 17.4611 5.8194 17.5253L7.06618 17.6245C9.03463 17.7812 11.0125 17.7812 12.9809 17.6245L14.2277 17.5253C15.0344 17.4611 15.6932 16.8564 15.824 16.06C16.1254 14.2247 16.1254 12.3526 15.824 10.5172C15.6932 9.72087 15.0344 9.1162 14.2277 9.05198L13.6491 9.00593L13.935 6.44047C13.9687 6.13804 13.9687 5.83281 13.935 5.53038L13.916 5.36013C13.7148 3.55426 12.2909 2.12538 10.4811 1.91308C10.1771 1.87742 9.86993 1.87742 9.56591 1.91308C7.75608 2.12538 6.33225 3.55425 6.13101 5.36013L6.11204 5.53038C6.07834 5.83281 6.07834 6.13804 6.11204 6.44047ZM10.3351 3.1509C10.1281 3.12662 9.91895 3.12662 9.71196 3.1509C8.47977 3.29544 7.51038 4.26827 7.37336 5.49777L7.35439 5.66802C7.33088 5.87897 7.33088 6.09187 7.35439 6.30283L7.64506 8.9112C9.22906 8.8099 10.818 8.8099 12.402 8.91119L12.6926 6.30283C12.7161 6.09187 12.7161 5.87897 12.6926 5.66802L12.6737 5.49777C12.5366 4.26827 11.5672 3.29544 10.3351 3.1509ZM10.0235 12.0423C9.33317 12.0423 8.77353 12.6003 8.77353 13.2886C8.77353 13.977 9.33317 14.535 10.0235 14.535C10.7139 14.535 11.2735 13.977 11.2735 13.2886C11.2735 12.6003 10.7139 12.0423 10.0235 12.0423Z" fill="#F03D3D"/>
</svg>
