<svg id="logout2Icon" width="21" height="20" viewBox="0 0 21 20" fill="none" xmlns="http://www.w3.org/2000/svg">
<path d="M7.06686 10.0596C7.06686 9.71797 7.3502 9.43464 7.69186 9.43464H12.2585V2.38464C12.2502 1.98464 11.9335 1.66797 11.5335 1.66797C6.6252 1.66797 3.2002 5.09297 3.2002 10.0013C3.2002 14.9096 6.6252 18.3346 11.5335 18.3346C11.9252 18.3346 12.2502 18.018 12.2502 17.618V10.6763H7.69186C7.34186 10.6846 7.06686 10.4013 7.06686 10.0596Z" fill="#F15858"/>
<path d="M17.6167 9.61484L15.25 7.23984C15.0083 6.99818 14.6083 6.99818 14.3667 7.23984C14.125 7.48151 14.125 7.88151 14.3667 8.12318L15.6667 9.42318H12.25V10.6732H15.6583L14.3583 11.9732C14.1167 12.2148 14.1167 12.6148 14.3583 12.8565C14.4833 12.9815 14.6417 13.0398 14.8 13.0398C14.9583 13.0398 15.1167 12.9815 15.2417 12.8565L17.6083 10.4815C17.8583 10.2482 17.8583 9.85651 17.6167 9.61484Z" fill="#F15858"/>
</svg>
