<svg id="logoIcon" width="88" height="20" viewBox="0 0 88 20" fill="none" xmlns="http://www.w3.org/2000/svg">
<path d="M17.9353 15.0813L21.4951 12.0301C22.4238 13.5778 23.5735 14.3296 24.9002 14.3296C25.8731 14.3296 26.5806 13.9316 26.5806 13.1798C26.5806 12.5165 26.1826 12.2733 25.0771 11.8753L23.5735 11.3225C21.4067 10.5265 20.2348 8.80189 20.2348 6.81192C20.2348 3.80486 22.866 1.70435 26.6248 1.70435C29.1676 1.70435 31.0691 2.633 32.3736 4.44608L28.858 7.1657C28.062 6.06016 27.2218 5.55161 26.1826 5.55161C25.3645 5.55161 24.8117 5.88327 24.8117 6.45815C24.8117 6.92248 25.1876 7.23203 26.47 7.67424L27.9293 8.18279C30.0962 8.93455 31.2017 10.3718 31.2017 12.5386C31.2017 15.9879 28.3716 18.2432 24.3032 18.2432C21.4951 18.2432 19.4167 17.204 17.9353 15.0813Z" fill="white"/>
<path d="M31.7158 15.0813L35.2756 12.0301C36.2043 13.5778 37.3541 14.3296 38.6807 14.3296C39.6536 14.3296 40.3611 13.9316 40.3611 13.1798C40.3611 12.5165 39.9631 12.2733 38.8576 11.8753L37.3541 11.3225C35.1872 10.5265 34.0153 8.80189 34.0153 6.81192C34.0153 3.80486 36.6465 1.70435 40.4053 1.70435C42.9481 1.70435 44.8496 2.633 46.1541 4.44608L42.6385 7.1657C41.8425 6.06016 41.0023 5.55161 39.9631 5.55161C39.145 5.55161 38.5923 5.88327 38.5923 6.45815C38.5923 6.92248 38.9681 7.23203 40.2506 7.67424L41.7099 8.18279C43.8767 8.93455 44.9823 10.3718 44.9823 12.5386C44.9823 15.9879 42.1521 18.2432 38.0837 18.2432C35.2756 18.2432 33.1972 17.204 31.7158 15.0813Z" fill="white"/>
<path d="M45.5542 17.9343L48.3844 2.01385H52.7844L49.9763 17.9343H45.5542Z" fill="white"/>
<path d="M65.1057 2.01385H69.5721L66.764 17.9343H62.9831L58.0524 8.97943C57.9197 10.2176 57.7871 11.1242 57.5881 12.1413L56.571 17.9343H52.1267L54.8905 2.01385H58.6715L63.6243 10.9687C63.8012 9.55361 64.0223 8.18275 64.3097 6.59078L65.1057 2.01385Z" fill="white"/>
<path d="M8.54452 18.1637C4.03738 17.3539 1.03931 13.0444 1.84911 8.53725C2.65822 4.03012 6.96774 1.03204 11.4756 1.84116C8.47058 1.30152 5.59757 3.29977 5.05793 6.30476C4.51829 9.30974 6.51655 12.1828 9.52153 12.7224L8.54452 18.163V18.1637Z" fill="white"/>
<path d="M11.4755 1.84113C15.9826 2.65024 18.9807 6.96045 18.1709 11.4676C17.3618 15.9747 13.0516 18.9728 8.54443 18.163C11.5494 18.7026 14.4224 16.7044 14.9621 13.6994C15.5017 10.6944 13.5035 7.82139 10.4985 7.28175L11.4755 1.84113Z" fill="white"/>
<path d="M76.5252 18.1638C72.0181 17.3547 69.02 13.0444 69.8298 8.53731C70.6389 4.03018 74.9491 1.0321 79.4563 1.84191C76.4513 1.30227 73.5783 3.30053 73.0386 6.30551C72.499 9.3105 74.4973 12.1835 77.5022 12.7231L76.5252 18.1638Z" fill="white"/>
<path d="M79.4555 1.84113C83.9626 2.65024 86.9607 6.96045 86.1509 11.4676C85.3418 15.9747 81.0315 18.9728 76.5244 18.163C79.5294 18.7026 82.4024 16.7044 82.9421 13.6994C83.4817 10.6944 81.4834 7.82139 78.4785 7.28175L79.4555 1.84113Z" fill="white"/>
</svg>
