<?xml version="1.0" encoding="UTF-8"?>
<svg id="medalStarIcon" xmlns="http://www.w3.org/2000/svg" width="20" height="20" version="1.1" viewBox="0 0 20 20">
      <path d="M17.7,15.4l-1.4.3c-.3,0-.5.3-.6.6l-.3,1.2c-.2.7-1,.9-1.4.4l-2.5-2.9c-.2-.2,0-.6.2-.7,1.5-.4,2.8-1.2,3.8-2.4.2-.2.4-.2.6,0l1.9,1.9c.6.6.4,1.4-.2,1.6ZM2.3,15.4l1.4.3c.3,0,.6.3.6.6l.3,1.2c.2.7,1,.9,1.5.4l2.5-2.9c.2-.2,0-.6-.2-.7-1.5-.4-2.8-1.2-3.8-2.4-.2-.2-.4-.2-.6,0l-1.8,1.9c-.6.6-.4,1.4.2,1.6ZM10,1.7c-3.2,0-5.8,2.6-5.8,5.8s.4,2.3,1,3.2c.9,1.3,2.3,2.3,4,2.5.3,0,.6,0,.9,0s.6,0,.9,0c1.7-.2,3.1-1.2,4-2.5.6-.9,1-2,1-3.2,0-3.2-2.6-5.8-5.8-5.8ZM12.5,7.3l-.7.7c-.1.1-.2.3-.1.5l.2.9c.2.7-.2.9-.8.6l-.8-.5c-.1,0-.4,0-.6,0l-.8.5c-.6.3-1,0-.8-.6l.2-.9c0-.2,0-.4-.1-.5l-.7-.7c-.4-.4-.3-.8.3-.9h.9c.1-.2.3-.3.4-.4l.5-1c.3-.5.7-.5,1,0l.5,1c0,.1.2.3.4.3h.9c.6.2.7.6.3,1.1Z"/> 
</svg>