<svg id="messages3Icon" width="16" height="16" viewBox="0 0 16 16" fill="none" xmlns="http://www.w3.org/2000/svg">
<path d="M10.3933 8.26667V10.98C10.3933 11.22 10.3666 11.4467 10.3066 11.6533C10.0599 12.6333 9.24659 13.2467 8.12659 13.2467H6.31325L4.29992 14.5867C3.99992 14.7933 3.59992 14.5733 3.59992 14.2133V13.2467C2.91992 13.2467 2.35325 13.02 1.95992 12.6267C1.55992 12.2267 1.33325 11.66 1.33325 10.98V8.26667C1.33325 7 2.11992 6.12667 3.33325 6.01333C3.41992 6.00667 3.50659 6 3.59992 6H8.12659C9.48659 6 10.3933 6.90667 10.3933 8.26667Z" fill="currentColor"/>
<path d="M11.8333 10.4C12.6799 10.4 13.3933 10.12 13.8866 9.61998C14.3866 9.12665 14.6666 8.41331 14.6666 7.56665V4.16665C14.6666 2.59998 13.3999 1.33331 11.8333 1.33331H6.16659C4.59992 1.33331 3.33325 2.59998 3.33325 4.16665V4.66665C3.33325 4.85331 3.47992 4.99998 3.66659 4.99998H8.12659C9.93325 4.99998 11.3933 6.45998 11.3933 8.26665V10.0666C11.3933 10.2533 11.5399 10.4 11.7266 10.4H11.8333Z" fill="currentColor"/>
</svg>
