<?xml version="1.0" encoding="UTF-8"?>
<svg id="messageNotifIcon" xmlns="http://www.w3.org/2000/svg" width="20" height="20" version="1.1" viewBox="0 0 20 20">
      <path d="M16.7,5.6c1.3,0,2.3-1,2.3-2.3s-1-2.3-2.3-2.3-2.3,1-2.3,2.3,1,2.3,2.3,2.3ZM15.9,6.8c-1.3-.3-2.4-1.3-2.7-2.7-.1-.5-.1-1,0-1.5.1-.5-.3-1-.8-1h-6.5C3.5,1.7,1.7,3.5,1.7,5.8v5.8c0,2.3,1.9,4.2,4.2,4.2h1.2c.2,0,.5.2.7.3l1.2,1.7c.6.7,1.4.7,2,0l1.2-1.7c.2-.2.4-.3.7-.3h1.3c2.3,0,4.2-1.9,4.2-4.2v-4c0-.5-.5-.9-1-.8-.5,0-1,0-1.5,0ZM6.7,10c-.5,0-.8-.4-.8-.8s.4-.8.8-.8.8.4.8.8-.4.8-.8.8ZM10,10c-.5,0-.8-.4-.8-.8s.4-.8.8-.8.8.4.8.8-.4.8-.8.8ZM13.3,10c-.5,0-.8-.4-.8-.8s.4-.8.8-.8.8.4.8.8-.4.8-.8.8Z"/> 
</svg>