<?xml version="1.0" encoding="UTF-8"?>
<svg id="moneysIcon" xmlns="http://www.w3.org/2000/svg" width="16" height="16" version="1.1" viewBox="0 0 16 16">
      <path d="M12.8,4.4c-.3-1.4-1.4-2.1-2.9-2.1h-5.9c-1.8,0-2.9.9-2.9,2.9v3.4c0,1.5.6,2.3,1.6,2.7.1,0,.3.1.5.1.3,0,.6,0,.9,0h5.9c1.8,0,2.9-.9,2.9-2.9v-3.4c0-.3,0-.6,0-.9ZM3.7,8c0,.3-.2.5-.5.5s-.5-.2-.5-.5v-2c0-.3.2-.5.5-.5s.5.2.5.5v2ZM7,8.8c-1,0-1.8-.8-1.8-1.8s.8-1.8,1.8-1.8,1.8.8,1.8,1.8-.8,1.8-1.8,1.8ZM11.3,8c0,.3-.2.5-.5.5s-.5-.2-.5-.5v-2c0-.3.2-.5.5-.5s.5.2.5.5v2ZM14.9,7.3v3.4c0,2.1-1.2,2.9-2.9,2.9h-5.9c-.5,0-.9,0-1.3-.2-.3-.1-.6-.3-.8-.5-.1-.1,0-.3.1-.3h5.9c2.5,0,3.9-1.5,3.9-3.9v-3.4c0-.2.2-.3.3-.1.5.5.7,1.2.7,2.1Z"/>
</svg>