<?xml version="1.0" encoding="UTF-8"?>
<svg id="notificationBingIcon" xmlns="http://www.w3.org/2000/svg" width="65" height="64" version="1.1" viewBox="0 0 65 64">
      <path d="M54.3,37.5l-3-5c-.7-1.1-1.3-3.2-1.3-4.5v-5c0-9.7-7.9-17.5-17.5-17.5-9.7,0-17.5,7.9-17.5,17.5v5c0,1.3-.6,3.4-1.2,4.5l-3,5c-1.1,1.9-1.4,4.2-.7,6.1.7,1.9,2.3,3.5,4.5,4.2,2.9,1,5.8,1.7,8.7,2.2.3,0,.6,0,.9.1.4,0,.8.1,1.2.2.7.1,1.4.2,2.1.2,1.7.2,3.4.2,5.1.2s3.4,0,5-.2c.6,0,1.2-.1,1.8-.2.5,0,1-.1,1.4-.2.3,0,.6,0,.9-.1,3-.5,5.9-1.2,8.8-2.2,2.1-.7,3.6-2.2,4.4-4.2.7-2,.5-4.2-.6-6ZM34.5,26.7c0,1.1-.9,2-2,2s-2-.9-2-2v-8.3c0-1.1.9-2,2-2s2,.9,2,2v8.3ZM40,53.4c-1.1,3.1-4.1,5.3-7.5,5.3s-4.2-.9-5.7-2.4c-.9-.8-1.5-1.9-1.9-3,.3,0,.7,0,1.1.1.6,0,1.3.2,1.9.2,1.5.1,3.1.2,4.6.2s3,0,4.5-.2c.6,0,1.1,0,1.7-.2.4,0,.9-.1,1.3-.2Z"/>
</svg>