<svg id="notificationIcon" width="16" height="16" viewBox="0 0 16 16" fill="none" xmlns="http://www.w3.org/2000/svg">
<path d="M12.8934 9.65998L12.2267 8.55331C12.0867 8.30665 11.96 7.83998 11.96 7.56665V5.87998C11.96 4.31331 11.04 2.95998 9.71338 2.32665C9.36671 1.71331 8.72671 1.33331 7.99338 1.33331C7.26671 1.33331 6.61338 1.72665 6.26671 2.34665C4.96671 2.99331 4.06671 4.33331 4.06671 5.87998V7.56665C4.06671 7.83998 3.94004 8.30665 3.80004 8.54665L3.12671 9.65998C2.86004 10.1066 2.80004 10.6 2.96671 11.0533C3.12671 11.5 3.50671 11.8466 4.00004 12.0133C5.29338 12.4533 6.65338 12.6666 8.01338 12.6666C9.37338 12.6666 10.7334 12.4533 12.0267 12.02C12.4934 11.8666 12.8534 11.5133 13.0267 11.0533C13.2 10.5933 13.1534 10.0866 12.8934 9.65998Z" fill="currentColor"/>
<path d="M9.88678 13.34C9.60678 14.1133 8.86678 14.6666 8.00012 14.6666C7.47345 14.6666 6.95345 14.4533 6.58678 14.0733C6.37345 13.8733 6.21345 13.6066 6.12012 13.3333C6.20678 13.3466 6.29345 13.3533 6.38678 13.3666C6.54012 13.3866 6.70012 13.4066 6.86012 13.42C7.24012 13.4533 7.62678 13.4733 8.01345 13.4733C8.39345 13.4733 8.77345 13.4533 9.14678 13.42C9.28678 13.4066 9.42678 13.4 9.56012 13.38C9.66678 13.3666 9.77345 13.3533 9.88678 13.34Z" fill="currentColor"/>
</svg>
