<svg id="orangeRingStatusIcon" width="12" height="12" viewBox="0 0 12 12" fill="none" xmlns="http://www.w3.org/2000/svg">
<rect width="12" height="12" rx="6" fill="url(#paint0_linear_2030_424907)"/>
<path d="M5.21009 3.75126C5.23625 3.74959 5.22292 3.74839 5.25 3.75572C5.24966 3.76896 5.2504 3.77052 5.24554 3.7851C5.21439 3.87859 5.05891 4.01548 4.97651 4.06305C4.85612 4.13252 4.72704 4.13901 4.59496 4.10502L4.5 4.06339C4.7321 3.94153 4.95973 3.83111 5.21009 3.75126Z" fill="#A56F28"/>
<path d="M5.53616 8.58345C4.10948 8.32712 3.16047 6.96299 3.41681 5.53631C3.67292 4.10963 5.03705 3.16062 6.46395 3.41674C5.51275 3.24592 4.60334 3.87845 4.43252 4.82964C4.2617 5.78083 4.89423 6.69025 5.84542 6.86107L5.53616 8.58323V8.58345Z" fill="white"/>
<path d="M6.46392 3.375C7.8906 3.63112 8.83961 4.99546 8.58327 6.42214C8.32716 7.84882 6.96281 8.79783 5.53613 8.54149C6.48733 8.71231 7.39674 8.07978 7.56756 7.12859C7.73838 6.1774 7.10585 5.26798 6.15466 5.09716L6.46392 3.375Z" fill="white"/>
<defs>
<linearGradient id="paint0_linear_2030_424907" x1="8.625" y1="1.5" x2="0.283788" y2="7.34834" gradientUnits="userSpaceOnUse">
<stop stop-color="#FF8B0F"/>
<stop offset="1" stop-color="#D20F16"/>
</linearGradient>
</defs>
</svg>
