<svg id="outlinedBookmarkIcon" width="16" height="16" viewBox="0 0 16 16" fill="none" xmlns="http://www.w3.org/2000/svg">
<path d="M3.91895 13.4783L3.91741 13.4775C3.89167 13.463 3.87024 13.442 3.8553 13.4165L3.42545 13.6685L3.8553 13.4165C3.84042 13.3911 3.83252 13.3622 3.83242 13.3328V3.55333H3.83254L3.83229 3.54206C3.82624 3.27379 3.92616 3.01393 4.11039 2.81881C4.29282 2.6256 4.54338 2.51129 4.80866 2.5H11.1895C11.4548 2.51129 11.7053 2.6256 11.8878 2.81882C12.072 3.01393 12.1719 3.27379 12.1659 3.54206L12.1658 3.54206V3.55333V13.3314C12.1654 13.3601 12.1576 13.3882 12.1432 13.4131C12.1286 13.4382 12.1076 13.4591 12.0824 13.4736L12.3324 13.9067L12.0824 13.4737C12.0571 13.4883 12.0283 13.496 11.9991 13.496C11.9698 13.496 11.9411 13.4883 11.9158 13.4737L11.9158 13.4736L11.9121 13.4716L8.13208 11.3316L7.87836 11.1879L7.62839 11.338L4.07505 13.4713L4.07502 13.4713L4.06872 13.4752C4.04581 13.4894 4.01982 13.4978 3.993 13.4998C3.96701 13.4985 3.94165 13.4912 3.91895 13.4783Z" stroke="currentColor"/>
</svg>
