<svg id='pendingIcon' width="18" height="18" viewBox="0 0 18 18" fill="none" xmlns="http://www.w3.org/2000/svg">
<path d="M8.99935 0.666016C4.40768 0.666016 0.666016 4.40768 0.666016 8.99935C0.666016 13.591 4.40768 17.3327 8.99935 17.3327C13.591 17.3327 17.3327 13.591 17.3327 8.99935C17.3327 4.40768 13.591 0.666016 8.99935 0.666016ZM5.66602 9.83268C5.19935 9.83268 4.83268 9.45768 4.83268 8.99935C4.83268 8.54102 5.20768 8.16602 5.66602 8.16602C6.12435 8.16602 6.49935 8.54102 6.49935 8.99935C6.49935 9.45768 6.13268 9.83268 5.66602 9.83268ZM8.99935 9.83268C8.53268 9.83268 8.16602 9.45768 8.16602 8.99935C8.16602 8.54102 8.54102 8.16602 8.99935 8.16602C9.45768 8.16602 9.83268 8.54102 9.83268 8.99935C9.83268 9.45768 9.46602 9.83268 8.99935 9.83268ZM12.3327 9.83268C11.866 9.83268 11.4993 9.45768 11.4993 8.99935C11.4993 8.54102 11.8743 8.16602 12.3327 8.16602C12.791 8.16602 13.166 8.54102 13.166 8.99935C13.166 9.45768 12.7993 9.83268 12.3327 9.83268Z" fill="#FFCB45"/>
</svg>
