<?xml version="1.0" encoding="UTF-8"?>
<svg id="peopleIcon" xmlns="http://www.w3.org/2000/svg" width="20" height="20" version="1.1" viewBox="0 0 20 20">
      <path d="M14.6,6.5c0,0-.1,0-.2,0-1.3,0-2.3-1.1-2.3-2.4s1.1-2.4,2.4-2.4,2.4,1.1,2.4,2.4c0,1.3-1,2.4-2.3,2.4ZM17.3,12.3c-.9.6-2.2.9-3.4.7.3-.7.5-1.4.5-2.2,0-.8-.2-1.6-.5-2.3,1.2-.2,2.5,0,3.5.7,1.3.9,1.3,2.3,0,3.2ZM5.4,6.5c0,0,.1,0,.2,0,1.3,0,2.3-1.1,2.3-2.4s-1.1-2.4-2.4-2.4-2.4,1.1-2.4,2.4,1,2.4,2.3,2.4ZM5.5,10.7c0,.8.2,1.6.5,2.3-1.2.1-2.4-.1-3.3-.7-1.3-.9-1.3-2.3,0-3.2.9-.6,2.1-.8,3.3-.7-.3.7-.5,1.5-.5,2.3ZM10.1,13.2c0,0-.1,0-.2,0-1.5,0-2.8-1.3-2.8-2.9,0-1.6,1.3-2.9,2.9-2.9s2.9,1.3,2.9,2.9c0,1.6-1.2,2.8-2.8,2.9ZM7.4,14.9c-1.3.8-1.3,2.2,0,3.1,1.4,1,3.8,1,5.2,0,1.3-.8,1.3-2.2,0-3.1-1.4-1-3.8-1-5.2,0Z"/>
</svg>