<svg id="purpleRingStatusIcon" width="12" height="12" viewBox="0 0 12 12" fill="none" xmlns="http://www.w3.org/2000/svg">
<rect width="12" height="12" rx="6" fill="url(#paint0_linear_2030_424914)"/>
<path d="M5.53616 8.58345C4.10948 8.32712 3.16047 6.96299 3.41681 5.53631C3.67292 4.10963 5.03705 3.16062 6.46395 3.41674C5.51275 3.24592 4.60334 3.87845 4.43252 4.82964C4.2617 5.78083 4.89423 6.69025 5.84542 6.86107L5.53616 8.58323V8.58345Z" fill="white"/>
<path d="M6.46392 3.375C7.8906 3.63112 8.83961 4.99546 8.58327 6.42214C8.32716 7.84882 6.96281 8.79783 5.53613 8.54149C6.48733 8.71231 7.39674 8.07978 7.56756 7.12859C7.73838 6.1774 7.10585 5.26798 6.15466 5.09716L6.46392 3.375Z" fill="white"/>
<defs>
<linearGradient id="paint0_linear_2030_424914" x1="3" y1="9.9375" x2="11.0645" y2="4.1586" gradientUnits="userSpaceOnUse">
<stop stop-color="#4F1E6E"/>
<stop offset="1" stop-color="#AF83E0"/>
</linearGradient>
</defs>
</svg>
