<?xml version="1.0" encoding="UTF-8"?>
<svg id="betslip-placeholder" xmlns="http://www.w3.org/2000/svg" version="1.1" viewBox="0 0 24 24">
      <path d="M7,2h-1c-3,0-4,1.8-4,4v15c0,.8.9,1.3,1.6.8l1.7-1.3c.4-.3,1-.3,1.3.1l1.7,1.7c.4.4,1,.4,1.4,0l1.7-1.7c.3-.4.9-.4,1.3,0l1.7,1.3c.7.5,1.6,0,1.6-.8V4c0-1.1.9-2,2-2H7ZM6,14c-.5,0-1-.4-1-1s.5-1,1-1,1,.4,1,1-.4,1-1,1ZM6,10c-.5,0-1-.4-1-1s.5-1,1-1,1,.4,1,1-.4,1-1,1ZM12,13.8h-3c-.4,0-.8-.3-.8-.8s.3-.8.8-.8h3c.4,0,.8.3.8.8s-.3.8-.8.8ZM12,9.8h-3c-.4,0-.8-.3-.8-.8s.3-.8.8-.8h3c.4,0,.8.3.8.8s-.3.8-.8.8Z"/>
      <path d="M18,2v1.5c.7,0,1.3.3,1.8.7.5.5.7,1.1.7,1.8v2.4c0,.7-.3,1.1-1.1,1.1h-1.9v-5.5c0-.3.2-.5.5-.5v-1.5ZM18,2c-1.1,0-2,.9-2,2v7h3.4c1.6,0,2.6-1,2.6-2.6v-2.4c0-1.1-.5-2.1-1.2-2.8-.7-.7-1.7-1.2-2.8-1.2,0,0,0,0,0,0Z"/>   
</svg>