<?xml version="1.0" encoding="UTF-8"?>
<svg id="refreshIcon" xmlns="http://www.w3.org/2000/svg" width="16" height="16" version="1.1" viewBox="0 0 16 16">
      <path d="M9.7,15.2c-.3,0-.6-.2-.7-.6-.1-.4.1-.8.5-.9,2.6-.7,4.4-3,4.4-5.7s-2.7-5.9-5.9-5.9-4.1,1.2-5.1,2.2h1.4c.4,0,.8.3.8.8s-.3.8-.8.8H1.3c-.4,0-.8-.3-.8-.8V2c0-.4.3-.8.8-.8s.8.3.8.8v1C3.3,1.9,5.2.6,8,.6c4.1,0,7.4,3.3,7.4,7.4s-2.3,6.3-5.5,7.2c0,0-.1,0-.2,0ZM7.3,14.7c0-.4-.2-.8-.6-.9-.9-.2-1.7-.6-2.4-1.1-.3-.3-.8-.2-1.1.1-.3.3-.2.8.1,1.1.9.7,1.9,1.2,3,1.4,0,0,.1,0,.2,0,.3,0,.7-.2.7-.6ZM2.3,11.6c.4-.2.5-.6.3-1-.4-.8-.6-1.7-.6-2.6s-.3-.8-.8-.8-.8.3-.8.8c0,1.1.2,2.2.7,3.2.1.3.4.4.7.4s.2,0,.3,0Z"/>
</svg>