<?xml version="1.0" encoding="UTF-8"?>
<svg id="rocketIcon" xmlns="http://www.w3.org/2000/svg" width="14" height="14" version="1.1" viewBox="0 0 14 14">
      <path d="M11.1.8h.2c.4,0,1,.2,1.4.5.3.3.4.7.4,1.1v.3c.1.6.1,1.4,0,2.3-.3,1.7-1.2,3.8-3.5,5.4,0,.1,0,.3,0,.4v.2c0,.3,0,.6,0,.9-.1.4-.6.7-1,.9h-.2c0,0-.3.2-.3.2-.5.2-1.2.4-1.6,0-.3-.3-.4-.6-.4-1h0c0-.3,0-.5-.1-.7,0,0,0-.2-.1-.3,0,0,0,.1-.1.1-.2.2-.6.4-.9.5-.3.1-.7.2-1,.3h-.2s-.3.1-.3.1h-.3c0,0-.3.1-.3.1h-.2c-.1,0-.2,0-.3,0-.1,0-.2,0-.3-.2,0,0-.1-.2-.2-.3,0-.1,0-.2,0-.3v-.3c0,0,.2-.5.2-.5v-.3c0,0,.1-.2.1-.2,0-.3.2-.7.3-1,.1-.3.3-.6.5-.9h0c0,0,0,0,0,0-.1,0-.2,0-.3-.1h-.2c-.5-.2-1-.3-1.3-.7-.4-.4-.2-.9,0-1.4v-.2c0,0,.2-.3.2-.3v-.2c.3-.4.6-.9,1-1,.2,0,.5,0,.7,0h.1c.2,0,.4,0,.6,0,1.6-2.3,3.7-3.3,5.4-3.5.7-.1,1.4-.1,2.1,0ZM4.6,9.3c-.1,0-.2-.1-.4-.1-.1,0-.3,0-.4,0h0s0,.1,0,.1h0c-.2.4-.3.7-.3,1v.3c0,0-.1.1-.1.1h.1s.3,0,.3,0c.4,0,.8-.2,1.1-.4.1-.1.2-.3.2-.4s0-.3-.1-.4h0c0,0,0,0,0,0h0ZM9.4,4.6c-.1-.1-.3-.2-.4-.3-.2,0-.3-.1-.5-.1-.2,0-.3,0-.5.1-.2,0-.3.2-.4.3-.1.1-.2.3-.3.4,0,.2-.1.3-.1.5s0,.3.1.5c0,.2.2.3.3.4.3.3.6.4.9.4.4,0,.7-.1.9-.4.3-.3.4-.6.4-.9,0-.4-.1-.7-.4-.9Z"/>
</svg>