<?xml version="1.0" encoding="UTF-8"?>
<svg id="settings2Icon" xmlns="http://www.w3.org/2000/svg" width="20" height="20" version="1.1" viewBox="0 0 20 20">
      <path d="M16.8,7.7c-1.5,0-2.1-1.1-1.4-2.4.4-.8.2-1.7-.6-2.2l-1.4-.8c-.7-.4-1.5-.2-1.9.5v.2c-.8,1.3-2.1,1.3-2.8,0v-.2c-.5-.7-1.3-.9-2-.5l-1.4.8c-.8.4-1,1.4-.6,2.2.8,1.3.1,2.4-1.4,2.4s-1.6.7-1.6,1.6v1.5c0,.9.7,1.6,1.6,1.6,1.5,0,2.1,1.1,1.4,2.4-.4.8-.2,1.7.6,2.2l1.4.8c.7.4,1.5.2,1.9-.5v-.2c.8-1.3,2.1-1.3,2.8,0v.2c.5.7,1.3.9,2,.5l1.4-.8c.8-.4,1-1.4.6-2.2-.8-1.3-.1-2.4,1.4-2.4s1.6-.7,1.6-1.6v-1.5c0-.9-.7-1.6-1.6-1.6ZM10,12.7c-1.5,0-2.7-1.2-2.7-2.7s1.2-2.7,2.7-2.7,2.7,1.2,2.7,2.7-1.2,2.7-2.7,2.7Z"/>
</svg>