<?xml version="1.0" encoding="UTF-8"?>
<svg id="settingIcon" xmlns="http://www.w3.org/2000/svg" width="20" height="20" version="1.1" viewBox="0 0 20 20">
        <path d="M17.7,5.8h-4.7s0,0,0,0c0,0,0,0,0,0s0,0,0,0c0,0,0,0,0,0h4.7s0,0,0,0c0,0,0,0,0,0s0,0,0,0c0,0,0,0,0,0ZM5.4,5.8h-3.1s0,0,0,0c0,0,0,0,0,0s0,0,0,0c0,0,0,0,0,0h3.1s0,0,0,0,0,0,0,0c0,0,0,0,0,0ZM8.4,9c1.8,0,3.3-1.5,3.3-3.3s-1.5-3.3-3.3-3.3-3.3,1.5-3.3,3.3,1.5,3.3,3.3,3.3ZM17.7,14.8h-3.1c-.3,0-.6-.3-.6-.6s.3-.6.6-.6h3.1c.3,0,.6.3.6.6s-.3.6-.6.6ZM6.9,14.8H2.3c-.3,0-.6-.3-.6-.6s.3-.6.6-.6h4.7c.3,0,.6.3.6.6s-.3.6-.6.6ZM11.6,17.6c1.8,0,3.3-1.5,3.3-3.3s-1.5-3.3-3.3-3.3-3.3,1.5-3.3,3.3,1.5,3.3,3.3,3.3Z"/>
        <path d="M11.6,18.1c-1.9,0-3.5-1.4-3.7-3.2-.2.3-.5.5-.9.5H2.3c-.6,0-1.1-.5-1.1-1.1s.5-1.1,1.1-1.1h4.6c.4,0,.7.2.9.5.3-1.8,1.9-3.2,3.7-3.2s3.2,1.1,3.6,2.7h2.6c.6,0,1.1.5,1.1,1.1s-.5,1.1-1.1,1.1h-2.6c-.5,1.6-1.9,2.7-3.6,2.7ZM11.6,11.5c-1.5,0-2.8,1.3-2.8,2.8s1.3,2.8,2.8,2.8,2.2-.8,2.6-1.8c-.4-.2-.6-.5-.6-1s.2-.8.6-1c-.4-1.1-1.4-1.8-2.6-1.8ZM15.3,14.3h2.4s0,0,0,0,0,0,0,0h-2.4s0,0,0,0,0,0,0,0ZM2.3,14.2s0,0,0,0,0,0,0,0h4.6s0,0,0,0,0,0,0,0H2.3ZM8.4,9.5c-1.9,0-3.5-1.4-3.7-3.2h-2.7l-.2-.2c-.1-.1-.2-.3-.2-.4v-.2l.2-.2c.1-.1.2-.2.4-.2h2.5c.3-1.8,1.9-3.2,3.7-3.2s3.8,1.7,3.8,3.8-1.7,3.8-3.8,3.8ZM5.7,6.2c.2,1.3,1.4,2.3,2.8,2.3s2.8-1.3,2.8-2.8-1.3-2.8-2.8-2.8-2.5,1-2.8,2.3h0c.1.2.2.3.2.5s0,.4-.2.5ZM17.8,6.3h-4.9l-.2-.2c-.1-.1-.2-.3-.2-.4v-.2l.2-.2c.1-.1.2-.2.4-.2h4.9l.2.2c0,0,.2.2.2.4v.2l-.2.2c0,0-.2.2-.4.2Z"/>     
</svg>