<?xml version="1.0" encoding="UTF-8"?>
<svg id="smileIcon" xmlns="http://www.w3.org/2000/svg" width="16" height="16" version="1.1" viewBox="0 0 16 16">
      <path d="M13.7,2.3c-1.5-1.5-3.5-2.3-5.7-2.3S3.8.8,2.3,2.3,0,5.9,0,8s.8,4.2,2.3,5.7c1.5,1.5,3.5,2.3,5.7,2.3s4.2-.8,5.7-2.3c1.5-1.5,2.3-3.5,2.3-5.7s-.8-4.2-2.3-5.7ZM4.3,5.3c.2-.2.4-.3.7-.3s.5.1.7.3c.2.2.3.4.3.7s-.1.5-.3.7c-.2.2-.4.3-.7.3s-.5-.1-.7-.3c-.2-.2-.3-.4-.3-.7s.1-.5.3-.7ZM11.8,11.2c0,.1-.1.2-.2.3-.5.5-1,.8-1.6,1.1s-1.3.4-1.9.4-1.3-.1-1.9-.4c-.6-.3-1.2-.6-1.6-1.1-.2-.2-.3-.4-.3-.7,0-.3.1-.5.3-.7.2-.2.4-.3.7-.3.3,0,.5.1.7.3.6.6,1.3.9,2.1.9s1.6-.3,2.1-.9c0,0,.2-.2.3-.2.1,0,.3,0,.4,0,.1,0,.3,0,.4,0,.1,0,.2.1.3.2,0,0,.2.2.2.3,0,.1,0,.3,0,.4s0,.3,0,.4ZM11.7,6.7c-.2.2-.4.3-.7.3s-.5-.1-.7-.3c-.2-.2-.3-.4-.3-.7s.1-.5.3-.7c.2-.2.4-.3.7-.3s.5.1.7.3c.2.2.3.4.3.7s-.1.5-.3.7Z"/>
</svg>