<?xml version="1.0" encoding="UTF-8"?>
<svg id="soccerIcon" xmlns="http://www.w3.org/2000/svg" width="21" height="21" version="1.1" viewBox="0 0 21 21">
  <path  d="M8.2,2c-2.1.6-3.9,1.9-5,3.6l1.7.5,3.3-2.4v-1.7ZM2.6,6.8c-.5,1.1-.8,2.4-.8,3.7s.2,1.9.4,2.7l2,.2,1.7-2.2-1.2-3.8-2-.5ZM4.4,16.7c-.7-.6-1.2-1.4-1.6-2.2h1.2c0,.1.4,2.2.4,2.2ZM5.9,17.9c1.3.8,2.9,1.3,4.6,1.3s1,0,1.4-.1c-.2-.1-.2-.4-.2-.6l.9-4.3-1.8-2.3h-4.1l-1.7,2.3.8,3.7ZM18,15c-1,1.7-2.5,2.9-4.4,3.6l-.5-.3.8-3.7,3.8-.4.3.8ZM18.7,13.6c.4-1,.6-2,.6-3.1s0-1.4-.2-2.1l-3.2-1.8-2.6.7-1.2,3.8,1.7,2.2,4.3-.5c.3,0,.5.1.6.4v.2ZM17,4.7c.5.6,1,1.3,1.3,2l-1.7-.9.4-1ZM16,3.7c-1.5-1.2-3.4-2-5.5-2s-.7,0-1,0v1.9l3.3,2.4,2.6-.7.7-1.7ZM5.8,7.1l3.1-2.2,3.1,2.2-1.2,3.6h-3.8l-1.2-3.6Z"/>
</svg>