<svg width="24" height="24" id="solIcon" viewBox="0 0 24 24" fill="none" xmlns="http://www.w3.org/2000/svg">
<circle cx="12" cy="12" r="12" fill="black"/>
<path d="M7.43822 14.8429C7.52138 14.7598 7.63572 14.7113 7.75699 14.7113H18.7545C18.9555 14.7113 19.0559 14.9538 18.9139 15.0959L16.7414 17.2683C16.6582 17.3515 16.5439 17.4 16.4226 17.4H5.42513C5.22417 17.4 5.12369 17.1575 5.26575 17.0154L7.43822 14.8429Z" fill="url(#paint0_linear_5504_223391)"/>
<path d="M7.43822 6.73167C7.52485 6.64851 7.63919 6.60001 7.75699 6.60001H18.7545C18.9555 6.60001 19.0559 6.84255 18.9139 6.98461L16.7414 9.15708C16.6582 9.24024 16.5439 9.28875 16.4226 9.28875H5.42513C5.22417 9.28875 5.12369 9.0462 5.26575 8.90414L7.43822 6.73167Z" fill="url(#paint1_linear_5504_223391)"/>
<path d="M16.7414 10.7613C16.6582 10.6782 16.5439 10.6297 16.4226 10.6297H5.42513C5.22417 10.6297 5.12369 10.8722 5.26575 11.0143L7.43822 13.1867C7.52138 13.2699 7.63572 13.3184 7.75699 13.3184H18.7545C18.9555 13.3184 19.0559 13.0759 18.9139 12.9338L16.7414 10.7613Z" fill="url(#paint2_linear_5504_223391)"/>
<defs>
<linearGradient id="paint0_linear_5504_223391" x1="-19.657" y1="4.55976" x2="-19.9496" y2="19.2836" gradientUnits="userSpaceOnUse">
<stop stop-color="#00FFA3"/>
<stop offset="1" stop-color="#DC1FFF"/>
</linearGradient>
<linearGradient id="paint1_linear_5504_223391" x1="-22.985" y1="2.82226" x2="-23.2777" y2="17.5461" gradientUnits="userSpaceOnUse">
<stop stop-color="#00FFA3"/>
<stop offset="1" stop-color="#DC1FFF"/>
</linearGradient>
<linearGradient id="paint2_linear_5504_223391" x1="-21.3316" y1="3.68548" x2="-21.6242" y2="18.4093" gradientUnits="userSpaceOnUse">
<stop stop-color="#00FFA3"/>
<stop offset="1" stop-color="#DC1FFF"/>
</linearGradient>
</defs>
</svg>
