<?xml version="1.0" encoding="UTF-8"?>
<svg id="sortingArrowsIcon" xmlns="http://www.w3.org/2000/svg" width="4" height="7" version="1.1" viewBox="0 0 4 7">
      <path d="M1.5.4c.1-.1.3-.2.5-.2s.3,0,.5.2l1.3,1.3c0,0,.2.2.2.3,0,.1,0,.3,0,.4,0,.1-.1.2-.2.3-.1,0-.2.1-.4.1H.7c-.1,0-.3,0-.4-.1-.1,0-.2-.2-.2-.3,0-.1,0-.3,0-.4,0-.1,0-.2.2-.3L1.5.4ZM0,4.6c0-.1.1-.2.2-.3.1,0,.2-.1.4-.1h2.7c.1,0,.3,0,.4.1.1,0,.2.2.2.3,0,.1,0,.3,0,.4s0,.2-.2.3l-1.3,1.3c-.1.1-.3.2-.5.2s-.3,0-.5-.2L.2,5.3c0,0-.2-.2-.2-.3,0-.1,0-.3,0-.4Z"/>  
</svg>