<svg id="statusUpIcon" width="16" height="16" viewBox="0 0 16 16" fill="none" xmlns="http://www.w3.org/2000/svg">
<path d="M10.794 1.33398H5.20732C2.78065 1.33398 1.33398 2.78065 1.33398 5.20732V10.7873C1.33398 13.2207 2.78065 14.6673 5.20732 14.6673H10.7873C13.214 14.6673 14.6607 13.2207 14.6607 10.794V5.20732C14.6673 2.78065 13.2207 1.33398 10.794 1.33398ZM5.08732 12.1007C5.08732 12.374 4.86065 12.6007 4.58732 12.6007C4.31398 12.6007 4.08732 12.374 4.08732 12.1007V10.7207C4.08732 10.4473 4.31398 10.2207 4.58732 10.2207C4.86065 10.2207 5.08732 10.4473 5.08732 10.7207V12.1007ZM8.50065 12.1007C8.50065 12.374 8.27398 12.6007 8.00065 12.6007C7.72732 12.6007 7.50065 12.374 7.50065 12.1007V9.33398C7.50065 9.06065 7.72732 8.83398 8.00065 8.83398C8.27398 8.83398 8.50065 9.06065 8.50065 9.33398V12.1007ZM11.914 12.1007C11.914 12.374 11.6873 12.6007 11.414 12.6007C11.1407 12.6007 10.914 12.374 10.914 12.1007V7.95398C10.914 7.68065 11.1407 7.45398 11.414 7.45398C11.6873 7.45398 11.914 7.68065 11.914 7.95398V12.1007ZM11.914 5.84732C11.914 6.12065 11.6873 6.34732 11.414 6.34732C11.1407 6.34732 10.914 6.12065 10.914 5.84732V5.20065C9.21398 6.94732 7.08732 8.18065 4.70732 8.77398C4.66732 8.78732 4.62732 8.78732 4.58732 8.78732C4.36065 8.78732 4.16065 8.63398 4.10065 8.40732C4.03398 8.14065 4.19398 7.86732 4.46732 7.80065C6.71398 7.24065 8.71398 6.06065 10.3007 4.39398H9.46732C9.19398 4.39398 8.96732 4.16732 8.96732 3.89398C8.96732 3.62065 9.19398 3.39398 9.46732 3.39398H11.4207C11.4473 3.39398 11.4673 3.40732 11.494 3.40732C11.5273 3.41398 11.5607 3.41398 11.594 3.42732C11.6273 3.44065 11.654 3.46065 11.6873 3.48065C11.7073 3.49398 11.7273 3.50065 11.7473 3.51398C11.754 3.52065 11.754 3.52732 11.7607 3.52732C11.7873 3.55398 11.8073 3.58065 11.8273 3.60732C11.8473 3.63398 11.8673 3.65398 11.874 3.68065C11.8873 3.70732 11.8873 3.73398 11.894 3.76732C11.9007 3.80065 11.914 3.83398 11.914 3.87398C11.914 3.88065 11.9207 3.88732 11.9207 3.89398V5.84732H11.914Z" fill="currentColor"/>
</svg>
