<svg id = 'successIcon' width="18" height="18" viewBox="0 0 18 18" fill="none" xmlns="http://www.w3.org/2000/svg">
<path d="M8.99935 0.666016C4.40768 0.666016 0.666016 4.40768 0.666016 8.99935C0.666016 13.591 4.40768 17.3327 8.99935 17.3327C13.591 17.3327 17.3327 13.591 17.3327 8.99935C17.3327 4.40768 13.591 0.666016 8.99935 0.666016ZM12.9827 7.08268L8.25768 11.8077C8.14102 11.9243 7.98268 11.991 7.81602 11.991C7.64935 11.991 7.49102 11.9243 7.37435 11.8077L5.01602 9.44935C4.77435 9.20768 4.77435 8.80768 5.01602 8.56602C5.25768 8.32435 5.65768 8.32435 5.89935 8.56602L7.81602 10.4827L12.0993 6.19935C12.341 5.95768 12.741 5.95768 12.9827 6.19935C13.2243 6.44102 13.2243 6.83268 12.9827 7.08268Z" fill="#04CC6F"/>
</svg>
