<svg width="14" height="12" viewBox="0 0 14 12" fill="none" xmlns="http://www.w3.org/2000/svg">
<path d="M13.4733 4.59828L11.8733 1.38495C11.56 0.751615 10.7267 0.238281 10.02 0.238281H3.97999C3.27332 0.238281 2.43999 0.751615 2.12665 1.38495L0.526647 4.59828C0.13998 5.37161 0.353315 6.47161 0.986648 7.05161L5.60665 11.2449C6.37332 11.9383 7.61999 11.9383 8.38665 11.2449L13.0066 7.05161C13.6466 6.47161 13.86 5.36495 13.4733 4.59828ZM9.66665 4.16495H7.49998V7.66495C7.49998 7.93828 7.27332 8.16495 6.99998 8.16495C6.72665 8.16495 6.49998 7.93828 6.49998 7.66495V4.16495H4.33332C4.05998 4.16495 3.83332 3.93828 3.83332 3.66495C3.83332 3.39161 4.05998 3.16495 4.33332 3.16495H9.66665C9.93999 3.16495 10.1667 3.39161 10.1667 3.66495C10.1667 3.93828 9.93999 4.16495 9.66665 4.16495Z" fill="#0FC896"/>
</svg>
