<svg width="21" height="20" id="tickCircle2Icon" viewBox="0 0 21 20" fill="none" xmlns="http://www.w3.org/2000/svg">
<rect x="4.9668" y="5" width="11.6667" height="10" fill="#000000"/>
<path d="M10.8001 1.66667C6.20846 1.66667 2.4668 5.40834 2.4668 10C2.4668 14.5917 6.20846 18.3333 10.8001 18.3333C15.3918 18.3333 19.1335 14.5917 19.1335 10C19.1335 5.40834 15.3918 1.66667 10.8001 1.66667ZM14.7835 8.08334L10.0585 12.8083C9.9418 12.925 9.78346 12.9917 9.6168 12.9917C9.45013 12.9917 9.2918 12.925 9.17513 12.8083L6.8168 10.45C6.57513 10.2083 6.57513 9.80834 6.8168 9.56667C7.05846 9.325 7.45846 9.325 7.70013 9.56667L9.6168 11.4833L13.9001 7.20001C14.1418 6.95834 14.5418 6.95834 14.7835 7.20001C15.0251 7.44167 15.0251 7.83334 14.7835 8.08334Z" fill="#44E929"/>
</svg>
