<svg id="tickCircleIcon" width="20" height="21" viewBox="0 0 20 21" fill="none" xmlns="http://www.w3.org/2000/svg">
<path d="M10.0003 2.16666C5.40866 2.16666 1.66699 5.90832 1.66699 10.5C1.66699 15.0917 5.40866 18.8333 10.0003 18.8333C14.592 18.8333 18.3337 15.0917 18.3337 10.5C18.3337 5.90832 14.592 2.16666 10.0003 2.16666ZM13.9837 8.58332L9.25866 13.3083C9.14199 13.425 8.98366 13.4917 8.81699 13.4917C8.65033 13.4917 8.49199 13.425 8.37533 13.3083L6.01699 10.95C5.77533 10.7083 5.77533 10.3083 6.01699 10.0667C6.25866 9.82499 6.65866 9.82499 6.90033 10.0667L8.81699 11.9833L13.1003 7.69999C13.342 7.45832 13.742 7.45832 13.9837 7.69999C14.2253 7.94166 14.2253 8.33332 13.9837 8.58332Z" fill="currentColor"/>
</svg>
