<svg id="ticketDiscountIcon" width="20" height="20" viewBox="0 0 20 20" fill="none" xmlns="http://www.w3.org/2000/svg">
<path d="M17.7501 9.03334C18.0751 9.03334 18.3334 8.77501 18.3334 8.45001V7.67501C18.3334 4.25834 17.2917 3.21667 13.8751 3.21667H6.12508C2.70841 3.21667 1.66675 4.25834 1.66675 7.67501V8.06668C1.66675 8.39167 1.92508 8.65001 2.25008 8.65001C3.00008 8.65001 3.60841 9.25834 3.60841 10.0083C3.60841 10.7583 3.00008 11.3583 2.25008 11.3583C1.92508 11.3583 1.66675 11.6167 1.66675 11.9417V12.3333C1.66675 15.75 2.70841 16.7917 6.12508 16.7917H13.8751C17.2917 16.7917 18.3334 15.75 18.3334 12.3333C18.3334 12.0083 18.0751 11.75 17.7501 11.75C17.0001 11.75 16.3917 11.1417 16.3917 10.3917C16.3917 9.64167 17.0001 9.03334 17.7501 9.03334ZM7.50008 7.40001C7.95842 7.40001 8.33342 7.77501 8.33342 8.23334C8.33342 8.69168 7.96675 9.06668 7.50008 9.06668C7.04175 9.06668 6.66675 8.69168 6.66675 8.23334C6.66675 7.77501 7.03341 7.40001 7.50008 7.40001ZM12.5001 13.2333C12.0334 13.2333 11.6584 12.8583 11.6584 12.4C11.6584 11.9417 12.0334 11.5667 12.4917 11.5667C12.9501 11.5667 13.3251 11.9417 13.3251 12.4C13.3251 12.8583 12.9667 13.2333 12.5001 13.2333ZM13.2501 7.90001L7.64175 13.5083C7.51675 13.6333 7.35842 13.6917 7.20008 13.6917C7.04175 13.6917 6.88341 13.6333 6.75841 13.5083C6.51675 13.2667 6.51675 12.8667 6.75841 12.625L12.3667 7.01667C12.6084 6.77501 13.0084 6.77501 13.2501 7.01667C13.4917 7.25834 13.4917 7.65834 13.2501 7.90001Z" fill="currentColor"/>
</svg>
