<svg id="trashIcon" width="20" height="20" viewBox="0 0 20 20" fill="none" xmlns="http://www.w3.org/2000/svg">
<path d="M17.5583 4.35964C16.2167 4.2263 14.875 4.1263 13.525 4.0513V4.04297L13.3417 2.95964C13.2167 2.19297 13.0333 1.04297 11.0833 1.04297H8.89999C6.95832 1.04297 6.77499 2.14297 6.64165 2.9513L6.46666 4.01797C5.69166 4.06797 4.91666 4.11797 4.14166 4.19297L2.44166 4.35964C2.09166 4.39297 1.84166 4.7013 1.87499 5.04297C1.90832 5.38464 2.20832 5.63464 2.55832 5.6013L4.25832 5.43464C8.62499 5.0013 13.025 5.16797 17.4417 5.60964C17.4667 5.60964 17.4833 5.60964 17.5083 5.60964C17.825 5.60964 18.1 5.36797 18.1333 5.04297C18.1583 4.7013 17.9083 4.39297 17.5583 4.35964Z" fill="#F15858"/>
<path d="M16.025 6.78203C15.825 6.5737 15.55 6.45703 15.2667 6.45703H4.73335C4.45002 6.45703 4.16668 6.5737 3.97502 6.78203C3.78335 6.99036 3.67501 7.2737 3.69168 7.56536L4.20835 16.1154C4.30002 17.382 4.41668 18.9654 7.32502 18.9654H12.675C15.5833 18.9654 15.7 17.3904 15.7917 16.1154L16.3083 7.5737C16.325 7.2737 16.2167 6.99036 16.025 6.78203ZM11.3833 14.7904H8.60835C8.26668 14.7904 7.98335 14.507 7.98335 14.1654C7.98335 13.8237 8.26668 13.5404 8.60835 13.5404H11.3833C11.725 13.5404 12.0083 13.8237 12.0083 14.1654C12.0083 14.507 11.725 14.7904 11.3833 14.7904ZM12.0833 11.457H7.91668C7.57502 11.457 7.29168 11.1737 7.29168 10.832C7.29168 10.4904 7.57502 10.207 7.91668 10.207H12.0833C12.425 10.207 12.7083 10.4904 12.7083 10.832C12.7083 11.1737 12.425 11.457 12.0833 11.457Z" fill="#F15858"/>
</svg>
