<svg id="unlockIcon" width="20" height="20" viewBox="0 0 20 20" fill="none" xmlns="http://www.w3.org/2000/svg">
<path fill-rule="evenodd" clip-rule="evenodd" d="M8.77738 3.17621C8.57115 3.20626 8.36914 3.26039 8.17551 3.33748C7.02283 3.79642 6.33899 4.98974 6.52579 6.21628L6.55166 6.38612C6.58371 6.59657 6.63898 6.80282 6.71644 7.0011L7.47885 8.95253C9.30317 8.82848 11.1344 8.83922 12.9575 8.98477L14.2043 9.0843C15.011 9.1487 15.6698 9.75515 15.8005 10.5538C16.1019 12.3946 16.1019 14.2721 15.8005 16.1128C15.6698 16.9115 15.011 17.518 14.2043 17.5824L12.9575 17.6819C10.989 17.839 9.01119 17.839 7.04274 17.6819L5.79596 17.5824C4.98922 17.518 4.33047 16.9115 4.19969 16.1128C3.89828 14.2721 3.89828 12.3946 4.19969 10.5538C4.33047 9.75515 4.98922 9.1487 5.79596 9.0843L6.17645 9.05392L5.55215 7.45598C5.44109 7.17172 5.36186 6.87603 5.31591 6.57433L5.29004 6.40449C5.01567 4.60296 6.02008 2.85023 7.71313 2.17615C7.99753 2.06291 8.29423 1.98341 8.59715 1.93927C10.4004 1.67652 12.1466 2.69223 12.8098 4.38959L12.8723 4.54961C12.9834 4.83386 13.0626 5.12955 13.1085 5.43125L13.2263 6.20459C13.261 6.43209 13.1046 6.6446 12.8771 6.67925L12.4652 6.74198C12.2377 6.77663 12.0252 6.6203 11.9906 6.3928L11.8728 5.61946C11.8407 5.40901 11.7855 5.20276 11.708 5.00449L11.6455 4.84447C11.194 3.68885 10.0051 2.99732 8.77738 3.17621ZM10.0001 12.0833C9.30974 12.0833 8.75009 12.643 8.75009 13.3333C8.75009 14.0237 9.30974 14.5833 10.0001 14.5833C10.6904 14.5833 11.2501 14.0237 11.2501 13.3333C11.2501 12.643 10.6904 12.0833 10.0001 12.0833Z" fill="#04CC6F"/>
</svg>
