<svg id="USDTIcon" width="16" height="16" viewBox="0 0 16 16" fill="none" xmlns="http://www.w3.org/2000/svg">
<path d="M15.7589 9.93524C14.6904 14.221 10.3496 16.8292 6.06336 15.7605C1.77889 14.692 -0.829339 10.351 0.239588 6.06558C1.30758 1.77935 5.64835 -0.829071 9.93329 0.239387C14.2192 1.30785 16.8273 5.64936 15.7587 9.93532L15.7588 9.93524H15.7589Z" fill="#50AF95"/>
<path fill-rule="evenodd" clip-rule="evenodd" d="M9.01231 8.90794C8.95574 8.91218 8.66348 8.92962 8.01154 8.92962C7.49301 8.92962 7.12485 8.91407 6.99569 8.90794C4.99179 8.81979 3.49606 8.47096 3.49606 8.0533C3.49606 7.63565 4.99179 7.28729 6.99569 7.19772V8.56052C7.12674 8.56995 7.50197 8.5921 8.0205 8.5921C8.64274 8.5921 8.95433 8.56618 9.01042 8.56099V7.19866C11.0101 7.28776 12.5025 7.63659 12.5025 8.0533C12.5025 8.47001 11.0105 8.81884 9.01042 8.90747L9.01231 8.90794ZM9.0122 7.05766V5.83816H11.8029V3.97852H4.20493V5.83816H6.99511V7.05719C4.72723 7.16137 3.02173 7.6106 3.02173 8.14894C3.02173 8.68727 4.72723 9.13603 6.99511 9.24068V13.1485H9.01173V9.23927C11.2744 9.13509 12.9771 8.68632 12.9771 8.14846C12.9771 7.6106 11.2758 7.16184 9.01173 7.05719L9.0122 7.05766Z" fill="white"/>
</svg>
