<svg id="userAvatarIcon" width="16" height="16" viewBox="0 0 16 16" fill="none" xmlns="http://www.w3.org/2000/svg">
<rect width="16" height="16" rx="8" fill="url(#paint0_linear_1846_266671)"/>
<path d="M6.94678 5.00169C6.98166 4.99946 6.9639 4.99786 7 5.00762C6.99955 5.02528 7.00054 5.02736 6.99406 5.0468C6.95252 5.17146 6.74521 5.35397 6.63534 5.4174C6.47483 5.51003 6.30272 5.51868 6.12662 5.47336L6 5.41786C6.30947 5.25538 6.61297 5.10815 6.94678 5.00169Z" fill="#A56F28"/>
<path d="M7.38154 11.4446C5.4793 11.1028 4.21396 9.28399 4.55574 7.38175C4.89723 5.47951 6.71606 4.21417 8.6186 4.55565C7.35034 4.3279 6.13778 5.17126 5.91002 6.43952C5.68227 7.70778 6.52564 8.92034 7.79389 9.14809L7.38154 11.4443V11.4446Z" fill="white"/>
<path d="M8.61987 4.5C10.5221 4.84149 11.7874 6.66062 11.4457 8.56286C11.1042 10.4651 9.28505 11.7304 7.38281 11.3887C8.65107 11.6164 9.86363 10.773 10.0914 9.50479C10.3191 8.23653 9.47577 7.02397 8.20752 6.79622L8.61987 4.5Z" fill="white"/>
<defs>
<linearGradient id="paint0_linear_1846_266671" x1="11.5" y1="2" x2="0.378384" y2="9.79779" gradientUnits="userSpaceOnUse">
<stop stop-color="#FF8B0F"/>
<stop offset="1" stop-color="#D20F16"/>
</linearGradient>
</defs>
</svg>
