<?xml version="1.0" encoding="UTF-8"?>
<svg id="wallet2Icon" xmlns="http://www.w3.org/2000/svg" width="20" height="20" version="1.1" viewBox="0 0 20 20">
      <path d="M18.3,9.1v1.7c0,.5-.4.8-.8.8h-1.6c-.9,0-1.7-.7-1.8-1.6,0-.5.1-1,.5-1.4.3-.3.7-.5,1.2-.5h1.7c.5,0,.8.4.8.9ZM17.1,13h-1.2c-1.6,0-2.9-1.2-3.1-2.7,0-.9.2-1.7.9-2.3.5-.5,1.3-.9,2.1-.9h1.3c.2,0,.4-.2.4-.4-.2-2-1.5-3.4-3.5-3.6-.2,0-.4,0-.6,0h-7.5c-.2,0-.5,0-.7,0-2.1.3-3.5,1.9-3.5,4.1v5.8c0,2.3,1.9,4.2,4.2,4.2h7.5c2.3,0,3.9-1.5,4.1-3.7,0-.2-.2-.4-.4-.4ZM10.8,8.1h-5c-.3,0-.6-.3-.6-.6s.3-.6.6-.6h5c.3,0,.6.3.6.6s-.3.6-.6.6Z"/>  
</svg>