<?xml version="1.0" encoding="UTF-8"?>
<svg id="whiteGameIcon" xmlns="http://www.w3.org/2000/svg" width="20" height="20" version="1.1" viewBox="0 0 20 20">
      <path d="M6.1,5.3h7.7c2.2,0,4,1.8,4,4v4.6c0,2.2-1.8,4-4,4h-7.7c-2.2,0-4-1.8-4-4v-4.6c0-2.2,1.8-4,4-4ZM12.9,8.7c-.7,0-1.3.6-1.3,1.3h0c0,.1,0,.3,0,.4-.1,0-.2,0-.3,0h0c-.7,0-1.3.6-1.3,1.3s.6,1.3,1.3,1.3.2,0,.3,0c0,.1,0,.2,0,.3h0c0,.8.6,1.3,1.3,1.3s1.3-.6,1.3-1.3,0-.2,0-.4c.1,0,.2,0,.4,0,.7,0,1.3-.6,1.3-1.3s-.6-1.3-1.3-1.3h0c-.1,0-.2,0-.4,0,0-.1,0-.2,0-.4,0-.7-.6-1.3-1.3-1.3ZM12.6,11.7c0-.1,0-.2,0-.4.1,0,.2,0,.3,0s.2,0,.4,0c0,.1,0,.2,0,.4s0,.2,0,.3c-.1,0-.2,0-.4,0s-.2,0-.3,0c0-.1,0-.2,0-.3ZM8,14.1c.3,0,.6-.1.8-.3.4-.4.4-1.2,0-1.6l-.5-.5.5-.5c.4-.4.4-1.2,0-1.6-.4-.4-1.2-.4-1.6,0l-.5.5-.4-.4c-.4-.4-1.2-.4-1.6,0-.4.4-.4,1.2,0,1.6l.4.4-.5.5c-.4.4-.4,1.2,0,1.6.2.2.5.3.8.3s.6-.1.8-.3l.5-.5.5.5c.2.2.5.3.8.3ZM13.9,18.3h-7.8c-2.5,0-4.5-2-4.5-4.5v-4.7c0-2.5,2-4.5,4.5-4.5h7.8c2.5,0,4.5,2,4.5,4.5v4.7c0,2.5-2,4.5-4.5,4.5ZM6.1,5.8c-1.9,0-3.5,1.6-3.5,3.5v4.7c0,1.9,1.6,3.5,3.5,3.5h7.8c1.9,0,3.5-1.6,3.5-3.5v-4.7c0-1.9-1.6-3.5-3.5-3.5h-7.8ZM12.9,15.1c-1,0-1.7-.7-1.8-1.7-.9,0-1.6-.9-1.6-1.8s.7-1.7,1.7-1.8c0-.9.9-1.7,1.8-1.7s1.7.7,1.8,1.7c.9,0,1.7.9,1.7,1.8s-.7,1.7-1.7,1.8c0,.9-.9,1.6-1.8,1.6ZM12.2,12.6v.5c-.1,0-.2.1-.2.2,0,.5.4.8.8.8s.8-.4.8-.8,0-.1,0-.2v-.5c-.1,0-.6-.1-.6-.1-.1,0-.3,0-.4,0h-.5ZM13.9,12.3h.5c.5.3,1.1-.1,1.1-.7s-.4-.8-.8-.8-.2,0-.2,0h-.4c0,.1-.1.6-.1.6,0,0,0,.1,0,.2s0,.1,0,.2v.5ZM11.3,10.8c-.5,0-.8.4-.8.8s.6.9,1.1.8h.5c0-.1.1-.6.1-.6,0,0,0-.1,0-.2s0-.1,0-.2v-.5c-.1,0-.6-.1-.6-.1,0,0-.1,0-.2,0ZM12.2,10.7h.5c.2.2.3.2.4.1h.4c0-.1.1-.6.1-.6,0,0,0-.1,0-.2,0-.5-.4-.8-.8-.8s-.8.4-.8.8,0,.2,0,.2v.5ZM8,14.6c-.4,0-.8-.2-1.1-.5l-.2-.2h-.1c-.6.7-1.7.7-2.3.1-.6-.6-.6-1.7,0-2.3h.1c0-.1,0-.2,0-.2-.3-.3-.5-.7-.5-1.1s.2-.8.5-1.1c.6-.6,1.7-.6,2.3,0h0c0,0,.1,0,.1,0,.6-.6,1.7-.6,2.3,0,.6.6.6,1.7,0,2.3h-.1c0,.1.2.3.2.3.6.6.6,1.7,0,2.3-.3.3-.7.5-1.1.5ZM6.7,12.5l.9.9c.2.2.6.2.9,0,.2-.2.2-.6,0-.9l-.9-.9.8-.8c.2-.2.2-.6,0-.9-.2-.2-.6-.2-.9,0l-.8.8-.8-.8c-.2-.2-.6-.2-.9,0-.1.1-.2.3-.2.4s0,.3.2.4l.8.8-.8.8c-.2.2-.2.6,0,.9.2.2.6.2.9,0l.8-.8ZM10.2,4.4c0,0-.1,0-.2,0s0,0,0,0h0c0-.1,0-.1,0-.1,0,0,.2,0,.2,0ZM9.5,4.1c0,0,0,.1-.1.2h-.2c.1-.3.4-.5.8-.5s.7-.3.7-.7v-.8c0,0,0,0,0,0h0s0,0,0,0c0,0,0,0,0,0v.8c0,.5-.4.8-.9.8s-.4,0-.5.2ZM9.4,5v-.2s-1,0-1,0l.3-.7c.2-.5.7-.9,1.3-.9s.2,0,.2-.2v-.8c0-.3.3-.6.6-.6h.2l.2.2c.1.1.2.3.2.4v.8c0,.5-.3.9-.6,1.1l.5.5h-.9c0,.2-.2.2-.3.2h-.6ZM10,4.6h-.1c0,.2,0,.2.1.2v-.2Z"/>
</svg>