<?xml version="1.0" encoding="UTF-8"?>
<svg id="yellowWalletIcon" xmlns="http://www.w3.org/2000/svg" width="40" height="40" version="1.1" viewBox="0 0 40 40">
      <path d="M36.7,18.3v3.4c0,.9-.7,1.7-1.7,1.7h-3.3c-1.8,0-3.5-1.3-3.6-3.1-.1-1.1.3-2,1-2.7.6-.6,1.5-1,2.4-1h3.5c.9,0,1.7.8,1.7,1.7ZM34.1,25.9h-2.4c-3.2,0-5.8-2.4-6.1-5.4-.2-1.7.5-3.5,1.8-4.7,1.1-1.1,2.5-1.7,4.1-1.7h2.6c.5,0,.9-.4.8-.9-.4-4.1-3-6.8-7-7.3-.4,0-.8,0-1.2,0h-15c-.5,0-.9,0-1.4.1-4.2.5-7,3.7-7,8.2v11.7c0,4.6,3.7,8.3,8.3,8.3h15c4.7,0,7.9-2.9,8.3-7.4,0-.5-.3-.9-.8-.9ZM21.7,16.2h-10c-.7,0-1.2-.6-1.2-1.2s.6-1.2,1.2-1.2h10c.7,0,1.2.6,1.2,1.2s-.6,1.2-1.2,1.2Z"/>
</svg>