<?xml version="1.0" encoding="utf-8"?>
<svg xmlns="http://www.w3.org/2000/svg" xmlns:xlink="http://www.w3.org/1999/xlink">

<symbol id="jump-rope" viewBox="0 0 24 24">
  <path fill-rule="evenodd" clip-rule="evenodd" d="M14.2114 4.09371C14.5619 4.07303 14.9215 4.09351 15.285 4.1596C17.4048 4.54502 18.9651 6.37819 19.0003 8.51648C19.0005 8.52546 19.0007 8.53441 19.0011 8.54333C19.0004 8.55902 19 8.5748 19 8.59067V9.50003H21V8.59067C21 8.57617 20.9997 8.56175 20.9991 8.54741C21.0001 8.52629 21.0004 8.505 21 8.48357C20.949 5.38361 18.6939 2.7466 15.6428 2.19186C14.3623 1.95904 13.1083 2.11957 12 2.57969C10.8917 2.11959 9.63771 1.95906 8.35718 2.19189C5.27092 2.75303 3 5.44482 3 8.59067V9.50003H5V8.59067C5 6.42036 6.57082 4.54947 8.71496 4.15963C9.07847 4.09353 9.43807 4.07305 9.78859 4.09373C8.68968 5.24032 8 6.79683 8 8.54149C8 8.5415 8 8.54151 8 8.54152V11.0005C8 13.2096 9.79086 15.0005 12 15.0005C14.2091 15.0005 16 13.2096 16 11.0005V8.54152C16 6.79683 15.3103 5.2403 14.2114 4.09371ZM12 4.83564C10.8017 5.6304 10 6.98057 10 8.54149C10 8.5415 10 8.54151 10 8.54152V11.0005C10 12.1051 10.8954 13.0005 12 13.0005C13.1046 13.0005 14 12.1051 14 11.0005V8.54152C14 6.98058 13.1983 5.6304 12 4.83564ZM2.64459 11C1.92074 11 1.47365 11.7897 1.84606 12.4104C2.26993 13.1168 2.44764 13.9439 2.35138 14.7621L1.76264 19.7663C1.62276 20.9553 2.55175 22 3.74894 22H4.25076C5.44795 22 6.37695 20.9553 6.23706 19.7663L5.64833 14.7621C5.55207 13.9439 5.72977 13.1168 6.15364 12.4104C6.52605 11.7897 6.07896 11 5.35512 11H2.64459ZM18.6446 11C17.9207 11 17.4736 11.7897 17.8461 12.4104C18.2699 13.1168 18.4476 13.9439 18.3514 14.7621L17.7626 19.7663C17.6228 20.9553 18.5518 22 19.7489 22H20.2508C21.448 22 22.3769 20.9553 22.2371 19.7663L21.6483 14.7621C21.5521 13.9439 21.7298 13.1168 22.1536 12.4104C22.5261 11.7897 22.079 11 21.3551 11H18.6446Z"/>
</symbol>

<symbol id="dumbbells" viewBox="0 0 24 24">
  <path fill-rule="evenodd" clip-rule="evenodd" d="M19.4247 1.74626C18.6437 0.965216 17.3774 0.965217 16.5963 1.74627L16.2428 2.09986L21.8996 7.75672L22.2532 7.40312C23.0342 6.62207 23.0342 5.35574 22.2532 4.57469L19.4247 1.74626ZM11.2931 2.09975C12.0694 1.32338 13.3253 1.31873 14.1074 2.08581L21.9136 9.892C22.6807 10.6741 22.676 11.93 21.8997 12.7064C21.1186 13.4874 19.8523 13.4874 19.0712 12.7064L16.9499 10.585L16.9499 10.5851L13.4143 7.04957L13.4144 7.0495L11.2931 4.92818C10.512 4.14713 10.512 2.8808 11.2931 2.09975ZM12.3537 8.11023L8.11102 12.3529L11.6466 15.8884L15.8892 11.6458L12.3537 8.11023ZM2.10068 11.2921C2.87707 10.5157 4.13298 10.5111 4.91509 11.2783L12.7212 19.0843C13.4883 19.8664 13.4837 21.1223 12.7073 21.8987C11.9262 22.6798 10.6599 22.6798 9.87886 21.8987L8.81841 20.8383L8.81834 20.8384L3.16149 15.1815L3.16156 15.1814L2.10068 14.1206C1.31963 13.3395 1.31964 12.0732 2.10068 11.2921ZM2.10083 16.2422L1.74768 16.5953C0.966626 17.3764 0.966627 18.6427 1.74768 19.4237L4.5761 22.2522C5.35715 23.0332 6.62348 23.0332 7.40453 22.2522L7.75768 21.899L2.10083 16.2422Z"/>
</symbol>

<symbol id="kettlebell" viewBox="0 0 24 24">
  <path fill-rule="evenodd" clip-rule="evenodd" d="M7.65718 4.87886C7.66672 4.91202 7.68542 4.95446 7.71879 5.00035L8.82117 6.51612C7.84647 6.8427 6.93874 7.31533 6.12397 7.90802L5.29258 6.76487C4.33001 5.44133 4.31195 3.18256 6.26103 2.22191C7.51427 1.60421 9.4086 1.00049 12.0005 1.00049C14.5924 1.00049 16.4867 1.60421 17.74 2.22191C19.6891 3.18256 19.671 5.44133 18.7084 6.76487L17.8769 7.90824C17.0621 7.31553 16.1544 6.84286 15.1798 6.51624L16.2822 5.00035C16.3156 4.95446 16.3343 4.91201 16.3438 4.87886C15.4747 4.46244 14.0534 4.00049 12.0005 4.00049C9.94765 4.00049 8.52631 4.46244 7.65718 4.87886ZM16.8944 9.04967C16.928 9.07335 16.9614 9.09728 16.9946 9.12143L16.9946 9.12144C19.119 10.6667 20.5 13.172 20.5 16C20.5 18.2497 19.626 20.2953 18.1991 21.8157C17.8447 22.1933 17.3366 22.375 16.8187 22.375H7.18128C6.66341 22.375 6.15533 22.1933 5.80094 21.8157C4.37398 20.2953 3.5 18.2497 3.5 16C3.5 11.3056 7.30558 7.5 12 7.5C13.7304 7.5 15.3399 8.01704 16.6827 8.90506C16.754 8.95222 16.8246 9.00043 16.8944 9.04967ZM12 13.25C10.4812 13.25 9.25 14.4812 9.25 16C9.25 17.5188 10.4812 18.75 12 18.75C13.5188 18.75 14.75 17.5188 14.75 16C14.75 14.4812 13.5188 13.25 12 13.25ZM7.75 16C7.75 13.6528 9.65279 11.75 12 11.75C14.3472 11.75 16.25 13.6528 16.25 16C16.25 18.3472 14.3472 20.25 12 20.25C9.65279 20.25 7.75 18.3472 7.75 16Z"/>
</symbol>

<symbol id="hand-grip" viewBox="0 0 24 24">
  <path fill-rule="evenodd" clip-rule="evenodd" d="M12 10.5C13.3874 10.5 14.6281 9.87215 15.4536 8.88509L16.298 11.756L18.2304 11.2382L16.4596 5.21761C16.4447 5.16679 16.426 5.11806 16.4041 5.07162C15.9763 3.03176 14.167 1.5 12 1.5C9.51471 1.5 7.49999 3.51472 7.49999 6C7.49999 8.48528 9.51471 10.5 12 10.5ZM12 8.5C13.3807 8.5 14.5 7.38071 14.5 6C14.5 4.61929 13.3807 3.5 12 3.5C10.6193 3.5 9.49999 4.61929 9.49999 6C9.49999 7.38071 10.6193 8.5 12 8.5ZM3.82887 13.3072C3.97182 12.7737 4.52015 12.4571 5.05362 12.6L5.3465 12.6785L6.56355 8.54056C6.92114 9.30436 7.43494 9.98042 8.06383 10.5276L7.27892 13.1963L7.46843 13.2471C8.0019 13.39 8.31848 13.9384 8.17554 14.4718L6.10499 22.1992C5.96205 22.7327 5.41371 23.0493 4.88024 22.9064L2.46543 22.2593C1.93196 22.1164 1.61538 21.568 1.75832 21.0346L3.82887 13.3072ZM18.9464 12.5991C19.4798 12.4561 20.0282 12.7727 20.1711 13.3062L22.2417 21.0336C22.3846 21.5671 22.068 22.1154 21.5346 22.2583L19.1197 22.9054C18.5863 23.0483 18.0379 22.7317 17.895 22.1983L15.8244 14.4709C15.6815 13.9374 15.9981 13.3891 16.5315 13.2461L18.9464 12.5991Z"/>
</symbol>

<symbol id="elliptical" viewBox="0 0 24 24">
    <path fill-rule="evenodd" clip-rule="evenodd" d="M23.7682 3.64021C24.1218 3.21593 24.0645 2.58537 23.6402 2.2318C23.2159 1.87824 22.5853 1.93556 22.2318 2.35984L20.0316 5.00003H19.0233C19.0078 4.99966 18.9924 4.99966 18.977 5.00003H16C15.4477 5.00003 15 5.44774 15 6.00003C15 6.55231 15.4477 7.00003 16 7.00003H17.557L15.1006 13.5505L10.0154 11.0079C9.39122 10.6958 8.74836 10.5135 8.11108 10.4461L9.12045 8.0909C9.54465 7.1011 8.8186 6.00003 7.74173 6.00003H5.5C4.94772 6.00003 4.5 6.44774 4.5 7.00003C4.5 7.55231 4.94772 8.00003 5.5 8.00003H6.98346L6.08085 10.1061C6.00671 10.2791 5.98515 10.4614 6.00903 10.6352C3.77005 11.2866 2 13.3301 2 15.9617C2 19.0205 4.47967 21.5002 7.53851 21.5002H19.2188C20.7548 21.5002 22 20.255 22 18.719C22 17.6656 21.4048 16.7026 20.4626 16.2315L16.8944 14.4474C16.9099 14.4164 16.9239 14.3843 16.9363 14.3511L19.693 7.00003H20.2658C20.711 7.00003 21.1332 6.80229 21.4181 6.4603L23.7682 3.64021ZM6.25 16.0002C6.25 15.3098 6.80964 14.7502 7.5 14.7502C8.19036 14.7502 8.75 15.3098 8.75 16.0002C8.75 16.6905 8.19036 17.2502 7.5 17.2502C6.80964 17.2502 6.25 16.6905 6.25 16.0002ZM7.5 13.2502C5.98122 13.2502 4.75 14.4814 4.75 16.0002C4.75 17.519 5.98122 18.7502 7.5 18.7502C8.14844 18.7502 8.74446 18.5257 9.21463 18.1503C9.23201 18.168 9.25042 18.185 9.26986 18.2012L10.0199 18.8262C10.1546 18.9385 10.3245 19 10.5 19H12C12.4142 19 12.75 18.6642 12.75 18.25C12.75 17.8358 12.4142 17.5 12 17.5H10.7715L10.2301 17.0488C10.1834 17.0098 10.1332 16.9775 10.0809 16.9518C10.1903 16.6552 10.25 16.3347 10.25 16.0002C10.25 14.4814 9.01878 13.2502 7.5 13.2502Z"/>
</symbol>

<symbol id="treadmill" viewBox="0 0 24 24">
  <path fill-rule="evenodd" clip-rule="evenodd" d="M19.7399 2.32733C20.1114 2.73599 20.0813 3.36844 19.6727 3.73995L17.0851 6.09233L19.9292 14.6247C21.4112 15.0317 22.5 16.3887 22.5 18C22.5 19.933 20.933 21.5 19 21.5H4.14239C2.68304 21.5 1.5 20.317 1.5 18.8576C1.5 17.5143 2.50778 16.3848 3.84236 16.2323L17.8242 14.6344L15.4671 7.56316L14.3157 8.60992C14.0396 8.86092 13.6798 9.00001 13.3067 9.00001H9.5C8.94772 9.00001 8.5 8.55229 8.5 8.00001C8.5 7.44772 8.94772 7.00001 9.5 7.00001H13.1134L18.3273 2.26007C18.736 1.88856 19.3684 1.91868 19.7399 2.32733ZM18.9732 16.0002C17.881 16.0145 17 16.9044 17 18C17 19.1046 17.8954 20 19 20C20.1046 20 21 19.1046 21 18C21 16.9044 20.1191 16.0146 19.027 16.0002C19.009 16.0007 18.9911 16.0007 18.9732 16.0002ZM18 18C18 17.4477 18.4477 17 19 17C19.5523 17 20 17.4477 20 18C20 18.5523 19.5523 19 19 19C18.4477 19 18 18.5523 18 18Z"/>
</symbol>

<symbol id="scale" viewBox="0 0 24 24">
  <path fill-rule="evenodd" clip-rule="evenodd" d="M2.5 5.5C2.5 3.84315 3.84315 2.5 5.5 2.5H18.5C20.1569 2.5 21.5 3.84315 21.5 5.5V18.5C21.5 20.1569 20.1569 21.5 18.5 21.5H5.5C3.84315 21.5 2.5 20.1569 2.5 18.5V5.5ZM12 6.75C10.2804 6.75 8.81282 7.13578 7.80286 7.50551C7.16804 7.7379 6.75 8.39155 6.75 9.19857V12.2338C6.75 12.3208 6.79704 12.4276 6.93139 12.5127C7.06942 12.6002 7.23093 12.617 7.35424 12.5726C8.20138 12.2674 9.3283 11.9555 10.6452 11.82L9.37596 9.91603C9.1462 9.57138 9.23933 9.10573 9.58397 8.87596C9.92862 8.6462 10.3943 8.73933 10.624 9.08397L12.4056 11.7563C14.132 11.8099 15.6015 12.1964 16.6458 12.5726C16.7691 12.617 16.9306 12.6002 17.0686 12.5127C17.203 12.4276 17.25 12.3208 17.25 12.2338V9.19857C17.25 8.39155 16.832 7.7379 16.1971 7.50551C15.1872 7.13578 13.7196 6.75 12 6.75ZM12.0112 13.25C13.6923 13.2516 15.1318 13.6216 16.1374 13.9838C16.7454 14.2028 17.3881 14.0861 17.8715 13.7798C18.3585 13.4712 18.75 12.9241 18.75 12.2338V9.19857C18.75 7.89801 18.0571 6.58904 16.7128 6.09692C15.5851 5.68411 13.9398 5.25 12 5.25C10.0602 5.25 8.41489 5.68411 7.28721 6.09692C5.9429 6.58904 5.25 7.89801 5.25 9.19857V12.2338C5.25 12.9241 5.64151 13.4712 6.12854 13.7798C6.61188 14.0861 7.25457 14.2028 7.86256 13.9838C8.86843 13.6215 10.3083 13.2515 11.9897 13.25"/>
</symbol>

<symbol id="yoga-mat" viewBox="0 0 24 24">
  <path fill-rule="evenodd" clip-rule="evenodd" d="M16.1358 12.1351C17.8932 10.3777 17.8932 7.5285 16.1358 5.77114C14.3785 4.01379 11.5292 4.01379 9.77186 5.77114L3.05435 12.4887C1.29699 14.246 1.29699 17.0953 3.05435 18.8526C4.31298 20.1113 6.1317 20.4684 7.70824 19.9242C7.71961 19.9208 7.73118 19.9171 7.74295 19.9129C8.35426 19.6961 8.92806 19.343 9.41725 18.8539C9.41924 18.8519 9.42119 18.8499 9.42309 18.8478L14.0161 14.2548L14.0138 14.2573L14.7269 13.5442C14.7281 13.543 14.7292 13.5418 14.7303 13.5407L16.1358 12.1351ZM6.23584 13.9203C5.26934 13.9203 4.48584 14.7038 4.48584 15.6703C4.48584 16.6368 5.26934 17.4203 6.23584 17.4203C7.20234 17.4203 7.98584 16.6368 7.98584 15.6703C7.98584 14.7038 7.20234 13.9203 6.23584 13.9203ZM2.98584 15.6703C2.98584 13.8754 4.44091 12.4203 6.23584 12.4203C8.03077 12.4203 9.48584 13.8754 9.48584 15.6703C9.48584 17.4652 8.03077 18.9203 6.23584 18.9203C4.44091 18.9203 2.98584 17.4652 2.98584 15.6703ZM10.597 20.2174C10.4437 20.2174 10.3695 20.023 10.4779 19.9145L17.1954 13.197C17.1959 13.1965 17.1965 13.1963 17.1971 13.1963L22.1536 13.1963C23.0463 13.1963 23.4917 14.277 22.8582 14.9059L17.8014 19.927C17.6141 20.113 17.3608 20.2174 17.0968 20.2174L10.597 20.2174Z"/>
</symbol>

<symbol id="soccer" viewBox="0 0 24 24">
  <path fill-rule="evenodd" clip-rule="evenodd" d="M9.26816 1.85893C6.76181 2.53246 4.62592 4.1104 3.23191 6.22135L5.30267 6.78223L9.26816 3.90114V1.85893ZM2.47718 7.57097C1.85022 8.91673 1.50012 10.4175 1.50012 12C1.50012 13.1358 1.68047 14.2295 2.01409 15.254L4.38372 15.5031L6.36403 12.8307L4.86523 8.2178L2.47718 7.57097ZM4.64458 19.4931C3.85614 18.719 3.18934 17.8215 2.67547 16.8318L4.11098 16.9827L4.64458 19.4931ZM6.48493 20.9366C8.08772 21.9279 9.97711 22.5 12.0001 22.5C12.5891 22.5 13.1668 22.4515 13.7293 22.3583C13.5423 22.1816 13.4557 21.917 13.5109 21.6573L14.6118 16.4781L12.4719 13.7166H7.5745L5.53522 16.4686L6.48493 20.9366ZM20.9821 17.4412C19.7788 19.4233 17.9379 20.9754 15.744 21.8129L15.0914 21.4361L16.0381 16.9827L20.566 16.5068L20.9821 17.4412ZM21.8384 15.6767C22.2662 14.5324 22.5001 13.2935 22.5001 12C22.5001 11.1375 22.3961 10.2994 22.2 9.49734L18.3216 7.36435L15.1711 8.21778L13.6755 12.8209L15.7547 15.5042L20.9512 14.958C21.2743 14.9241 21.5826 15.1021 21.7147 15.3989L21.8384 15.6767ZM19.8222 4.99525C20.456 5.70253 20.9953 6.49626 21.4202 7.35658L19.3524 6.21935L19.8222 4.99525ZM18.647 3.87129C16.8367 2.38923 14.5222 1.5 12.0001 1.5C11.5834 1.5 11.1723 1.52428 10.7682 1.57151V3.90114L14.7336 6.78223L17.854 5.93695L18.647 3.87129ZM6.33477 7.88647L10.0182 5.21033L13.7016 7.88647L12.2946 12.2166H7.7417L6.33477 7.88647Z"/>
</symbol>

<symbol id="basketball" viewBox="0 0 24 24">
  <path fill-rule="evenodd" clip-rule="evenodd" d="M9.00587 2.02128C8.98471 1.97681 8.93416 1.95454 8.88712 1.96912C7.09964 2.52322 5.51651 3.54195 4.27891 4.88414C4.23889 4.92755 4.24577 4.99593 4.29276 5.03168C5.51815 5.96385 6.49022 7.21187 7.0876 8.65437C7.10601 8.69882 7.15316 8.72434 7.20036 8.71506C8.38553 8.48216 9.60105 8.33385 10.8404 8.27669C10.9002 8.27393 10.9445 8.21971 10.9346 8.16062C10.5754 5.99878 9.91792 3.93776 9.00587 2.02128ZM3.22301 6.23472C3.25424 6.18726 3.31888 6.17595 3.36422 6.21018C4.31533 6.92823 5.08391 7.87522 5.58803 8.96919C5.61374 9.02499 5.58242 9.09007 5.52312 9.10611C4.22622 9.45681 2.97154 9.91029 1.76836 10.4573C1.69627 10.49 1.61625 10.4305 1.62858 10.3523C1.86533 8.85015 2.42058 7.45386 3.22301 6.23472ZM6.11674 10.6093C6.10584 10.5531 6.04958 10.5184 5.99434 10.5331C4.44648 10.9458 2.96216 11.5142 1.55919 12.2205C1.52479 12.2379 1.50346 12.2736 1.50458 12.3121C1.56327 14.3227 2.18721 16.1916 3.22301 17.7653C3.25424 17.8127 3.3189 17.824 3.36424 17.7898C5.11708 16.4665 6.25 14.3655 6.25 12C6.25 11.5243 6.20419 11.0594 6.11674 10.6093ZM20.4777 5.96717C20.5223 5.93743 20.5823 5.94885 20.6129 5.99274C21.5039 7.26775 22.1189 8.74979 22.3715 10.3523C22.3838 10.4305 22.3038 10.49 22.2317 10.4573C20.8919 9.84816 19.4882 9.355 18.0334 8.99059C17.9724 8.97531 17.9401 8.90829 17.9674 8.85165C18.533 7.68033 19.4043 6.6843 20.4777 5.96717ZM19.5148 4.66666C19.558 4.71092 19.5502 4.78331 19.4995 4.81869C18.1613 5.75223 17.0963 7.05025 16.4484 8.56884C16.4299 8.61205 16.3842 8.63706 16.3379 8.62888C15.1053 8.41098 13.8413 8.28429 12.5529 8.25606C12.5042 8.25499 12.4632 8.21908 12.4557 8.17092C12.1044 5.90884 11.4468 3.74807 10.5265 1.73236C10.4987 1.67152 10.537 1.6009 10.6033 1.59209C11.0602 1.53135 11.5265 1.5 12 1.5C14.9457 1.5 17.608 2.71296 19.5148 4.66666ZM20.4777 18.0328C20.5222 18.0626 20.5823 18.0512 20.6129 18.0073C21.7468 16.3847 22.4338 14.4268 22.4955 12.3121C22.4966 12.2736 22.4753 12.2379 22.4409 12.2205C20.8943 11.4419 19.2488 10.8309 17.5283 10.4112C17.4742 10.3981 17.4198 10.4318 17.4083 10.4863C17.3046 10.9745 17.25 11.4809 17.25 12C17.25 14.516 18.5317 16.7327 20.4777 18.0328ZM15.8564 10.0683C15.9128 10.0778 15.9495 10.1326 15.9377 10.1886C15.8147 10.773 15.75 11.379 15.75 12C15.75 14.9732 17.2329 17.6001 19.4995 19.1813C19.5502 19.2167 19.558 19.2891 19.5148 19.3333C17.608 21.287 14.9457 22.5 12 22.5C11.5265 22.5 11.0602 22.4686 10.6033 22.4079C10.537 22.3991 10.4987 22.3285 10.5265 22.2677C11.9545 19.1399 12.7502 15.6629 12.7502 12C12.7502 11.2828 12.7196 10.5727 12.6599 9.87092C12.6548 9.81128 12.7026 9.76034 12.7624 9.76227C13.8129 9.79611 14.8457 9.89962 15.8564 10.0683ZM11.2502 12C11.2502 11.2783 11.2173 10.5643 11.1529 9.85933C11.1481 9.8066 11.1028 9.76693 11.0499 9.76906C9.89603 9.81544 8.76378 9.94592 7.65913 10.1545C7.60417 10.1649 7.5687 10.2185 7.57968 10.2734C7.6914 10.8316 7.75 11.4089 7.75 12C7.75 14.8434 6.39371 17.3701 4.29277 18.9683C4.24578 19.0041 4.23889 19.0724 4.27891 19.1159C5.51651 20.458 7.09964 21.4768 8.88712 22.0309C8.93416 22.0455 8.9847 22.0232 9.00587 21.9787C10.4448 18.955 11.2502 15.5716 11.2502 12Z"/>
</symbol>

<symbol id="basketball-hoop" viewBox="0 0 24 24">
  <path fill-rule="evenodd" clip-rule="evenodd" d="M22.5 7.26089V15.5C22.5 16.6046 21.6046 17.5 20.5 17.5H17.9162C17.8554 17.5 17.8086 17.4461 17.8172 17.3859L18.4849 12.7121C18.4903 12.6747 18.4942 12.6373 18.4967 12.5999C18.5004 12.5448 18.5448 12.5 18.6 12.5H20C20.4142 12.5 20.75 12.1642 20.75 11.75C20.75 11.3358 20.4142 11 20 11H17H7H4C3.58579 11 3.25 11.3358 3.25 11.75C3.25 12.1642 3.58579 12.5 4 12.5H5.39999C5.45522 12.5 5.49964 12.5448 5.50333 12.5999C5.50583 12.6373 5.50973 12.6747 5.51508 12.7121L6.18275 17.3859C6.19136 17.4461 6.14461 17.5 6.08376 17.5H3.5C2.39543 17.5 1.5 16.6046 1.5 15.5V7.26089C1.5 6.4402 1.74943 5.63394 2.32139 5.04538C3.73164 3.59422 6.95784 1 12 1C17.0422 1 20.2684 3.59422 21.6786 5.04538C22.2506 5.63394 22.5 6.4402 22.5 7.26089ZM9 6.75C8.86193 6.75 8.75 6.86193 8.75 7V8.5C8.75 8.91421 8.41421 9.25 8 9.25C7.58579 9.25 7.25 8.91421 7.25 8.5V7C7.25 6.0335 8.0335 5.25 9 5.25H15C15.9665 5.25 16.75 6.0335 16.75 7V8.5C16.75 8.91421 16.4142 9.25 16 9.25C15.5858 9.25 15.25 8.91421 15.25 8.5V7C15.25 6.86193 15.1381 6.75 15 6.75H9ZM7.57627 12.5H9.67793C9.70445 12.5 9.72989 12.5105 9.74864 12.5293L16.0544 18.835C16.0766 18.8573 16.0871 18.8887 16.0826 18.9198L15.6412 22.01C15.5946 22.3359 15.2669 22.5076 14.9883 22.4149C14.975 22.4105 14.9631 22.4026 14.9532 22.3926L7.34653 14.786C7.33123 14.7707 7.32131 14.7508 7.31825 14.7294L7.08129 13.0707C7.03826 12.7695 7.27199 12.5 7.57627 12.5ZM16.9182 13.0707L16.3832 16.8162C16.3715 16.8978 16.2717 16.931 16.2135 16.8728L12.0114 12.6707C11.9484 12.6077 11.993 12.5 12.0821 12.5H16.4233C16.7275 12.5 16.9613 12.7695 16.9182 13.0707ZM7.71894 17.5343C7.70535 17.4391 7.8207 17.3815 7.88865 17.4494L10.8988 20.4596C10.9378 20.4986 10.9378 20.5619 10.8988 20.601L9.20687 22.2929C8.91552 22.5842 8.41661 22.4179 8.35834 22.0101L7.71894 17.5343Z"/>
</symbol>

<symbol id="volleyball" viewBox="0 0 24 24">
  <path fill-rule="evenodd" clip-rule="evenodd" d="M22.494 12.3592C19.8895 9.52584 16.1522 7.75015 12.0003 7.75015C11.8124 7.75015 11.6255 7.75378 11.4395 7.76097C11.5368 8.9511 11.8671 10.1394 12.4492 11.2594C14.2158 11.332 15.874 11.8314 17.3217 12.6577C19.0134 13.6232 20.4181 15.0357 21.3745 16.7346C22.0436 15.4124 22.4412 13.9295 22.494 12.3592ZM20.4509 18.2327C18.5386 20.8213 15.4653 22.5 12 22.5C6.20101 22.5 1.5 17.799 1.5 12C1.5 6.20101 6.20101 1.5 12 1.5C11.9999 1.5 12.0001 1.5 12 1.5C11.8027 1.5 11.607 1.50544 11.4124 1.51618C11.3916 1.55145 11.3709 1.58683 11.3505 1.62231C10.3982 3.27408 9.89946 5.15586 9.90898 7.06304C9.91729 8.72981 10.3139 10.4155 11.1342 11.9817C10.4553 13.0458 9.59145 13.926 8.60943 14.6054C8.51019 14.4479 8.41357 14.2878 8.31965 14.1251C6.24307 10.5284 5.91266 6.40267 7.06539 2.72961C6.39669 3.08632 5.77112 3.51327 5.19853 4.00061C4.49922 7.59727 5.04475 11.4529 7.02061 14.8751C7.11451 15.0378 7.21088 15.1981 7.30966 15.3562C5.78234 16.0801 4.07251 16.3794 2.375 16.2023C2.61185 16.744 2.8931 17.2619 3.21415 17.7514C5.16335 17.7724 7.08857 17.262 8.77029 16.2798C10.2096 15.4392 11.4711 14.2529 12.4173 12.7594C13.6784 12.8153 14.8726 13.1233 15.952 13.6342C15.8652 13.7989 15.7748 13.9627 15.6809 14.1254C15.466 14.4977 15.2369 14.8564 14.9948 15.2014C12.8961 18.1916 9.80894 20.1573 6.44076 20.909C7.07496 21.3056 7.75454 21.6364 8.46996 21.8917C11.5198 20.8425 14.2613 18.8574 16.2225 16.0631C16.49 15.682 16.7429 15.286 16.9799 14.8754C17.0738 14.7127 17.1645 14.549 17.252 14.3844C18.6419 15.3447 19.7555 16.6751 20.4509 18.2327ZM13.1728 1.56477C17.7934 2.0783 21.5092 5.59018 22.3305 10.1108C19.5652 7.70604 15.9527 6.25015 12.0003 6.25015C11.8125 6.25015 11.6255 6.25344 11.4393 6.25996C11.5502 4.89396 11.9631 3.56289 12.65 2.37146C12.8096 2.09461 12.984 1.82527 13.1728 1.56477Z"/>
</symbol>

<symbol id="tennis" viewBox="0 0 24 24">
  <path fill-rule="evenodd" clip-rule="evenodd" d="M1.5644 10.8306C2.10354 5.96595 5.96609 2.10352 10.8308 1.56458C11.1022 2.32573 11.25 3.14555 11.25 3.99989C11.25 8.00396 8.00406 11.2499 3.99999 11.2499C3.14555 11.2499 2.32562 11.1021 1.5644 10.8306ZM12.75 3.99989C12.75 3.13389 12.6242 2.29728 12.3899 1.50732C17.8788 1.70767 22.2924 6.12124 22.4929 11.6101C21.7028 11.3757 20.8661 11.2499 20 11.2499C15.1675 11.2499 11.25 15.1674 11.25 19.9999C11.25 20.8661 11.3759 21.703 11.6103 22.4931C6.1211 22.2929 1.70722 17.8789 1.50708 12.3897C2.29713 12.6241 3.13387 12.7499 3.99999 12.7499C8.83248 12.7499 12.75 8.83238 12.75 3.99989ZM22.4357 13.1692C21.8968 18.0341 18.0342 21.8968 13.1694 22.4358C12.8979 21.6745 12.75 20.8545 12.75 19.9999C12.75 15.9958 15.9959 12.7499 20 12.7499C20.8545 12.7499 21.6744 12.8977 22.4357 13.1692Z"/>
</symbol>

<symbol id="tennis-racket" viewBox="0 0 24 24">
  <path fill-rule="evenodd" clip-rule="evenodd" d="M19.1163 3.47517C18.6392 3.19741 18.1028 3.01652 17.5349 2.93531L16.0264 4.44381L14.8416 3.25908C14.3676 3.43787 13.9001 3.68155 13.4527 3.9915L14.9657 5.50447L13.1979 7.27224L11.6851 5.75941C11.3752 6.20684 11.1316 6.67444 10.9529 7.14852L12.1373 8.3329L10.6296 9.84061C10.7108 10.4085 10.8917 10.945 11.1694 11.4221L13.1979 9.39356L14.6122 10.8078L12.5839 12.8361C13.0611 13.1137 13.5977 13.2945 14.1658 13.3755L15.6728 11.8684L16.8563 13.0519C17.3304 12.8732 17.798 12.6296 18.2454 12.3197L16.7335 10.8078L18.5012 9.04001L20.0133 10.5521C20.3233 10.1048 20.567 9.63723 20.7458 9.16321L19.5619 7.97935L21.0698 6.4715C20.9887 5.90343 20.808 5.36688 20.5303 4.88962L18.5012 6.91869L17.087 5.50447L19.1163 3.47517ZM20.9761 3.02877C18.4557 0.508403 14.1749 0.991076 11.4301 3.73588C9.90043 5.26558 9.07333 7.27235 9.07709 9.18559C8.9028 10.3663 8.5251 11.927 8.1287 13.2643C7.92738 13.9435 7.72517 14.5517 7.5479 15.0123C7.45894 15.2434 7.38016 15.4271 7.31469 15.5599C7.27292 15.6446 7.24634 15.688 7.23627 15.7045C7.23519 15.7063 7.2343 15.7077 7.2336 15.7089C7.23263 15.7105 7.23203 15.7115 7.2318 15.7121L5.76682 17.1736C5.7416 17.1753 5.71621 17.178 5.69067 17.1816L4.86571 17.2995C4.65152 17.3301 4.45302 17.4293 4.30003 17.5823L1.70708 20.1752C1.31655 20.5658 1.31655 21.1989 1.70708 21.5895L2.41418 22.2966C2.80471 22.6871 3.43787 22.6871 3.8284 22.2966L6.42135 19.7036C6.57434 19.5506 6.67359 19.3521 6.70419 19.1379L6.82204 18.313C6.82595 18.2856 6.82873 18.2584 6.83041 18.2313L8.29229 16.7729C8.29292 16.7727 8.29542 16.7712 8.30013 16.7683C8.31659 16.7583 8.36002 16.7317 8.44473 16.6899C8.57749 16.6245 8.7612 16.5457 8.99234 16.4567C9.4529 16.2794 10.0611 16.0772 10.7403 15.8759C12.0771 15.4797 13.637 15.1022 14.8174 14.9278C16.7312 14.932 18.7388 14.1049 20.269 12.5747C23.0138 9.82991 23.4964 5.54914 20.9761 3.02877ZM9.56685 13.6906C9.69726 13.2506 9.8267 12.7841 9.94862 12.3113C10.1649 12.6561 10.4227 12.9814 10.723 13.2818C11.0233 13.5821 11.3486 13.8397 11.6932 14.056C11.2204 14.1779 10.7539 14.3074 10.314 14.4378C9.92958 14.5517 9.5614 14.6676 9.22334 14.7813C9.33703 14.4432 9.4529 14.075 9.56685 13.6906ZM16.0264 6.56513L14.2586 8.3329L15.6728 9.74711L17.4406 7.97935L16.0264 6.56513Z"/>
</symbol>

<symbol id="badminton" viewBox="0 0 24 24">
    <path fill-rule="evenodd" clip-rule="evenodd" d="M3.74356 14.189L5.03786 15.4833L13.0225 5.27282C13.0086 4.55676 12.7127 3.7128 11.8227 2.82284C9.34652 0.346733 7.38031 2.62242 7.38031 2.62242L3.74356 14.189ZM2.97954 15.5463C1.13093 17.7068 1.16539 19.7838 2.61022 21.2294C4.05507 22.675 6.08973 22.6662 8.24395 20.8105L2.97954 15.5463ZM9.6005 20.0458L21.1685 16.4112C21.1685 16.4112 23.4917 14.4917 21.0155 12.0156C20.0941 11.0943 19.222 10.8096 18.4902 10.8154L8.35505 18.8004L9.6005 20.0458ZM17.5187 9.67124C17.5341 9.03205 17.2671 8.26725 16.4193 7.41947C15.5442 6.54432 14.7574 6.28805 14.1059 6.32239L6.10644 16.5518L7.28693 17.7323L17.5187 9.67124Z"/>
</symbol>

<symbol id="badminton-racket" viewBox="0 0 24 24">
  <path fill-rule="evenodd" clip-rule="evenodd" d="M14.9617 5.50255L13.4493 3.99016C13.8967 3.68024 14.3643 3.4366 14.8383 3.25785L16.0224 4.44189L17.5301 2.93421C18.0981 3.01533 18.6346 3.19614 19.1118 3.47384L17.083 5.50255L18.4973 6.91677L20.526 4.88802C20.8037 5.3652 20.9845 5.90167 21.0657 6.46967L19.5579 7.97743L20.7421 9.16158C20.5633 9.63563 20.3197 10.1032 20.0098 10.5506L18.4973 9.03809L16.7295 10.8059L18.242 12.3184C17.7946 12.6283 17.3271 12.872 16.853 13.0507L15.6688 11.8665L14.1609 13.3744C13.593 13.2933 13.0565 13.1124 12.5793 12.8347L14.6082 10.8059L13.194 9.39164L11.1651 11.4205C10.8874 10.9433 10.7066 10.4068 10.6255 9.83877L12.1333 8.33098L10.9492 7.14689C11.128 6.67285 11.3716 6.20529 11.6815 5.7579L13.194 7.27032L14.9617 5.50255ZM20.9721 3.02779C18.4518 0.507426 14.171 0.9901 11.4262 3.7349C8.8775 6.28359 8.27923 10.1566 10.2246 12.7148L6.47403 16.4654C6.44777 16.4671 6.42132 16.4698 6.39472 16.4736L5.56977 16.5914C5.35557 16.622 5.15708 16.7213 5.00408 16.8743L1.70403 20.1743C1.3135 20.5649 1.3135 21.198 1.70403 21.5886L2.41113 22.2957C2.80166 22.6862 3.43482 22.6862 3.82535 22.2957L7.1254 18.9956C7.2784 18.8426 7.37764 18.6441 7.40824 18.4299L7.52609 17.605C7.52986 17.5786 7.53257 17.5525 7.53426 17.5265L11.2852 13.7755C13.8435 15.7207 17.7164 15.1224 20.265 12.5737C23.0098 9.82893 23.4925 5.54816 20.9721 3.02779ZM15.6688 9.7452L14.2546 8.33098L16.0224 6.56321L17.4366 7.97743L15.6688 9.7452Z"/>
</symbol>

<symbol id="table-tennis" viewBox="0 0 24 24">
  <path fill-rule="evenodd" clip-rule="evenodd" d="M15.8144 16.5823C16.7846 15.857 17.6534 14.8856 18.355 13.6703C20.9264 9.21649 19.5188 4.45639 15.6924 2.24726C11.8661 0.0381281 7.07003 1.21649 4.49861 5.67033C3.79697 6.8856 3.39009 8.12367 3.24708 9.3265L9.39116 12.8738L15.8144 16.5823ZM14.34 17.463L8.64116 14.1728L3.22157 11.0438C3.45157 13.5621 4.86478 15.7792 7.14109 17.0934C9.41741 18.4076 12.044 18.523 14.34 17.463ZM5.34493 17.6974L3.19624 20.6949C3.02405 20.9351 3.09667 21.2714 3.35262 21.4192L5.35568 22.5756C5.61537 22.7256 5.94772 22.6148 6.0655 22.339L7.5132 18.9494C7.1329 18.79 6.75785 18.6043 6.39007 18.392C6.02197 18.1794 5.67333 17.9473 5.34493 17.6974ZM19 22.5001C20.3807 22.5001 21.5 21.3808 21.5 20.0001C21.5 18.6194 20.3807 17.5001 19 17.5001C17.6193 17.5001 16.5 18.6194 16.5 20.0001C16.5 21.3808 17.6193 22.5001 19 22.5001Z"/>
</symbol>

<symbol id="baseball-bat" viewBox="0 0 24 24">
  <path fill-rule="evenodd" clip-rule="evenodd" d="M7.88416 18.5594L10.2806 15.3364L6.52681 13.1692L6.07499 14.1979L4.99002 16.8519C5.49541 16.9572 6.01245 17.1505 6.53106 17.4499C7.08268 17.7684 7.52947 18.1454 7.88416 18.5594ZM6.95175 19.8134C6.67583 19.4098 6.29196 19.044 5.78106 18.749C5.31619 18.4806 4.8531 18.3326 4.40615 18.2801L4.40586 18.2809C3.11418 18.1294 1.95741 18.7758 1.28249 19.619C1.10993 19.8346 1.19401 20.1428 1.43316 20.2808L6.62931 23.2808C6.86845 23.4189 7.1774 23.3376 7.27783 23.0804C7.65727 22.1085 7.65276 20.839 6.95157 19.8137L6.95175 19.8134ZM17.1817 6.05508L11.1816 14.1246L7.13367 11.7875L11.1831 2.56772C12.0195 0.663592 14.3245 -0.0917898 16.1256 0.94806C17.934 1.99211 18.4276 4.37943 17.1817 6.05508ZM22 18.5C22 20.433 20.433 22 18.5 22C16.567 22 15 20.433 15 18.5C15 16.567 16.567 15 18.5 15C20.433 15 22 16.567 22 18.5Z"/>
</symbol>

<symbol id="baseball" viewBox="0 0 24 24">
    <path fill-rule="evenodd" clip-rule="evenodd" d="M11.3325 1.52172C8.87192 1.67751 6.45577 2.6956 4.57538 4.57599C2.69499 6.45637 1.67691 8.87253 1.52111 11.3331C2.58742 11.3996 3.66306 11.2823 4.69649 10.9812L4.55488 10.4147C4.45442 10.0129 4.69874 9.6057 5.10058 9.50524C5.50243 9.40477 5.90963 9.64909 6.01009 10.0509L6.10759 10.4409C6.80814 10.1043 7.47507 9.67434 8.08972 9.15099L7.58058 8.64185C7.28769 8.34896 7.28769 7.87408 7.58058 7.58119C7.87348 7.2883 8.34835 7.2883 8.64124 7.58119L9.15038 8.09033C9.67373 7.47568 10.1037 6.80875 10.4403 6.1082L10.0503 6.0107C9.64849 5.91024 9.40416 5.50304 9.50463 5.10119C9.60509 4.69935 10.0123 4.45503 10.4141 4.55549L10.9806 4.6971C11.2817 3.66366 11.399 2.58803 11.3325 1.52172ZM5.06059 12.4376L5.26199 13.2432C5.36245 13.645 5.76965 13.8893 6.17149 13.7889C6.57334 13.6884 6.81766 13.2812 6.7172 12.8794L6.47802 11.9226C7.43 11.4986 8.33298 10.9292 9.15336 10.2146L9.7019 10.7632C9.9948 11.0561 10.4697 11.0561 10.7626 10.7632C11.0555 10.4703 11.0555 9.99541 10.7626 9.70251L10.214 9.15397C10.9286 8.33359 11.498 7.43061 11.922 6.47863L12.8788 6.71781C13.2806 6.81827 13.6878 6.57395 13.7883 6.1721C13.8887 5.77026 13.6444 5.36306 13.2426 5.26259L12.437 5.0612C12.765 3.91188 12.8979 2.71863 12.8356 1.53371C15.2379 1.72434 17.5871 2.73843 19.4246 4.57599C21.2622 6.41354 22.2763 8.76273 22.4669 11.165C21.282 11.1028 20.0887 11.2356 18.9394 11.5636L18.738 10.758C18.6376 10.3562 18.2304 10.1119 17.8285 10.2123C17.4267 10.3128 17.1823 10.72 17.2828 11.1219L17.522 12.0786C16.57 12.5027 15.667 13.072 14.8466 13.7866L14.2981 13.238C14.0052 12.9452 13.5303 12.9452 13.2374 13.238C12.9445 13.5309 12.9445 14.0058 13.2374 14.2987L13.786 14.8472C13.0714 15.6676 12.502 16.5706 12.078 17.5226L11.1212 17.2834C10.7194 17.1829 10.3122 17.4273 10.2117 17.8291C10.1113 18.231 10.3556 18.6382 10.7574 18.7386L11.563 18.94C11.235 20.0893 11.1021 21.2826 11.1644 22.4675C8.76212 22.2769 6.41293 21.2628 4.57538 19.4252C2.73782 17.5877 1.72373 15.2385 1.5331 12.8362C2.71802 12.8985 3.91127 12.7656 5.06059 12.4376ZM13.5859 19.4457L13.0194 19.3041C12.7183 20.3376 12.601 21.4132 12.6675 22.4795C15.1281 22.3237 17.5442 21.3056 19.4246 19.4252C21.305 17.5448 22.3231 15.1287 22.4789 12.6682C21.4126 12.6016 20.3369 12.7189 19.3035 13.02L19.4451 13.5865C19.5456 13.9883 19.3013 14.3955 18.8994 14.496C18.4976 14.5964 18.0904 14.3521 17.9899 13.9503L17.8924 13.5603C17.1919 13.8969 16.5249 14.3269 15.9103 14.8502L16.4194 15.3594C16.7123 15.6523 16.7123 16.1271 16.4194 16.42C16.1265 16.7129 15.6517 16.7129 15.3588 16.42L14.8496 15.9109C14.3263 16.5255 13.8963 17.1925 13.5597 17.893L13.9497 17.9905C14.3515 18.091 14.5958 18.4982 14.4954 18.9C14.3949 19.3019 13.9877 19.5462 13.5859 19.4457Z"/>
</symbol>

<symbol id="rugby" viewBox="0 0 24 24">
  <path fill-rule="evenodd" clip-rule="evenodd" d="M21 3.00004C21.7313 3.73127 22.4166 6.20426 22.1261 9.20429C18.2678 8.79804 15.202 5.73231 14.7958 1.874C17.7958 1.58343 20.2688 2.2688 21 3.00004ZM13.3107 2.09414C13.8144 6.60473 17.3953 10.1857 21.9059 10.6893C21.4198 13.1152 20.261 15.7391 18 18C15.7391 20.261 13.1152 21.4198 10.6893 21.9059C10.1856 17.3953 6.60473 13.8144 2.09414 13.3107C2.58031 10.8849 3.73909 8.26099 6.00004 6.00004C8.26099 3.73909 10.8849 2.58031 13.3107 2.09414ZM9.20429 22.1261C6.20425 22.4166 3.73127 21.7313 3.00004 21C2.2688 20.2688 1.58343 17.7958 1.874 14.7958C5.73231 15.202 8.79804 18.2678 9.20429 22.1261ZM15.0304 8.96971C15.3233 9.2626 15.3233 9.73747 15.0304 10.0304L14.3107 10.75L15.5304 11.9697C15.8233 12.2626 15.8233 12.7375 15.5304 13.0304C15.2375 13.3233 14.7626 13.3233 14.4697 13.0304L13.25 11.8107L11.8107 13.25L13.0304 14.4697C13.3233 14.7626 13.3233 15.2375 13.0304 15.5304C12.7375 15.8233 12.2626 15.8233 11.9697 15.5304L10.75 14.3107L10.0304 15.0304C9.73747 15.3233 9.2626 15.3233 8.96971 15.0304C8.67681 14.7375 8.67681 14.2626 8.96971 13.9697L9.68938 13.25L8.46971 12.0304C8.17681 11.7375 8.17681 11.2626 8.46971 10.9697C8.7626 10.6768 9.23747 10.6768 9.53037 10.9697L10.75 12.1894L12.1894 10.75L10.9697 9.53037C10.6768 9.23747 10.6768 8.7626 10.9697 8.46971C11.2626 8.17681 11.7375 8.17681 12.0304 8.46971L13.25 9.68938L13.9697 8.96971C14.2626 8.67681 14.7375 8.67681 15.0304 8.96971Z"/>
</symbol>
<symbol id="rugbyunion" viewBox="0 0 24 24">
  <path fill-rule="evenodd" clip-rule="evenodd" d="M21 3.00004C21.7313 3.73127 22.4166 6.20426 22.1261 9.20429C18.2678 8.79804 15.202 5.73231 14.7958 1.874C17.7958 1.58343 20.2688 2.2688 21 3.00004ZM13.3107 2.09414C13.8144 6.60473 17.3953 10.1857 21.9059 10.6893C21.4198 13.1152 20.261 15.7391 18 18C15.7391 20.261 13.1152 21.4198 10.6893 21.9059C10.1856 17.3953 6.60473 13.8144 2.09414 13.3107C2.58031 10.8849 3.73909 8.26099 6.00004 6.00004C8.26099 3.73909 10.8849 2.58031 13.3107 2.09414ZM9.20429 22.1261C6.20425 22.4166 3.73127 21.7313 3.00004 21C2.2688 20.2688 1.58343 17.7958 1.874 14.7958C5.73231 15.202 8.79804 18.2678 9.20429 22.1261ZM15.0304 8.96971C15.3233 9.2626 15.3233 9.73747 15.0304 10.0304L14.3107 10.75L15.5304 11.9697C15.8233 12.2626 15.8233 12.7375 15.5304 13.0304C15.2375 13.3233 14.7626 13.3233 14.4697 13.0304L13.25 11.8107L11.8107 13.25L13.0304 14.4697C13.3233 14.7626 13.3233 15.2375 13.0304 15.5304C12.7375 15.8233 12.2626 15.8233 11.9697 15.5304L10.75 14.3107L10.0304 15.0304C9.73747 15.3233 9.2626 15.3233 8.96971 15.0304C8.67681 14.7375 8.67681 14.2626 8.96971 13.9697L9.68938 13.25L8.46971 12.0304C8.17681 11.7375 8.17681 11.2626 8.46971 10.9697C8.7626 10.6768 9.23747 10.6768 9.53037 10.9697L10.75 12.1894L12.1894 10.75L10.9697 9.53037C10.6768 9.23747 10.6768 8.7626 10.9697 8.46971C11.2626 8.17681 11.7375 8.17681 12.0304 8.46971L13.25 9.68938L13.9697 8.96971C14.2626 8.67681 14.7375 8.67681 15.0304 8.96971Z"/>
</symbol>
<symbol id="american-football" viewBox="0 0 24 24">
  <path fill-rule="evenodd" clip-rule="evenodd" d="M21 3.00004C21.7313 3.73127 22.4166 6.20426 22.1261 9.20429C18.2678 8.79804 15.202 5.73231 14.7958 1.874C17.7958 1.58343 20.2688 2.2688 21 3.00004ZM13.3107 2.09414C13.8144 6.60473 17.3953 10.1857 21.9059 10.6893C21.4198 13.1152 20.261 15.7391 18 18C15.7391 20.261 13.1152 21.4198 10.6893 21.9059C10.1856 17.3953 6.60473 13.8144 2.09414 13.3107C2.58031 10.8849 3.73909 8.26099 6.00004 6.00004C8.26099 3.73909 10.8849 2.58031 13.3107 2.09414ZM9.20429 22.1261C6.20425 22.4166 3.73127 21.7313 3.00004 21C2.2688 20.2688 1.58343 17.7958 1.874 14.7958C5.73231 15.202 8.79804 18.2678 9.20429 22.1261ZM15.0304 8.96971C15.3233 9.2626 15.3233 9.73747 15.0304 10.0304L14.3107 10.75L15.5304 11.9697C15.8233 12.2626 15.8233 12.7375 15.5304 13.0304C15.2375 13.3233 14.7626 13.3233 14.4697 13.0304L13.25 11.8107L11.8107 13.25L13.0304 14.4697C13.3233 14.7626 13.3233 15.2375 13.0304 15.5304C12.7375 15.8233 12.2626 15.8233 11.9697 15.5304L10.75 14.3107L10.0304 15.0304C9.73747 15.3233 9.2626 15.3233 8.96971 15.0304C8.67681 14.7375 8.67681 14.2626 8.96971 13.9697L9.68938 13.25L8.46971 12.0304C8.17681 11.7375 8.17681 11.2626 8.46971 10.9697C8.7626 10.6768 9.23747 10.6768 9.53037 10.9697L10.75 12.1894L12.1894 10.75L10.9697 9.53037C10.6768 9.23747 10.6768 8.7626 10.9697 8.46971C11.2626 8.17681 11.7375 8.17681 12.0304 8.46971L13.25 9.68938L13.9697 8.96971C14.2626 8.67681 14.7375 8.67681 15.0304 8.96971Z"/>
</symbol>


<symbol id="bowling" viewBox="0 0 24 24">
  <path fill-rule="evenodd" clip-rule="evenodd" d="M9.5 4C9.5 2.5 10.5 1.5 12 1.5C13.5 1.5 14.5 2.5 14.5 4C14.5 4.94009 14.1072 5.88018 13.814 6.45102C13.6374 6.79476 13.625 7.20907 13.8117 7.54743C13.8463 7.61023 13.8833 7.67785 13.9224 7.75H10.0776C10.1167 7.67785 10.1537 7.61023 10.1883 7.54743C10.375 7.20907 10.3626 6.79476 10.186 6.45102C9.89279 5.88018 9.5 4.94009 9.5 4ZM9.32579 9.22966C8.95086 10.0176 8.54739 10.9506 8.21533 11.9203C7.80247 13.1261 7.5 14.3886 7.5 15.5C7.5 16.7038 7.7826 17.9077 8.1534 18.9691C8.16441 19.0006 8.1755 19.032 8.18667 19.0633C8.65876 20.3857 9.26087 21.4767 9.60781 22.0542C9.77802 22.3375 10.0864 22.5 10.4169 22.5H13.5705C13.9001 22.5 14.2076 22.3385 14.3781 22.0566C14.7267 21.4801 15.333 20.3888 15.8084 19.0656C15.8196 19.0344 15.8308 19.003 15.8418 18.9715C16.2153 17.9095 16.5 16.7048 16.5 15.5C16.5 14.3886 16.1975 13.1261 15.7847 11.9203C15.4526 10.9506 15.0491 10.0176 14.6742 9.22966C14.6183 9.24296 14.56 9.25 14.5 9.25H9.5C9.44003 9.25 9.3817 9.24296 9.32579 9.22966ZM2.09081 11.25C1.52315 12.4025 1 13.8989 1 15.5C1 18.2007 2.12455 19.7106 2.6382 20.2593C2.79254 20.4242 3.01167 20.5 3.23752 20.5H6.75024C6.87478 20.5 6.99731 20.4769 7.10806 20.4286C6.52932 19.0466 6 17.2946 6 15.5C6 14.1011 6.38817 12.5886 6.8602 11.25H2.09081ZM7.045 9.75C7.00973 9.69703 6.97558 9.64657 6.94273 9.59873C6.69206 9.23364 6.66869 8.7463 6.86522 8.34943C7.1509 7.77255 7.5 6.88628 7.5 6C7.5 4.5 6.5 3.5 5 3.5C3.5 3.5 2.5 4.5 2.5 6C2.5 6.88628 2.8491 7.77255 3.13478 8.34943C3.33131 8.7463 3.30794 9.23364 3.05727 9.59873C3.02442 9.64657 2.99027 9.69703 2.955 9.75H7.045ZM17.2375 20.5C17.1149 20.5 16.9944 20.4777 16.885 20.4309C17.4674 19.0485 18 17.2957 18 15.5C18 14.1011 17.6118 12.5886 17.1398 11.25H21.9092C22.4769 12.4025 23 13.8989 23 15.5C23 18.2047 21.8636 19.715 21.3471 20.2618C21.1929 20.425 20.9748 20.5 20.7502 20.5H17.2375ZM16.955 9.75H21.045C21.0097 9.69703 20.9756 9.64657 20.9427 9.59873C20.6921 9.23364 20.6687 8.7463 20.8652 8.34943C21.1509 7.77255 21.5 6.88628 21.5 6C21.5 4.5 20.5 3.5 19 3.5C17.5 3.5 16.5 4.5 16.5 6C16.5 6.88628 16.8491 7.77255 17.1348 8.34943C17.3313 8.7463 17.3079 9.23364 17.0573 9.59873C17.0244 9.64657 16.9903 9.69703 16.955 9.75Z"/>
</symbol>

<symbol id="golf" viewBox="0 0 24 24">
  <path fill-rule="evenodd" clip-rule="evenodd" d="M4.49954 14.5C7.65611 14.1054 10.8134 15.5794 12.004 16.2183C12.2708 16.3615 12.6106 16.2545 12.7352 15.9786L19.0789 1.93246C19.3352 1.36483 19.9003 1 20.5232 1C21.6797 1 22.4467 2.19878 21.962 3.24886L14.4656 19.4906C14.1565 20.1603 13.7621 20.7949 13.1728 21.2385C11.9317 22.1728 9.31833 23.5414 5.49953 22.5C-0.000938892 21 0.500008 15 4.49954 14.5ZM8.12484 17.352C8.48358 17.1449 8.94226 17.2679 9.14933 17.6266L9.95966 19.0305C10.1667 19.3893 10.0438 19.848 9.68503 20.055C9.32628 20.2621 8.8676 20.1391 8.66054 19.7804L7.8502 18.3765C7.64314 18.0177 7.7661 17.559 8.12484 17.352ZM4.61482 16.929C4.97357 16.722 5.43225 16.8449 5.63931 17.2037L6.44965 18.6076C6.65671 18.9663 6.53375 19.425 6.17501 19.6321C5.81627 19.8391 5.35759 19.7162 5.15052 19.3574L4.34019 17.9535C4.13312 17.5948 4.25608 17.1361 4.61482 16.929ZM20 21.5C21.3807 21.5 22.5 20.3807 22.5 19C22.5 17.6193 21.3807 16.5 20 16.5C18.6193 16.5 17.5 17.6193 17.5 19C17.5 20.3807 18.6193 21.5 20 21.5Z"/>
</symbol>

<symbol id="golf-ball" viewBox="0 0 24 24">
  <path fill-rule="evenodd" clip-rule="evenodd" d="M12 15.5C15.866 15.5 19 12.366 19 8.5C19 4.63401 15.866 1.5 12 1.5C8.13401 1.5 5 4.63401 5 8.5C5 12.366 8.13401 15.5 12 15.5ZM7.97895 16.6011C8.18852 16.3274 8.57467 16.263 8.86211 16.4527L8.87718 16.4621C8.89233 16.4714 8.91809 16.4869 8.95412 16.507C9.02621 16.5474 9.1391 16.6067 9.29001 16.674C9.59204 16.8088 10.0444 16.9752 10.6255 17.0883C11.0249 17.1661 11.4852 17.2188 12 17.2188C12.7233 17.2188 13.3394 17.1148 13.8299 16.9832C14.267 16.8659 14.6041 16.7267 14.8273 16.6198C14.9388 16.5664 15.0215 16.5213 15.0736 16.4913C15.0997 16.4763 15.1181 16.4651 15.1286 16.4586L15.1377 16.4529C15.1373 16.4532 15.1368 16.4535 15.1364 16.4538L15.1377 16.4529L15.1377 16.4529C15.4252 16.2625 15.8113 16.3271 16.0211 16.6011C16.2312 16.8756 16.1922 17.2662 15.9322 17.4939L15.931 17.4949L15.9249 17.5003L15.8986 17.5238C15.875 17.5449 15.8395 17.577 15.7939 17.6189C15.7025 17.7029 15.5708 17.8264 15.4123 17.9816C15.0943 18.293 14.6722 18.7284 14.252 19.2274C13.8298 19.7287 13.4214 20.2803 13.1214 20.8239C12.8157 21.378 12.6561 21.8644 12.6561 22.2501C12.6561 22.6125 12.3623 22.9063 11.9998 22.9063C11.6374 22.9063 11.3436 22.6124 11.3436 22.25C11.3436 21.8643 11.1841 21.3779 10.8785 20.8239C10.5786 20.2803 10.1701 19.7287 9.74802 19.2274C9.32782 18.7284 8.90571 18.293 8.58776 17.9816C8.42918 17.8264 8.29749 17.7029 8.20618 17.6189C8.16055 17.577 8.12507 17.5449 8.10144 17.5238L8.07511 17.5003L8.06903 17.4949L8.06774 17.4938C7.80763 17.2661 7.76878 16.8756 7.97895 16.6011Z"/>
</symbol>

<symbol id="golf-holl" viewBox="0 0 24 24">
  <path fill-rule="evenodd" clip-rule="evenodd" d="M19.6434 5.53145L11.4626 1.2632C10.7968 0.915847 10 1.39885 10 2.14979V9.97491C10 9.97913 10 9.98334 10.0001 9.98755C10 9.99169 10 9.99584 10 10V18C10 18.5523 10.4477 19 11 19C11.5523 19 12 18.5523 12 18V10.6306L19.5795 7.33511C20.3507 6.99984 20.3889 5.9204 19.6434 5.53145ZM8.75 16.6372C5.70717 17.0195 3.5 18.1566 3.5 19.4999C3.5 21.1567 6.85786 22.4999 11 22.4999C15.1421 22.4999 18.5 21.1567 18.5 19.4999C18.5 18.1566 16.2928 17.0195 13.25 16.6372V17.9999C13.25 19.2425 12.2426 20.2499 11 20.2499C9.75736 20.2499 8.75 19.2425 8.75 17.9999V16.6372Z"/>
</symbol>

<symbol id="hockey" viewBox="0 0 24 24">
  <path fill-rule="evenodd" clip-rule="evenodd" d="M18.296 10.8645L13.509 19.1558L13.5085 19.1555L13.5073 19.1576C13.5 19.1703 13.4925 19.183 13.4849 19.1955C11.6789 22.2731 7.72466 23.3213 4.6293 21.5342C1.5204 19.7392 0.455481 15.764 2.25041 12.6551C2.80289 11.6991 4.02569 11.3717 4.98203 11.9238C5.93837 12.476 6.26678 13.699 5.71509 14.6555L5.71411 14.6572C5.02375 15.8529 5.43344 17.3819 6.62917 18.0722C7.81353 18.756 9.32481 18.3606 10.0243 17.1911C10.0305 17.1799 10.0368 17.1687 10.0432 17.1576C10.0481 17.1492 10.053 17.1409 10.0579 17.1326C10.061 17.1273 10.0642 17.122 10.0674 17.1168L14.8318 8.8646L14.8319 8.86467L18.296 10.8645ZM19.046 9.56542L20.6336 6.81553L17.1695 4.81568L15.5818 7.56556L15.5819 7.5656L19.046 9.56542ZM17.9195 3.51663L21.3836 5.51649L22.259 4.00033C22.8113 3.04375 22.4835 1.82057 21.527 1.26828C20.5704 0.715998 19.3472 1.04375 18.7949 2.00033L17.9195 3.51663ZM19.5 22C21.1568 22 22.5 20.6569 22.5 19C22.5 17.3431 21.1568 16 19.5 16C17.8431 16 16.5 17.3431 16.5 19C16.5 20.6569 17.8431 22 19.5 22Z"/>
</symbol>

<symbol id="ice-hockey" viewBox="0 0 24 24">
  <path fill-rule="evenodd" clip-rule="evenodd" d="M6.99981 15.9996C5.07288 14.8434 2.46391 15.9111 1.97644 18.1048L1.54066 20.0657C1.2631 21.3148 2.21257 22.4996 3.49206 22.4996H6.99981C8.94024 22.4996 10.4196 22.1922 11.3527 21.9183C11.7325 21.8068 12.0695 21.6114 12.3605 21.3579C12.1289 20.8705 11.9993 20.3253 11.9993 19.7499C11.9993 17.7286 13.5984 16.0808 15.6006 16.0028L18.4596 10.9345C18.4036 10.9181 18.3486 10.8947 18.2959 10.8643L14.8473 8.87341L11.0581 15.3992C11.0367 15.436 11.0167 15.4734 10.9967 15.5108C10.9804 15.5413 10.964 15.5719 10.9469 15.6021C10.7061 16.0282 9.60991 17.5657 6.99981 15.9996ZM13.5001 19.7263L13.4994 19.7276C13.5071 18.928 13.932 18.2281 14.5669 17.8352L14.5664 17.8361C14.9102 17.623 15.3157 17.5 15.75 17.5H20.25C21.4926 17.5 22.5 18.5074 22.5 19.75C22.5 20.9926 21.4926 22 20.25 22H15.75C14.5074 22 13.5 20.9926 13.5 19.75C13.5 19.7421 13.5 19.7342 13.5001 19.7263ZM15.6005 7.57622L19.0458 9.5652C19.0941 9.59307 19.1381 9.62551 19.1776 9.66165L20.752 6.8707C20.7116 6.85595 20.6719 6.83752 20.6334 6.81527L17.1949 4.83025L15.6005 7.57622ZM17.9481 3.53306L21.3833 5.51621C21.4174 5.53588 21.4494 5.55782 21.4791 5.58174L22.5226 3.73193C23.0632 2.77364 22.7282 1.55868 21.7729 1.0128L21.7243 0.985034C20.77 0.439694 19.5544 0.7667 19.0025 1.71725L17.9481 3.53306Z"/>
</symbol>

<symbol id="curling-stone" viewBox="0 0 24 24">
  <path fill-rule="evenodd" clip-rule="evenodd" d="M8.01334 3.79775C8.30607 3.01715 9.05231 2.5 9.886 2.5H17.25C18.4926 2.5 19.5 3.50736 19.5 4.75C19.5 5.99264 18.4926 7 17.25 7H12.3772C12.1539 7 11.9577 7.14799 11.8964 7.36264L11.3571 9.25H5.96875L8.01334 3.79775ZM1.5 14.5C1.5 12.2909 3.29086 10.5 5.5 10.5H18.5C20.7091 10.5 22.5 12.2909 22.5 14.5V15.25H1.5V14.5ZM1.5 16.75H22.5V17.5C22.5 19.7091 20.7091 21.5 18.5 21.5H5.5C3.29086 21.5 1.5 19.7091 1.5 17.5V16.75Z"/>
</symbol>

<symbol id="ice-skate" viewBox="0 0 24 24">
  <path fill-rule="evenodd" clip-rule="evenodd" d="M3.17745 5.56405C3.08693 5.21098 3.14464 4.82427 3.40062 4.56479C5.6394 2.29542 8.72976 1.70657 10.1828 1.55377C10.6569 1.50392 11.0673 1.83669 11.1608 2.30411L11.5425 4.2124L9.37398 4.79345C8.97388 4.90066 8.73644 5.31191 8.84365 5.71201C8.95086 6.11211 9.36211 6.34955 9.76221 6.24234L11.8413 5.68524C11.9441 6.11512 12.0928 6.52729 12.2822 6.91611L10.874 7.29342C10.4739 7.40063 10.2365 7.81188 10.3437 8.21198C10.4509 8.61208 10.8621 8.84952 11.2622 8.74231L13.1565 8.23474C13.8872 9.0717 14.849 9.70493 15.9525 10.036L20.6612 11.4486C21.7526 11.776 22.5001 12.7806 22.5001 13.92C22.5001 15.345 21.3448 16.5002 19.9198 16.5002H19.8079C19.4016 15.4534 18.39 14.7502 17.25 14.7502C16.11 14.7502 15.0984 15.4534 14.6921 16.5002H9.30792C8.90158 15.4534 7.89005 14.7502 6.75 14.7502C5.60995 14.7502 4.59842 15.4534 4.19208 16.5002H3.76509C1.7727 16.5002 0.691631 13.4452 1.76627 11.7675C3.04355 9.7734 3.69345 7.57686 3.17745 5.56405ZM3.17729 19C2.76839 19 2.40068 19.249 2.24881 19.6286L1.77454 20.8143C1.64316 21.1427 1.88504 21.5 2.23877 21.5H21.7617C22.1155 21.5 22.3574 21.1427 22.226 20.8143L21.7517 19.6286C21.5998 19.249 21.2321 19 20.8232 19H19.6773C19.2684 19 18.9007 18.751 18.7488 18.3714L18.2517 17.1286C18.0998 16.749 17.7321 16.5 17.3232 16.5H17.1773C16.7684 16.5 16.4007 16.749 16.2488 17.1286L15.7517 18.3714C15.5998 18.751 15.2321 19 14.8232 19H9.17729C8.76839 19 8.40068 18.751 8.24881 18.3714L7.7517 17.1286C7.59984 16.749 7.23213 16.5 6.82323 16.5H6.67729C6.26839 16.5 5.90068 16.749 5.74881 17.1286L5.2517 18.3714C5.09984 18.751 4.73213 19 4.32323 19H3.17729Z"/>
</symbol>

<symbol id="roller-skate" viewBox="0 0 24 24">
  <path fill-rule="evenodd" clip-rule="evenodd" d="M3.00005 5C6.00005 1.5 11.0001 1.5 11.0001 1.5L11.5425 4.21217L9.37398 4.79322C8.97388 4.90043 8.73644 5.31168 8.84365 5.71178C8.95086 6.11188 9.36211 6.34932 9.76221 6.24211L11.8413 5.68501C11.9441 6.11489 12.0928 6.52706 12.2822 6.91588L10.874 7.29319C10.4739 7.4004 10.2365 7.81165 10.3437 8.21175C10.4509 8.61185 10.8621 8.84929 11.2622 8.74208L13.1565 8.23451C13.8872 9.07147 14.849 9.7047 15.9525 10.0357L20.6612 11.4484C21.7526 11.7758 22.5001 12.7803 22.5001 13.9198C22.5001 14.4353 22.3489 14.9155 22.0884 15.3185C21.3563 14.8028 20.4635 14.5 19.5 14.5C17.9398 14.5 16.565 15.294 15.7578 16.5H15.7422C14.935 15.294 13.5602 14.5 12 14.5C10.4398 14.5 9.06504 15.294 8.25777 16.5H8.24223C7.43496 15.294 6.06021 14.5 4.5 14.5C3.5305 14.5 2.6326 14.8066 1.89798 15.3281C1.25368 14.2868 1.11924 12.7774 1.76627 11.7673C3.16392 9.58525 3.81037 7.16085 3.00005 5ZM3.5 19C3.5 18.4477 3.94772 18 4.5 18C5.05228 18 5.5 18.4477 5.5 19C5.5 19.5523 5.05228 20 4.5 20C3.94772 20 3.5 19.5523 3.5 19ZM4.5 16C2.84315 16 1.5 17.3431 1.5 19C1.5 20.6569 2.84315 22 4.5 22C6.15685 22 7.5 20.6569 7.5 19C7.5 17.3431 6.15685 16 4.5 16ZM11 19C11 18.4477 11.4477 18 12 18C12.5523 18 13 18.4477 13 19C13 19.5523 12.5523 20 12 20C11.4477 20 11 19.5523 11 19ZM12 16C10.3431 16 9 17.3431 9 19C9 20.6569 10.3431 22 12 22C13.6569 22 15 20.6569 15 19C15 17.3431 13.6569 16 12 16ZM18.5 19C18.5 18.4477 18.9477 18 19.5 18C20.0523 18 20.5 18.4477 20.5 19C20.5 19.5523 20.0523 20 19.5 20C18.9477 20 18.5 19.5523 18.5 19ZM19.5 16C17.8431 16 16.5 17.3431 16.5 19C16.5 20.6569 17.8431 22 19.5 22C21.1569 22 22.5 20.6569 22.5 19C22.5 17.3431 21.1569 16 19.5 16Z"/>
</symbol>

<symbol id="running-shoe" viewBox="0 0 24 24">
  <path fill-rule="evenodd" clip-rule="evenodd" d="M23.0001 16.2502H1.50035L1.50034 17.0005C1.50033 17.5528 1.94805 18.0001 2.50034 18.0001H22.0001C22.5524 18.0001 23.0001 17.5524 23.0001 17.0001L23.0001 16.2502ZM22.9958 14.7502H1.44015C0.647491 11.3295 1.3335 8.66355 2.85233 7.0752C3.19625 6.71553 3.76413 6.76285 4.18384 7.03021C4.92125 7.49995 6.08559 8.00011 7.50003 8.00011C8.84485 8.00011 9.9636 7.24655 10.7043 6.49949C11.1623 6.03749 11.8733 6.00639 12.271 6.52126C12.3355 6.60471 12.4037 6.69091 12.4757 6.77911L10.8839 9.0726C10.6477 9.41288 10.7321 9.88019 11.0724 10.1164C11.4126 10.3526 11.88 10.2682 12.1161 9.92789L13.5351 7.88353C13.8681 8.17397 14.2458 8.45398 14.673 8.69961L13.7651 10.1409C13.5443 10.4913 13.6494 10.9544 13.9999 11.1752C14.3504 11.396 14.8135 11.2909 15.0342 10.9404L16.0688 9.29806C16.3623 9.38458 16.6724 9.4533 17 9.50011C20.4156 9.98804 22.8789 11.4283 22.9958 14.7502Z"/>
</symbol>

<symbol id="swimming-ring" viewBox="0 0 24 24">
  <path fill-rule="evenodd" clip-rule="evenodd" d="M16.5877 2.5526C15.2016 1.87828 13.645 1.5 12 1.5C10.3549 1.5 8.79821 1.87832 7.41211 2.5527L10.1775 7.34254C10.7422 7.1214 11.3569 7 12 7C12.643 7 13.2576 7.12137 13.8223 7.34245L16.5877 2.5526ZM17.8861 3.30368L15.1208 8.09329C15.4104 8.32494 15.6737 8.58812 15.9055 8.87763L20.6952 6.11227C19.9456 5.00746 18.991 4.05304 17.8861 3.30368ZM21.4465 7.41054L16.6568 10.1759C16.8784 10.741 17 11.3563 17 12C17 12.6433 16.8785 13.2582 16.6572 13.8231L21.447 16.5885C22.1216 15.2022 22.5 13.6453 22.5 12C22.5 10.3543 22.1214 8.79703 21.4465 7.41054ZM20.6958 17.8868L15.9061 15.1215C15.6744 15.4111 15.4112 15.6743 15.1217 15.906L17.887 20.6957C18.9919 19.9462 19.9464 18.9917 20.6958 17.8868ZM16.5886 21.4469L13.8233 16.6572C13.2584 16.8785 12.6434 17 12 17C11.3565 17 10.7415 16.8785 10.1765 16.6571L7.41114 21.4468C8.79748 22.1215 10.3545 22.5 12 22.5C13.6454 22.5 15.2024 22.1215 16.5886 21.4469ZM6.11282 20.6956L8.87815 15.9059C8.58826 15.6739 8.32476 15.4103 8.09287 15.1203L3.30331 17.8855C4.05285 18.9909 5.00759 19.9458 6.11282 20.6956ZM2.55231 16.5871L7.3422 13.8216C7.12128 13.2572 7 12.6427 7 12C7 11.3569 7.12143 10.7421 7.3426 10.1774L2.55278 7.41195C1.87835 8.79809 1.5 10.3549 1.5 12C1.5 13.6448 1.87817 15.2012 2.55231 16.5871ZM3.30392 6.11357L8.09355 8.87886C8.3255 8.58893 8.58906 8.32538 8.879 8.09344L6.11371 3.30382C5.0084 4.05345 4.05356 5.00827 3.30392 6.11357Z"/>
</symbol>

<symbol id="swimming-cap" viewBox="0 0 24 24">
  <path fill-rule="evenodd" clip-rule="evenodd" d="M21.4997 12.5H18.9551C18.2187 11.4758 17.7495 10.0715 17.7495 8.5C17.7495 6.8946 18.2391 5.46375 19.0031 4.43433C20.9576 6.35448 22.1874 8.96856 22.4478 11.5018C22.5043 12.0512 22.052 12.5 21.4997 12.5ZM11.9997 1.5C14.2549 1.5 16.241 2.25397 17.8616 3.45678C16.8523 4.77408 16.2495 6.55902 16.2495 8.5C16.2495 9.9674 16.594 11.3456 17.1983 12.5H6.80073C7.40498 11.3456 7.74951 9.9674 7.74951 8.5C7.74951 6.55913 7.14678 4.77428 6.13756 3.457C7.75827 2.25406 9.74445 1.5 11.9997 1.5ZM4.99612 4.4346C3.04175 6.35472 1.81208 8.96868 1.55165 11.5018C1.49517 12.0512 1.94746 12.5 2.49975 12.5H5.04389C5.78032 11.4758 6.24951 10.0715 6.24951 8.5C6.24951 6.89474 5.75997 5.464 4.99612 4.4346ZM7.57143 21.5C9.78057 21.5 11 20.1569 11 18.5C11 18.4564 10.9992 18.413 10.9975 18.3698C11.6799 18.0434 12.3195 18.0434 13.0025 18.3696C13.0009 18.4128 13 18.4563 13 18.5C13 20.1569 14.2194 21.5 16.4286 21.5C18.1823 21.5 20.0326 20.6535 20.7209 19.4756L20.7428 19.4704L22.7428 18.9704C23.2786 18.8364 23.6043 18.2935 23.4704 17.7577C23.3364 17.2219 22.7935 16.8961 22.2577 17.0301L20.6622 17.429C19.932 16.301 18.1346 15.5 16.4286 15.5C15.2357 15.5 14.3314 15.8916 13.7518 16.5128C12.5963 15.996 11.4044 15.9954 10.2483 16.5129C9.66872 15.8917 8.76437 15.5 7.57143 15.5C5.86545 15.5 4.06813 16.301 3.33791 17.4289L1.74277 17.0301C1.20698 16.8961 0.664043 17.2219 0.530094 17.7577C0.396145 18.2935 0.721906 18.8364 1.2577 18.9704L3.2577 19.4704L3.27902 19.4755C3.96725 20.6535 5.8176 21.5 7.57143 21.5Z"/>
</symbol>

<symbol id="swimming-jacket" viewBox="0 0 24 24">
  <path fill-rule="evenodd" clip-rule="evenodd" d="M10.0571 3.69975C10.8263 3.39208 11.2004 2.51913 10.8927 1.74995C10.585 0.980778 9.71209 0.606655 8.94291 0.914325C6.86351 1.74608 5.5 3.76004 5.5 5.99962V16.2554C6.54172 16.2653 7.58319 16.5606 8.5 17.1455V17.1454C8.5553 17.1807 8.61015 17.2171 8.66451 17.2544C10.6626 15.8411 13.3374 15.8411 15.3355 17.2544C15.3899 17.2171 15.4447 17.1807 15.5 17.1454V17.1455C16.4168 16.5606 17.4583 16.2653 18.5 16.2554V5.99962C18.5 4.98675 19.1167 4.07593 20.0571 3.69975C20.8263 3.39208 21.2004 2.51913 20.8927 1.74995C20.585 0.980778 19.7121 0.606655 18.9429 0.914325C16.8635 1.74608 15.5 3.76004 15.5 5.99962V6H8.5V5.99962C8.5 4.98675 9.11666 4.07593 10.0571 3.69975ZM15.5 13.75H8.5V12.25H15.5V13.75ZM15.5 9.75H8.5V8.25H15.5V9.75ZM11.2334 20.9499C11.6877 20.6092 12.3124 20.6091 12.7667 20.9499L12.8227 20.9919C14.3105 22.1077 16.3562 22.1077 17.844 20.9919C18.2881 20.6588 18.904 20.6789 19.3255 21.0402L20.0238 21.6388C20.6528 22.1779 21.5998 22.1051 22.1389 21.4761C22.678 20.8471 22.6052 19.9001 21.9762 19.361L21.2778 18.7624C19.7888 17.486 17.613 17.4152 16.044 18.5919C15.6229 18.9077 15.0438 18.9077 14.6227 18.5919L14.5667 18.5499C13.0457 17.4092 10.9543 17.4092 9.43336 18.5499L9.37734 18.5919C8.95622 18.9077 8.37717 18.9077 7.95605 18.5919C6.38706 17.4152 4.2113 17.486 2.72222 18.7624L2.02384 19.361C1.39485 19.9001 1.32201 20.8471 1.86114 21.4761C2.40028 22.1051 3.34723 22.1779 3.97621 21.6388L4.6746 21.0402C5.09608 20.6789 5.71194 20.6588 6.15605 20.9919C7.64384 22.1077 9.68955 22.1077 11.1773 20.9919L11.2334 20.9499Z"/>
</symbol>

<symbol id="water-polo" viewBox="0 0 24 24">
  <path fill-rule="evenodd" clip-rule="evenodd" d="M22.494 12.3592C19.8895 9.52584 16.1522 7.75015 12.0003 7.75015C11.8124 7.75015 11.6255 7.75378 11.4395 7.76097C11.5368 8.9511 11.8671 10.1394 12.4492 11.2594C14.2158 11.332 15.874 11.8314 17.3217 12.6577C19.0134 13.6232 20.4181 15.0357 21.3745 16.7346C22.0436 15.4124 22.4412 13.9295 22.494 12.3592ZM15.3355 17.2544C16.519 16.4406 17.9303 16.1264 19.2879 16.3025C18.7107 15.5653 18.024 14.9178 17.252 14.3844C17.1645 14.549 17.0738 14.7127 16.9799 14.8754C16.7429 15.286 16.49 15.682 16.2225 16.0631C15.9354 16.4723 15.6315 16.8641 15.3123 17.2381L15.3355 17.2544ZM2.73387 16.9429C1.94644 15.4698 1.5 13.7871 1.5 12C1.5 6.20101 6.20101 1.5 12 1.5C11.8027 1.5 11.607 1.50544 11.4124 1.51618C11.3916 1.55145 11.3709 1.58683 11.3505 1.62231C10.3982 3.27408 9.89946 5.15586 9.90898 7.06304C9.91729 8.72981 10.3139 10.4155 11.1342 11.9817C10.4553 13.0458 9.59145 13.926 8.60943 14.6054C8.51019 14.4479 8.41357 14.2878 8.31965 14.1251C6.24307 10.5284 5.91266 6.40267 7.06539 2.72961C6.39669 3.08632 5.77112 3.51327 5.19853 4.00061C4.49922 7.59727 5.04475 11.4529 7.02061 14.8751C7.11451 15.0378 7.21088 15.1981 7.30966 15.3562C5.78234 16.0801 4.07251 16.3794 2.375 16.2023C2.48524 16.4544 2.60486 16.7015 2.73387 16.9429ZM8.66451 17.2544C8.3934 17.068 8.11033 16.9078 7.81869 16.7737C8.14322 16.6253 8.46087 16.4606 8.77029 16.2798C10.2096 15.4392 11.4711 14.2529 12.4173 12.7594C13.6784 12.8153 14.8726 13.1233 15.952 13.6342C15.8652 13.7989 15.7748 13.9627 15.6809 14.1254C15.466 14.4977 15.2369 14.8564 14.9948 15.2014C14.6663 15.6693 14.3137 16.1122 13.9396 16.5292C12.1983 15.9089 10.225 16.1506 8.66451 17.2544ZM13.1728 1.56477C17.7934 2.0783 21.5092 5.59018 22.3305 10.1108C19.5652 7.70604 15.9527 6.25015 12.0003 6.25015C11.8125 6.25015 11.6255 6.25344 11.4393 6.25996C11.5502 4.89396 11.9631 3.56289 12.65 2.37146C12.8096 2.09461 12.984 1.82527 13.1728 1.56477ZM11.2334 20.9499C11.6877 20.6092 12.3124 20.6091 12.7667 20.9499L12.8227 20.9919C14.3105 22.1077 16.3562 22.1077 17.844 20.9919C18.2881 20.6588 18.904 20.6789 19.3255 21.0402L20.0238 21.6388C20.6528 22.1779 21.5998 22.1051 22.1389 21.4761C22.678 20.8471 22.6052 19.9001 21.9762 19.361L21.2778 18.7624C19.7888 17.486 17.613 17.4152 16.044 18.5919C15.6229 18.9077 15.0438 18.9077 14.6227 18.5919L14.5667 18.5499C13.0457 17.4092 10.9543 17.4092 9.43336 18.5499L9.37734 18.5919C8.95622 18.9077 8.37717 18.9077 7.95605 18.5919C6.38706 17.4152 4.2113 17.486 2.72222 18.7624L2.02384 19.361C1.39485 19.9001 1.32201 20.8471 1.86114 21.4761C2.40028 22.1051 3.34723 22.1779 3.97621 21.6388L4.6746 21.0402C5.09608 20.6789 5.71194 20.6588 6.15605 20.9919C7.64384 22.1077 9.68955 22.1077 11.1773 20.9919L11.2334 20.9499Z"/>
</symbol>

<symbol id="diving-suit" viewBox="0 0 24 24">
  <path fill-rule="evenodd" clip-rule="evenodd" d="M23 3C23 2.44772 22.5523 2 22 2C21.4477 2 21 2.44772 21 3V8H19.8389C19.5974 6.08896 17.973 4.49902 15.8667 4.49902H5.13414C2.37994 4.49902 0.449758 7.21754 1.35777 9.81775L1.84291 11.207C2.74827 13.7996 5.93704 14.7298 8.09435 13.0306L9.2629 12.1102C9.98885 11.5383 11.012 11.5383 11.738 12.1102L12.9065 13.0306C15.0638 14.7298 18.2526 13.7997 19.158 11.207L19.5795 10H21V16.5C21 18.1569 19.6569 19.5 18 19.5H13.8555C13.9498 19.8169 14.0004 20.1525 14.0004 20.5C14.0004 20.8475 13.9498 21.1831 13.8555 21.5H18C20.7614 21.5 23 19.2614 23 16.5V3ZM12.5 20.5C12.5 21.6046 11.6046 22.5 10.5 22.5C9.39543 22.5 8.5 21.6046 8.5 20.5C8.5 19.3954 9.39543 18.5 10.5 18.5C11.6046 18.5 12.5 19.3954 12.5 20.5ZM5.25038 8.99991C5.25038 8.5857 5.58617 8.24991 6.00038 8.24991C6.4146 8.24991 6.75038 7.91413 6.75038 7.49991C6.75038 7.0857 6.4146 6.74991 6.00038 6.74991C4.75774 6.74991 3.75038 7.75727 3.75038 8.99991C3.75038 9.41413 4.08617 9.74991 4.50038 9.74991C4.9146 9.74991 5.25038 9.41413 5.25038 8.99991ZM10.5 16C9.45628 16 8.50592 15.6003 7.79368 14.9455C8.22068 14.7605 8.63359 14.5165 9.02216 14.2104L10.1907 13.29C10.3722 13.1471 10.628 13.1471 10.8095 13.29L11.978 14.2104C12.3666 14.5165 12.7794 14.7605 13.2064 14.9455C12.4941 15.6002 11.5438 16 10.5 16Z"/>
</symbol>

<symbol id="boat" viewBox="0 0 24 24">
    <path fill-rule="evenodd" clip-rule="evenodd" d="M3.63753 0.868546C3.79979 0.791869 4.02967 0.704121 4.28247 0.704102C4.64893 0.704073 4.91912 0.902221 5.07015 1.0423C5.2353 1.19548 5.37361 1.38614 5.48711 1.57309C5.71666 1.95116 5.91624 2.43352 6.06157 2.91796C6.20699 3.4027 6.31153 3.93425 6.32494 4.41634C6.33164 4.65747 6.31633 4.91005 6.2588 5.14875C6.25566 5.16175 6.25237 5.17486 6.2489 5.18807L7.87631 6.81548C10.313 4.56585 12.7479 3.35894 14.8701 2.73647C15.2729 4.06959 16.2023 5.44055 17.326 6.53029C18.0877 7.26902 18.944 7.9278 19.812 8.40601C20.2518 8.64828 20.7085 8.85189 21.168 8.9929C20.5506 11.1249 19.3365 13.5657 17.05 15.9892L18.812 17.7512L18.8203 17.749L18.8513 17.7413C19.09 17.6838 19.3426 17.6684 19.5837 17.6751C20.0658 17.6886 20.5974 17.7931 21.0821 17.9385C21.5666 18.0838 22.0489 18.2834 22.427 18.513C22.614 18.6265 22.8046 18.7648 22.9578 18.9299C23.0979 19.081 23.296 19.3511 23.296 19.7176C23.296 19.9704 23.2082 20.2003 23.1315 20.3626C23.0478 20.5397 22.9369 20.7188 22.8168 20.8895C22.5759 21.2318 22.2584 21.5961 21.9273 21.9273C21.5961 22.2584 21.2318 22.5759 20.8894 22.8168C20.7188 22.9369 20.5397 23.0478 20.3625 23.1316C20.2003 23.2082 19.9704 23.296 19.7176 23.296C19.3511 23.296 19.0809 23.0978 18.9299 22.9577C18.7648 22.8045 18.6265 22.6139 18.513 22.4269C18.2835 22.0488 18.0839 21.5664 17.9386 21.082C17.7932 20.5972 17.6887 20.0657 17.6753 19.5836C17.6686 19.3424 17.6839 19.0899 17.7415 18.8512C17.7446 18.8382 17.7479 18.8251 17.7514 18.8118L5.18824 6.24873C5.17504 6.2522 5.16193 6.2555 5.14893 6.25863C4.91023 6.31616 4.65765 6.33149 4.41652 6.32479C3.93441 6.3114 3.40285 6.20688 2.9181 6.06148C2.43365 5.91617 1.95127 5.71661 1.57317 5.48709C1.38622 5.3736 1.19555 5.23531 1.04236 5.07018C0.902279 4.91917 0.704096 4.64899 0.704102 4.28252C0.704105 4.02971 0.791854 3.79982 0.868527 3.63755C0.952244 3.46039 1.06317 3.28129 1.18325 3.11066C1.42414 2.76834 1.74167 2.40397 2.0728 2.07284C2.40394 1.7417 2.76831 1.42417 3.11063 1.18327C3.28127 1.0632 3.46036 0.952266 3.63753 0.868546ZM14.9686 13.9077C15.5514 13.1865 15.9972 12.409 16.2515 11.6459C16.5638 10.7091 16.7263 9.29123 15.7176 8.28252C14.7089 7.27381 13.291 7.43628 12.3541 7.74858C11.5911 8.00293 10.8136 8.44866 10.0924 9.03152L11.1601 10.0993C12.5388 9.03289 13.997 8.68329 14.6569 9.34318C15.3168 10.0031 14.9672 11.4613 13.9008 12.8399L14.9686 13.9077ZM5.7157 9.12916L8.00233 11.4158C7.74983 11.8392 7.54771 12.2705 7.40545 12.6973C7.09316 13.6342 6.93068 15.052 7.93939 16.0607C8.9481 17.0694 10.3659 16.9069 11.3028 16.5946C11.7296 16.4524 12.1609 16.2503 12.5843 15.9978L14.7128 18.1263C9.50512 22.2049 4.55457 21.8483 2.93588 21.5864C2.58897 21.5302 2.32767 21.2708 2.26869 20.9243C1.99165 19.297 1.59083 14.3024 5.7157 9.12916ZM9.00005 15C9.49814 15.4981 10.4511 15.4211 11.4813 14.8948L9.10534 12.5188C8.57901 13.549 8.50196 14.5019 9.00005 15ZM21.5913 2.93472C21.7304 3.75175 21.9006 5.4176 21.5136 7.52873C21.2075 7.42711 20.8795 7.28156 20.5358 7.0922C19.8049 6.68954 19.0544 6.11691 18.3702 5.45347C17.3627 4.47637 16.6458 3.35504 16.332 2.38442C18.4465 1.98472 20.1084 2.1407 20.9241 2.27267C21.271 2.3288 21.5323 2.58827 21.5913 2.93472Z"/>
</symbol>

<symbol id="sailboat" viewBox="0 0 24 24">
  <path fill-rule="evenodd" clip-rule="evenodd" d="M11 1.39064V11.0003C11 11.2764 11.2239 11.5003 11.5 11.5003H19.4384C19.8613 11.5003 20.0932 11.0079 19.8239 10.6818L11.8855 1.0722C11.587 0.710841 11 0.921927 11 1.39064ZM11.2334 20.9499C11.6877 20.6092 12.3124 20.6091 12.7667 20.9499L12.8227 20.9919C14.3105 22.1077 16.3562 22.1077 17.844 20.9919C18.2881 20.6588 18.904 20.6789 19.3255 21.0402L20.0238 21.6388C20.6528 22.1779 21.5998 22.1051 22.1389 21.4761C22.678 20.8471 22.6052 19.9001 21.9762 19.361L21.2778 18.7624C19.7888 17.486 17.613 17.4152 16.044 18.5919C15.6229 18.9077 15.0438 18.9077 14.6227 18.5919L14.5667 18.5499C13.0457 17.4092 10.9543 17.4092 9.43336 18.5499L9.37734 18.5919C8.95622 18.9077 8.37717 18.9077 7.95605 18.5919C6.38706 17.4152 4.2113 17.486 2.72222 18.7624L2.02384 19.361C1.39485 19.9001 1.32201 20.8471 1.86114 21.4761C2.40028 22.1051 3.34723 22.1779 3.97621 21.6388L4.6746 21.0402C5.09608 20.6789 5.71194 20.6588 6.15605 20.9919C7.64384 22.1077 9.68955 22.1077 11.1773 20.9919L11.2334 20.9499ZM4.5869 11.5H8.99979C9.27594 11.5 9.49979 11.2761 9.49979 11V5.85159C9.49979 5.38738 8.92226 5.17374 8.62016 5.52619L4.20728 10.6746C3.92927 10.9989 4.15973 11.5 4.5869 11.5ZM22.157 13H1.84153C1.462 13 1.22084 13.4062 1.40258 13.7394L2.97088 16.6147C3.02131 16.7071 3.13466 16.7442 3.23165 16.7032C4.94488 15.9791 6.94314 16.1296 8.54859 17.1767C8.61878 17.2225 8.70999 17.2219 8.77956 17.1752C10.7258 15.8675 13.2743 15.8675 15.2205 17.1752C15.2901 17.2219 15.3813 17.2225 15.4515 17.1768C17.0566 16.1298 19.0543 15.9792 20.7672 16.7027C20.8642 16.7437 20.9775 16.7065 21.0279 16.6141L22.5959 13.7394C22.7777 13.4062 22.5365 13 22.157 13Z"/>
</symbol>

<symbol id="helmet" viewBox="0 0 24 24">
  <path fill-rule="evenodd" clip-rule="evenodd" d="M1.50199 11.7993C1.49992 11.9097 1.58965 12 1.70011 12H11.8001C11.9106 12 12.0001 12.0895 12.0001 12.2V18C12.0001 19.933 13.5671 21.5 15.5001 21.5C17.366 21.5 18.8908 20.0399 18.9945 18.2C19.0007 18.0897 19.0897 18 19.2001 18H20.5137C20.5791 18 20.6405 17.9681 20.6773 17.9141C21.8275 16.2298 22.5001 14.1935 22.5001 12C22.5001 6.20101 17.7991 1.5 12.0001 1.5C6.26817 1.5 1.60897 6.09292 1.50199 11.7993ZM17 18C17 18.8284 16.3285 19.5 15.5 19.5C14.6716 19.5 14 18.8284 14 18C14 17.1716 14.6716 16.5 15.5 16.5C16.3285 16.5 17 17.1716 17 18ZM11.1686 20.4999C11.118 20.4123 11.0699 20.3231 11.0246 20.2323L11.0228 20.2288C10.9332 20.049 10.8541 19.8632 10.7862 19.6719C10.7152 19.4715 10.6565 19.2651 10.6112 19.0538C10.5806 18.9114 10.4166 18.838 10.2946 18.9175L7.55654 20.702C7.49302 20.7434 7.41145 20.7455 7.34658 20.7062C6.80681 20.3796 6.30405 19.9977 5.84614 19.5686C5.81236 19.5369 5.77882 19.505 5.74553 19.4728C5.51779 19.2527 5.30163 19.0207 5.09805 18.7779C5.02176 18.6868 4.94725 18.5943 4.87455 18.5003C4.784 18.3832 4.8533 18.2143 4.9993 18.1898L10.3331 17.2941C10.4294 17.2779 10.5 17.1945 10.5 17.0969V15.4745C10.5 15.3508 10.3889 15.2567 10.2669 15.2772L2.9008 16.5142C2.58739 16.5668 2.31765 16.7653 2.17415 17.0488C2.03066 17.3324 2.03048 17.6673 2.17368 17.951C3.23409 20.0518 4.94768 21.7654 7.04851 22.8258C7.36676 22.9864 7.74646 22.9655 8.04512 22.7708L11.1055 20.7763C11.1971 20.7166 11.2234 20.5946 11.1686 20.4999Z"/>
</symbol>

<symbol id="skateboard" viewBox="0 0 24 24">
  <path fill-rule="evenodd" clip-rule="evenodd" d="M14.1217 3.51508L14.1216 3.51519L13.7676 3.16126C13.3771 2.77074 12.744 2.77074 12.3534 3.16126L10.9392 4.57547C10.5487 4.966 10.5487 5.59916 10.9392 5.98969L11.6463 6.69679C11.7127 6.76318 11.7861 6.81827 11.8641 6.86209L11.878 6.86975C12.257 7.07497 12.7407 7.01741 13.061 6.69706L14.4752 5.28285C14.8658 4.89232 14.8658 4.25916 14.4752 3.86863L14.1217 3.51508ZM15.5359 2.80797L15.2612 2.53327C16.9998 1.43777 19.3249 1.64719 20.8392 3.16153C22.3535 4.67586 22.5629 7.00096 21.4675 8.73953L21.1927 8.46483C20.2164 7.48851 18.6335 7.48851 17.6572 8.46483L17.4804 8.6416L15.3591 6.52028L15.5359 6.34351C16.5122 5.36719 16.5122 3.78428 15.5359 2.80797ZM14.2985 7.58094L14.1217 7.75772C13.1454 8.73403 11.5625 8.73403 10.5861 7.75772L10.2326 7.40417L7.40348 10.2333L7.75703 10.5868C8.73334 11.5631 8.73334 13.1461 7.75703 14.1224L7.58094 14.2985L9.70226 16.4198L9.87835 16.2437C10.8547 15.2674 12.4376 15.2674 13.4139 16.2437L13.7674 16.5972L16.5966 13.7681L16.243 13.4146C15.2667 12.4383 15.2667 10.8554 16.243 9.87904L16.4198 9.70226L14.2985 7.58094ZM6.34281 15.5366L6.52028 15.3591L8.6416 17.4804L8.46414 17.6579C7.48782 18.6342 7.48782 20.2171 8.46413 21.1934L8.73868 21.468C7.0002 22.5629 4.67561 22.3533 3.16153 20.8392C1.64744 19.3251 1.43784 17.0005 2.53273 15.262L2.80728 15.5366C3.78359 16.5129 5.3665 16.5129 6.34281 15.5366ZM12.3015 17.2561C11.9086 16.9138 11.3121 16.9296 10.9382 17.3036L9.52395 18.7178C9.13342 19.1084 9.13342 19.7415 9.52395 20.132L10.2311 20.8391C10.6216 21.2297 11.2547 21.2297 11.6453 20.8391L13.0595 19.4249C13.45 19.0344 13.45 18.4012 13.0595 18.0107L12.7067 17.658L12.7068 17.6579L12.3532 17.3043C12.3364 17.2875 12.3191 17.2715 12.3015 17.2561ZM20.1321 9.52549L20.4856 9.87904L20.4855 9.87915L20.8388 10.2324C21.2293 10.6229 21.2293 11.2561 20.8388 11.6466L19.4246 13.0608C19.034 13.4514 18.4009 13.4514 18.0104 13.0608L17.3032 12.3537C16.9127 11.9632 16.9127 11.33 17.3032 10.9395L18.7175 9.52529C19.0157 9.22708 19.4554 9.1566 19.8205 9.31383C19.829 9.31751 19.8376 9.32133 19.8461 9.32527C19.9496 9.37332 20.0467 9.44006 20.1321 9.52549ZM6.34276 11.294L6.34282 11.2939L6.69637 11.6475C6.80546 11.7566 6.88408 11.8846 6.93222 12.021C7.0565 12.3729 6.9779 12.7804 6.69643 13.0619L5.28221 14.4761C4.89169 14.8666 4.25852 14.8666 3.868 14.4761L3.16089 13.769C2.77037 13.3785 2.77037 12.7453 3.16089 12.3548L4.57511 10.9406C4.96563 10.55 5.5988 10.55 5.98932 10.9406L6.34276 11.294Z"/>
</symbol>

<symbol id="bicycle" viewBox="0 0 24 24">
  <path fill-rule="evenodd" clip-rule="evenodd" d="M17.2212 5.1263C17.3665 5.15948 17.5156 5.20136 17.6636 5.25422C18.3376 5.49501 18.8616 5.9072 19.0194 6.69616C19.1278 7.23772 19.6546 7.58892 20.1962 7.48059C20.7377 7.37226 21.0889 6.84543 20.9806 6.30387C20.6384 4.59319 19.4124 3.7552 18.3364 3.3708C17.2956 2.99897 16.2793 2.99979 16.0054 3.00001L15.9993 3.00002C15.7029 3.00023 15.4219 3.13192 15.232 3.35955C15.0422 3.58717 14.9631 3.88729 15.0161 4.1789L15.4212 6.40649L6.67392 10.5718L6.28095 9H7C7.55228 9 8 8.55228 8 8C8 7.44772 7.55228 7 7 7H5.00354H4.99845H3C2.44772 7 2 7.44772 2 8C2 8.55228 2.44772 9 3 9H4.2194L4.84506 11.5026C2.43152 11.5843 0.5 13.5666 0.5 16C0.5 18.4853 2.51472 20.5 5 20.5C7.48528 20.5 9.5 18.4853 9.5 16C9.5 14.4905 8.75676 13.1546 7.61628 12.3383L15.7918 8.44516L17.0161 15.1789C17.1149 15.7223 17.6355 16.0827 18.1789 15.9839C18.7223 15.8851 19.0827 15.3645 18.9839 14.8211L17.2212 5.1263ZM5 17.5C5.82843 17.5 6.5 16.8284 6.5 16C6.5 15.1716 5.82843 14.5 5 14.5C4.17157 14.5 3.5 15.1716 3.5 16C3.5 16.8284 4.17157 17.5 5 17.5ZM12.5 15.0008C12.5 13.1182 13.4459 11.4564 14.8884 10.465L15.7863 15.4033C16.0086 16.6259 17.1799 17.4368 18.4025 17.2145C19.6251 16.9922 20.436 15.8209 20.2137 14.5983L19.3157 9.65918C21.7179 10.2489 23.5 12.4167 23.5 15.0008C23.5 18.0384 21.0376 20.5008 18 20.5008C14.9624 20.5008 12.5 18.0384 12.5 15.0008Z"/>
</symbol>

<symbol id="scooter" viewBox="0 0 24 24">
  <path fill-rule="evenodd" clip-rule="evenodd" d="M14.5 2.5C13.9477 2.5 13.5 2.94772 13.5 3.5C13.5 4.05228 13.9477 4.5 14.5 4.5H15.909C16.3746 4.5 16.7787 4.82141 16.8834 5.27514L18.6199 12.8003C16.6931 13.4357 15.1978 15.0202 14.6886 17.001L6.09963 17.0017C5.58115 16.1041 4.61112 15.5 3.5 15.5C1.84315 15.5 0.5 16.8431 0.5 18.5C0.5 20.1569 1.84315 21.5 3.5 21.5C4.61003 21.5 5.57925 20.8971 6.0981 20.001L15.5 20.0006V20C16.0523 20 16.5 19.5523 16.5 19V18.4996C16.5 16.794 17.5682 15.3362 19.0725 14.7615L19.3005 15.7494C18.2407 16.2122 17.5 17.2696 17.5 18.5C17.5 20.1569 18.8431 21.5 20.5 21.5C22.1569 21.5 23.5 20.1569 23.5 18.5C23.5 17.1281 22.5791 15.9713 21.3218 15.614L18.8321 4.82542C18.518 3.46423 17.3059 2.5 15.909 2.5H14.5ZM20.4846 17.5001C20.4946 17.5003 20.5045 17.5003 20.5145 17.5001C21.0601 17.5078 21.5 17.9525 21.5 18.5C21.5 19.0523 21.0523 19.5 20.5 19.5C19.9477 19.5 19.5 19.0523 19.5 18.5C19.5 17.9528 19.9394 17.5083 20.4846 17.5001ZM3.5 17.5C2.94772 17.5 2.5 17.9477 2.5 18.5C2.5 19.0523 2.94772 19.5 3.5 19.5C4.05228 19.5 4.5 19.0523 4.5 18.5C4.5 17.9477 4.05228 17.5 3.5 17.5Z"/>
</symbol>

<symbol id="billiard-ball" viewBox="0 0 24 24">
  <path fill-rule="evenodd" clip-rule="evenodd" d="M22.5 12C22.5 17.799 17.799 22.5 12 22.5C6.20101 22.5 1.5 17.799 1.5 12C1.5 6.20101 6.20101 1.5 12 1.5C17.799 1.5 22.5 6.20101 22.5 12ZM16 13C16 16.3137 13.5376 19 10.5 19C7.46243 19 5 16.3137 5 13C5 9.68629 7.46243 7 10.5 7C13.5376 7 16 9.68629 16 13ZM9.75 11C9.75 10.5858 10.0858 10.25 10.5 10.25C10.9142 10.25 11.25 10.5858 11.25 11C11.25 11.4142 10.9142 11.75 10.5 11.75C10.0858 11.75 9.75 11.4142 9.75 11ZM12.75 11C12.75 11.526 12.5695 12.0098 12.2672 12.3929C12.868 12.8973 13.25 13.6541 13.25 14.5C13.25 16.0188 12.0188 17.25 10.5 17.25C8.98122 17.25 7.75 16.0188 7.75 14.5C7.75 13.6541 8.13197 12.8973 8.73284 12.3929C8.43046 12.0098 8.25 11.526 8.25 11C8.25 9.75736 9.25736 8.75 10.5 8.75C11.7426 8.75 12.75 9.75736 12.75 11ZM9.25 14.5C9.25 13.8096 9.80964 13.25 10.5 13.25C11.1904 13.25 11.75 13.8096 11.75 14.5C11.75 15.1904 11.1904 15.75 10.5 15.75C9.80964 15.75 9.25 15.1904 9.25 14.5Z"/>
</symbol>

<symbol id="fencing-sword" viewBox="0 0 24 24">
  <path fill-rule="evenodd" clip-rule="evenodd" d="M7.71355 13.2567L8.85969 12.1016L10.981 14.2229L9.84313 15.3697C9.78807 15.4252 9.72975 15.4755 9.66878 15.5206C10.662 17.4078 10.365 19.7967 8.77774 21.3839C8.53558 21.6261 8.27476 21.8382 7.99991 22.0203L5.59538 19.6158L5.59527 19.6159L3.47395 17.4946L3.47406 17.4945L1.07029 15.0907C1.25239 14.8159 1.46451 14.555 1.70667 14.3129C3.29424 12.7253 5.68378 12.4285 7.57122 13.4225C7.61398 13.3647 7.66142 13.3092 7.71355 13.2567ZM21.5646 3.55651L15.2071 9.96374L13.0858 7.8424L19.435 1.44349C20.0185 0.855418 20.9682 0.851714 21.5563 1.43521C22.1443 2.01871 22.148 2.96845 21.5646 3.55651ZM22.3852 14.3129C20.7976 12.7253 18.408 12.4285 16.5205 13.4225C16.4767 13.3633 16.428 13.3067 16.3744 13.253L4.56068 1.43934C3.97489 0.853553 3.02515 0.853553 2.43936 1.43934C1.85357 2.02513 1.85357 2.97487 2.43936 3.56066L14.2531 15.3744C14.3068 15.4281 14.3636 15.4769 14.4229 15.5208C13.4299 17.408 13.7269 19.7968 15.3141 21.3839C15.5563 21.6261 15.8171 21.8382 16.0919 22.0203L18.4965 19.6158L18.4966 19.6159L20.6179 17.4946L20.6178 17.4945L23.0215 15.0907C22.8394 14.8159 22.6273 14.555 22.3852 14.3129ZM23.0316 19.9084L21.6785 18.5553L19.5572 20.6766L20.9103 22.0297C21.4961 22.6155 22.4459 22.6155 23.0316 22.0297C23.6174 21.4439 23.6174 20.4941 23.0316 19.9084ZM1.06019 19.9084L2.41329 18.5553L4.53461 20.6766L3.18151 22.0297C2.59572 22.6155 1.64598 22.6155 1.06019 22.0297C0.474403 21.4439 0.474403 20.4941 1.06019 19.9084Z"/>
</symbol>

<symbol id="boxing" viewBox="0 0 24 24">
  <path d="M5.18502 12.7422C5.2439 1.90955 12.2713 -0.31929 16.1486 1.91926C19.1958 3.67853 20.3078 5.73241 20.17 7.37261C18.8922 7.21461 17.6663 7.79033 17.079 8.80759C16.5471 9.72884 16.5182 10.8027 16.9046 11.7089C17.067 12.09 17.5076 12.2672 17.8886 12.1047C18.2696 11.9423 18.4468 11.5017 18.2844 11.1207C18.0751 10.6297 18.092 10.053 18.3781 9.55759C18.6955 9.00776 19.6318 8.5883 20.5885 9.03035C22.536 10.2634 22.1342 12.5519 21.2418 14.0974C20.6497 15.123 19.2109 15.8621 17.6964 16.6402C16.6994 17.1524 15.6696 17.6814 14.827 18.3201C14.8224 18.3193 14.8178 18.3184 14.8132 18.3175C14.6818 18.2927 14.4855 18.2523 14.2354 18.1917C13.735 18.0705 13.0214 17.8687 12.1834 17.5491C11.3965 17.249 10.5023 16.8459 9.57301 16.3094C8.11808 15.4694 6.98987 14.5406 6.22685 13.8231C5.84582 13.4648 5.55731 13.1606 5.36609 12.9484C5.29025 12.8643 5.22979 12.7948 5.18502 12.7422Z"/>
  <path d="M4.45514 14.1733C4.65147 14.3821 4.90009 14.6345 5.19928 14.9159C6.02678 15.694 7.24685 16.6984 8.82301 17.6084C9.83066 18.1902 10.7985 18.6263 11.6489 18.9507C12.5546 19.2961 13.3298 19.5157 13.8822 19.6495C13.9161 19.6578 13.9492 19.6657 13.9814 19.6732L12.4609 22.3068C11.9087 23.2634 10.6855 23.5912 9.72889 23.0389L3.66677 19.5389C2.71019 18.9866 2.3822 17.7639 2.93448 16.8073L4.45514 14.1733Z"/>
</symbol>

<symbol id="boxing-bag" viewBox="0 0 24 24">
  <path fill-rule="evenodd" clip-rule="evenodd" d="M6 1C5.44772 1 5 1.44772 5 2C5 2.55228 5.44772 3 6 3H9.79623L7.74742 5.3415C7.72681 5.36506 7.7075 5.38931 7.68948 5.41417C7.30988 5.547 6.99527 5.73701 6.71007 6.01944C6.17167 6.55259 5.96003 7.21707 5.83571 8.25H18.2483C18.124 7.21707 17.9123 6.55259 17.3739 6.01944C17.0611 5.70966 16.7129 5.51107 16.2824 5.37716C16.2728 5.36511 16.2628 5.35322 16.2526 5.3415L14.2038 3H18C18.5523 3 19 2.55228 19 2C19 1.44772 18.5523 1 18 1H6ZM13.3288 5.03726L12 3.51859L10.667 5.04206C11.1364 5.01585 11.6021 5 12.042 5C12.4543 5 12.8893 5.01392 13.3288 5.03726ZM5.68492 10.1032L5.70848 9.75H18.3755L18.3991 10.1032C18.4806 11.332 18.542 12.6299 18.542 13.75C18.542 14.8256 18.4853 16.0651 18.4087 17.25H5.67531C5.59865 16.0651 5.54199 14.8256 5.54199 13.75C5.54199 12.6299 5.60343 11.332 5.68492 10.1032ZM6.71007 21.4806C6.08942 20.866 5.903 20.0769 5.78399 18.75H18.3C18.181 20.0769 17.9946 20.866 17.3739 21.4806C16.5666 22.28 15.5237 22.3389 13.4379 22.4568C12.9614 22.4837 12.4884 22.5 12.042 22.5C11.5956 22.5 11.1226 22.4837 10.6461 22.4568C8.56031 22.3389 7.5174 22.28 6.71007 21.4806Z"/>
</symbol>

<symbol id="bow-and-arrow" viewBox="0 0 24 24">
  <path fill-rule="evenodd" clip-rule="evenodd" d="M1.58405 1.37604C1.9287 1.14628 2.39435 1.23941 2.62412 1.58405C2.93824 2.05524 3.53036 2.3273 4.55373 2.4767C5.0527 2.54954 5.6068 2.58721 6.21801 2.62241L6.48695 2.63766C7.01265 2.66723 7.57294 2.69875 8.1354 2.75362C9.45311 2.88218 10.8776 3.14553 12.1495 3.88236C13.0133 4.38281 13.7814 5.0866 14.3992 6.06522L11.4432 9.0213C11.0787 8.02497 10.5716 7.30756 9.99446 6.76554C9.20705 6.02606 8.24271 5.56898 7.19434 5.20954C6.71891 5.04654 6.23826 4.90739 5.75207 4.76859L7.30585 13.159L5.58965 14.8752L3.58919 4.07266C2.73558 3.72335 1.92156 3.23437 1.37604 2.4161C1.14628 2.07146 1.23941 1.60581 1.58405 1.37604ZM14.9786 12.5569C15.9751 12.9214 16.6927 13.4285 17.2348 14.0056C17.9743 14.793 18.4315 15.7573 18.791 16.8056C18.9541 17.2812 19.0933 17.762 19.2322 18.2484L10.8414 16.6945L9.12519 18.4107L19.9285 20.4113C20.2778 21.2645 20.7667 22.0781 21.5847 22.6235C21.9294 22.8532 22.395 22.7601 22.6248 22.4154C22.8545 22.0708 22.7614 21.6051 22.4168 21.3754C21.9455 21.0612 21.6735 20.4691 21.524 19.4458C21.4511 18.9469 21.4134 18.3928 21.3782 17.7816L21.3629 17.5127L21.3629 17.5126V17.5126C21.3333 16.987 21.3018 16.4267 21.2469 15.8644C21.1182 14.5467 20.8548 13.1224 20.1179 11.8505C19.6174 10.9867 18.9135 10.2186 17.9348 9.60077L14.9786 12.5569ZM7.05631 18.3579L7.05624 20.3488C7.05623 20.466 7.00993 20.5785 6.9274 20.6617L5.14918 22.455C4.86975 22.7369 4.38917 22.5389 4.38922 22.1421L4.38952 19.666H1.90698C1.5111 19.666 1.31281 19.1874 1.59269 18.9074L3.36983 17.1297C3.4532 17.0463 3.56628 16.9995 3.68419 16.9995L5.58596 16.9998L17.6893 4.89645L16.7788 4.59293C16.209 4.40299 16.209 3.59701 16.7788 3.40707L21.3141 1.89528C21.8027 1.73242 22.2676 2.19725 22.1047 2.68585L20.5929 7.22122C20.403 7.79103 19.597 7.79103 19.4071 7.22122L19.1036 6.31066L7.05631 18.3579Z"/>
</symbol>

<symbol id="dart" viewBox="0 0 24 24">
  <path fill-rule="evenodd" clip-rule="evenodd" d="M19.4498 10.9139C19.2419 11.122 18.9929 11.2796 18.7218 11.3788C18.7405 11.5833 18.75 11.7906 18.75 12C18.75 15.7279 15.7279 18.75 12 18.75C8.27208 18.75 5.25 15.7279 5.25 12C5.25 8.27208 8.27208 5.25 12 5.25C12.2094 5.25 12.4165 5.25954 12.6211 5.27819C12.72 5.00761 12.8771 4.75896 13.0846 4.55123L15.5265 2.10687C14.4243 1.71395 13.2371 1.5 12 1.5C6.20101 1.5 1.5 6.20101 1.5 12C1.5 17.799 6.20101 22.5 12 22.5C17.799 22.5 22.5 17.799 22.5 12C22.5 10.7614 22.2855 9.57288 21.8917 8.46957L19.4498 10.9139ZM12.4997 7.96496L12.4996 6.77346C12.3352 6.75794 12.1685 6.75 12 6.75C9.1005 6.75 6.75 9.1005 6.75 12C6.75 14.8995 9.1005 17.25 12 17.25C14.8995 17.25 17.25 14.8995 17.25 12C17.25 11.8315 17.2421 11.6648 17.2265 11.5004L16.0355 11.5003L13.7679 13.7682C12.7917 14.7445 11.2088 14.7447 10.2324 13.7684C9.25598 12.7922 9.25586 11.2093 10.2321 10.2329L12.4997 7.96496ZM15.4146 9.99977L18.0347 9.99997C18.1673 9.99998 18.2945 9.94731 18.3882 9.85354L22.3322 5.91C22.644 5.59824 22.4289 5.06486 21.9881 5.05652L18.9995 4.99997L18.943 2.01126C18.9346 1.57044 18.4013 1.3554 18.0895 1.66716L14.1456 5.61088C14.0518 5.70466 13.9991 5.83185 13.9991 5.96448L13.9993 8.58661L11.2928 11.2935C10.9023 11.684 10.9024 12.3172 11.2929 12.7077C11.6835 13.0982 12.3167 13.0981 12.7072 12.7076L15.4146 9.99977Z"/>
</symbol>

<symbol id="target" viewBox="0 0 24 24">
    <path fill-rule="evenodd" clip-rule="evenodd" d="M13.25 1.5C13.25 0.809644 12.6904 0.25 12 0.25C11.3096 0.25 10.75 0.809644 10.75 1.5V3.59127C7.05617 4.13566 4.13566 7.05616 3.59127 10.75H1.5C0.809644 10.75 0.25 11.3096 0.25 12C0.25 12.6904 0.809644 13.25 1.5 13.25H3.59127C4.13566 16.9438 7.05617 19.8643 10.75 20.4087V22.5C10.75 23.1904 11.3096 23.75 12 23.75C12.6904 23.75 13.25 23.1904 13.25 22.5V20.4087C16.9438 19.8643 19.8643 16.9438 20.4087 13.25H22.5C23.1904 13.25 23.75 12.6904 23.75 12C23.75 11.3096 23.1904 10.75 22.5 10.75H20.4087C19.8643 7.05617 16.9438 4.13566 13.25 3.59127V1.5ZM8.25 12C8.25 9.92893 9.92893 8.25 12 8.25C14.0711 8.25 15.75 9.92893 15.75 12C15.75 14.0711 14.0711 15.75 12 15.75C9.92893 15.75 8.25 14.0711 8.25 12ZM12 6.75C9.1005 6.75 6.75 9.1005 6.75 12C6.75 14.8995 9.1005 17.25 12 17.25C14.8995 17.25 17.25 14.8995 17.25 12C17.25 9.1005 14.8995 6.75 12 6.75Z"/>
</symbol>

<symbol id="rings" viewBox="0 0 24 24">
  <path fill-rule="evenodd" clip-rule="evenodd" d="M2 2C1.44772 2 1 2.44772 1 3C1 3.55228 1.44772 4 2 4H6.5V7.58296C3.66229 8.05904 1.5 10.527 1.5 13.5C1.5 16.8137 4.18629 19.5 7.5 19.5C8.26782 19.5 9.00251 19.3553 9.67779 19.0921C9.25908 18.1781 9.01865 17.1654 9.00102 16.0984C8.55952 16.3542 8.04745 16.5 7.5 16.5C5.84315 16.5 4.5 15.1569 4.5 13.5C4.5 11.8431 5.84315 10.5 7.5 10.5C8.62319 10.5 9.60303 11.1179 10.1171 12.0319C10.6609 11.1528 11.3812 10.3945 12.2285 9.8064C11.3252 8.65134 10.0082 7.83587 8.5 7.58293V4H15.5V10.1103C12.6623 10.5864 10.5 13.0543 10.5 16.0273C10.5 19.3411 13.1863 22.0273 16.5 22.0273C19.8137 22.0273 22.5 19.3411 22.5 16.0273C22.5 13.0543 20.3377 10.5864 17.5 10.1103V4H22C22.5523 4 23 3.55228 23 3C23 2.44772 22.5523 2 22 2H16.5H7.5H2ZM16.5 13.0273C14.8431 13.0273 13.5 14.3705 13.5 16.0273C13.5 17.6842 14.8431 19.0273 16.5 19.0273C18.1569 19.0273 19.5 17.6842 19.5 16.0273C19.5 14.3705 18.1569 13.0273 16.5 13.0273Z"/>
</symbol>

<symbol id="fishing-gear" viewBox="0 0 24 24">
  <path fill-rule="evenodd" clip-rule="evenodd" d="M17.749 1.61315C4.27379 3.39302 0.682956 14.2694 1.58094 20.6655C1.73741 21.78 2.75954 22.4996 3.88498 22.4996C5.29048 22.4996 6.42717 21.3898 6.53251 19.9999C9.00283 19.9824 11 17.9744 11 15.5C11 13.5688 9.78342 11.9217 8.07483 11.2833C9.50179 7.81412 12.1955 4.90409 17.25 3.00983V6.93653C16.6588 7.32075 15.8138 7.95862 15.0756 8.85012C16.0291 9.45897 17.024 9.75 18 9.75C18.976 9.75 19.9709 9.45897 20.9244 8.85012C20.1862 7.95862 19.3412 7.32075 18.75 6.93653V2.5C18.75 2.48028 18.7492 2.46074 18.7477 2.4414C18.7153 1.93336 18.2612 1.54549 17.749 1.61315ZM18.7434 19.0678C20.0216 18.2385 22.5 16.2159 22.5 13C22.5 11.8887 22.204 10.9199 21.7639 10.0936C20.583 10.8553 19.3011 11.25 18 11.25C16.6989 11.25 15.417 10.8553 14.2361 10.0936C13.796 10.9199 13.5 11.8887 13.5 13C13.5 16.2159 15.9785 18.2385 17.2567 19.0678C17.1105 19.1475 16.9198 19.245 16.6923 19.3474C16.1127 19.6082 15.3116 19.8928 14.407 20.0059C14.0791 20.0469 13.8166 20.2977 13.7608 20.6234C13.705 20.9492 13.869 21.2731 14.1646 21.4209C14.1643 21.4207 14.1639 21.4205 14.1639 21.4205C14.164 21.4206 14.1645 21.4209 14.1662 21.4217L14.1856 21.4319C14.203 21.441 14.2264 21.4531 14.2552 21.4675C14.3128 21.4965 14.3897 21.5337 14.4852 21.5761C14.676 21.6609 14.9388 21.7655 15.2686 21.8669C15.9285 22.0698 16.855 22.259 18.0059 22.25C19.1503 22.2411 20.0711 22.0529 20.7269 21.8559C21.0547 21.7574 21.316 21.6567 21.5059 21.5753C21.6009 21.5346 21.6777 21.4988 21.7355 21.4708C21.7876 21.4456 21.8392 21.419 21.8355 21.4209C22.1311 21.2731 22.2951 20.9492 22.2393 20.6234C22.1835 20.2977 21.921 20.0469 21.5931 20.0059C20.6885 19.8928 19.8874 19.6082 19.3078 19.3474C19.0803 19.245 18.8896 19.1475 18.7434 19.0678ZM6.5 14.25C7.19036 14.25 7.75 14.8096 7.75 15.5C7.75 16.1904 7.19036 16.75 6.5 16.75C5.80964 16.75 5.25 16.1904 5.25 15.5C5.25 14.8096 5.80964 14.25 6.5 14.25ZM9.25 15.5C9.25 13.9812 8.01878 12.75 6.5 12.75C4.98122 12.75 3.75 13.9812 3.75 15.5C3.75 17.0188 4.98122 18.25 6.5 18.25C8.01878 18.25 9.25 17.0188 9.25 15.5Z"/>
</symbol>

<symbol id="parachute" viewBox="0 0 24 24">
  <path fill-rule="evenodd" clip-rule="evenodd" d="M3.38159 11.6964C3.7878 11.1001 4.49406 10.5 5.50036 10.5C6.63135 10.5 7.28858 11.258 7.68638 11.9167C7.89636 12.2644 8.25693 12.5 8.6631 12.5C9.15517 12.5 9.58046 12.1549 9.85022 11.7433C10.2509 11.132 10.9676 10.5 12.0004 10.5C13.1313 10.5 13.7886 11.258 14.1864 11.9167C14.3964 12.2644 14.7569 12.5 15.1631 12.5C15.6552 12.5 16.0805 12.1549 16.3502 11.7433C16.7509 11.132 17.4676 10.5 18.5004 10.5C19.5743 10.5 20.2211 11.1834 20.6242 11.8164C20.8812 12.22 21.3026 12.5 21.7811 12.5C22.4569 12.5 23.0211 11.9665 22.9753 11.2923C22.5921 5.64703 17.7827 1 12.0004 1C6.17947 1 1.3446 5.70917 1.0183 11.4053C0.983276 12.0167 1.49396 12.5 2.10641 12.5C2.63179 12.5 3.08579 12.1306 3.38159 11.6964ZM9.68401 18.4213L8.01263 13.6578C8.21645 13.7177 8.43374 13.7507 8.66193 13.7507C9.19421 13.7507 9.64736 13.5751 10.0163 13.3276L11.9996 18.98L13.9541 13.4097C14.3006 13.6212 14.7099 13.7507 15.162 13.7507C15.4715 13.7507 15.7543 13.6913 16.0094 13.5929L14.3152 18.4213L20.0855 12.9395C20.6226 13.3774 21.3102 13.7236 22.137 13.7492L12.6884 22.7254C12.3024 23.0921 11.6968 23.0921 11.3109 22.7254L1.83691 13.7251C2.44152 13.6477 2.96287 13.4045 3.38494 13.1385C3.5329 13.0453 3.67518 12.945 3.8109 12.8418L9.68401 18.4213Z"/>
</symbol>

<symbol id="cricket" viewBox="0 0 24 24">
  <path d="M22.21,23.54l-6.04-6-2.1.66L.25,4.39C.51,2.27,2.27.49,4.41.25l13.8,13.79-.64,2.12,5.96,5.99c.32.32.26,1.07.06,1.33s-1,.44-1.38.07Z"/>
  <circle cx="6.47" cy="16.14" r="2.07"/>
</symbol>

<symbol id="handball" viewBox="0 0 24 24">
  <path d="M19.37,12.44c.43-.28.59-.82.43-1.3s-.59-.8-1.11-.8h-2.74c-.17,0-.26-.05-.36-.19-.53-.79-1.05-1.58-1.59-2.35-.71-1.02-1.65-1.65-2.91-1.72-1.47-.06-2.94-.05-4.42-.03-.39,0-.71.2-.94.53-.08.12-.17.23-.25.36-.59.8-1.18,1.62-1.76,2.43-.29.4-.36.82-.12,1.27.4.8,1.47.88,2.03.15.54-.73,1.05-1.45,1.58-2.18.06-.08.14-.17.22-.19.46-.02.94-.02,1.45-.02-.08.12-.11.2-.17.28-.79,1.21-1.58,2.41-2.38,3.63-.37.57-.56,1.19-.56,1.87v3.59c0,.22-.05.31-.28.36-.6.14-1.19.29-1.79.45-.43.11-.88.22-1.31.32-.6.14-1.02.46-1.22,1.02-.06.23-.08.46-.02.71.05.19.12.34.22.48.32.53.88.79,1.48.63,1.56-.37,3.12-.77,4.67-1.18.73-.19,1.13-.74,1.13-1.5,0-.59-.02-1.18,0-1.75,0-.15.06-.32.14-.45,1.22-1.81,2.44-3.6,3.68-5.4.19-.28.39-.56.59-.87.36.53.7,1.02,1.04,1.52.23.36.57.54.99.54,1.21,0,2.41.02,3.6-.02.23.02.49-.08.7-.22h0ZM14.17,17.03c-.2-.51-.76-.85-1.16-1.21-.51-.43-1.02-.85-1.52-1.28-.42.62-.84,1.22-1.25,1.84-.09.14-.25.31-.31.46-.06.14-.06.09.06.2.06.06.14.12.2.17.26.23.54.46.82.68.26.22.42.32.42.68v2.61c0,.67-.12,1.47.32,2.03.62.77,1.98.71,2.41-.23.17-.37.15-.76.15-1.16v-1.22s0-.31,0-.39v-1.44c-.05-.54.06-1.22-.15-1.75h0Z"/>
  <path d="M19.91,14.4c1.66,0,3,1.34,3,3s-1.34,3-3,3-3-1.34-3-3,1.34-3,3-3ZM14.73.25c1.59,0,2.88,1.29,2.88,2.88s-1.29,2.88-2.88,2.88-2.88-1.29-2.88-2.88S13.14.25,14.73.25Z"/>
</symbol>

</svg>