<svg id="tickCircleIcon" width="14" height="14" viewBox="0 0 14 14" fill="currentColor" xmlns="http://www.w3.org/2000/svg">
<path d="M6.99984 1.16667C3.78567 1.16667 1.1665 3.78584 1.1665 7C1.1665 10.2142 3.78567 12.8333 6.99984 12.8333C10.214 12.8333 12.8332 10.2142 12.8332 7C12.8332 3.78584 10.214 1.16667 6.99984 1.16667ZM9.78817 5.65834L6.48067 8.96584C6.399 9.0475 6.28817 9.09417 6.1715 9.09417C6.05484 9.09417 5.944 9.0475 5.86234 8.96584L4.2115 7.315C4.04234 7.14584 4.04234 6.86584 4.2115 6.69667C4.38067 6.5275 4.66067 6.5275 4.82984 6.69667L6.1715 8.03834L9.16984 5.04001C9.339 4.87084 9.619 4.87084 9.78817 5.04001C9.95734 5.20917 9.95734 5.48334 9.78817 5.65834Z" fill="currentColor"/>
</svg>
