<svg id="convertCardIcon" width="20" height="20" viewBox="0 0 20 20" fill="none" xmlns="http://www.w3.org/2000/svg">
<path d="M18.3333 12.5C18.3333 15.725 15.725 18.3333 12.5 18.3333L13.375 16.875" stroke="currentColor" stroke-width="1.5" stroke-linecap="round" stroke-linejoin="round"/>
<path d="M1.6665 7.5013C1.6665 4.2763 4.27484 1.66797 7.49984 1.66797L6.62484 3.1263" stroke="currentColor" stroke-width="1.5" stroke-linecap="round" stroke-linejoin="round"/>
<path d="M18.3333 3.5013V3.59297C18.3333 3.8263 18.15 4.00964 17.9167 4.00964H10.4167C10.1833 4.00964 10 3.8263 10 3.59297V3.5013C10 2.03464 10.3667 1.66797 11.85 1.66797H16.4833C17.9667 1.66797 18.3333 2.03464 18.3333 3.5013Z" fill="currentColor"/>
<path d="M10.4167 4.83984C10.1833 4.83984 10 5.02318 10 5.25651V6.08984V6.91484C10 8.38151 10.3667 8.74818 11.85 8.74818H16.4833C17.9667 8.74818 18.3333 8.38151 18.3333 6.91484V6.08984V5.25651C18.3333 5.02318 18.15 4.83984 17.9167 4.83984H10.4167Z" fill="currentColor"/>
<path d="M9.99984 13.0833V13.175C9.99984 13.4083 9.8165 13.5917 9.58317 13.5917H2.08317C1.84984 13.5917 1.6665 13.4083 1.6665 13.175V13.0833C1.6665 11.6167 2.03317 11.25 3.5165 11.25H8.14984C9.63317 11.25 9.99984 11.6167 9.99984 13.0833Z" fill="currentColor"/>
<path d="M2.08317 14.4258C1.84984 14.4258 1.6665 14.6091 1.6665 14.8424V15.6758V16.5008C1.6665 17.9674 2.03317 18.3341 3.5165 18.3341H8.14984C9.63317 18.3341 9.99984 17.9674 9.99984 16.5008V15.6758V14.8424C9.99984 14.6091 9.8165 14.4258 9.58317 14.4258H2.08317Z" fill="currentColor"/>
</svg>
