<svg id="liveIcon" width="18" height="18" viewBox="0 0 18 18" fill="none" xmlns="http://www.w3.org/2000/svg">
<path d="M13.6332 0.667969H4.3415C2.3165 0.667969 0.666504 2.31797 0.666504 4.34297V9.75964V9.9263C0.666504 11.9596 2.3165 13.6013 4.3415 13.6013H7.5415C7.99984 13.6013 8.37484 13.9763 8.37484 14.4346V15.243C8.37484 15.7013 7.99984 16.0763 7.5415 16.0763H5.52484C5.18317 16.0763 4.89984 16.3596 4.89984 16.7013C4.89984 17.043 5.17484 17.3346 5.52484 17.3346H12.4832C12.8248 17.3346 13.1082 17.0513 13.1082 16.7096C13.1082 16.368 12.8248 16.0846 12.4832 16.0846H10.4665C10.0082 16.0846 9.63317 15.7096 9.63317 15.2513V14.443C9.63317 13.9846 10.0082 13.6096 10.4665 13.6096H13.6415C15.6748 13.6096 17.3165 11.9596 17.3165 9.93464V9.76797V4.3513C17.3082 2.31797 15.6582 0.667969 13.6332 0.667969Z" fill="currentColor"/>
</svg>
