<svg id="promotionsIcon" width="18" height="14" viewBox="0 0 18 14" fill="none" xmlns="http://www.w3.org/2000/svg">
<path d="M16.7498 6.03151C17.0748 6.03151 17.3332 5.77318 17.3332 5.44818V4.67318C17.3332 1.25651 16.2915 0.214844 12.8748 0.214844H5.12484C1.70817 0.214844 0.666504 1.25651 0.666504 4.67318V5.06484C0.666504 5.38984 0.924837 5.64818 1.24984 5.64818C1.99984 5.64818 2.60817 6.25651 2.60817 7.00651C2.60817 7.75651 1.99984 8.35651 1.24984 8.35651C0.924837 8.35651 0.666504 8.61484 0.666504 8.93984V9.33151C0.666504 12.7482 1.70817 13.7898 5.12484 13.7898H12.8748C16.2915 13.7898 17.3332 12.7482 17.3332 9.33151C17.3332 9.00651 17.0748 8.74818 16.7498 8.74818C15.9998 8.74818 15.3915 8.13984 15.3915 7.38984C15.3915 6.63984 15.9998 6.03151 16.7498 6.03151ZM6.49984 4.39818C6.95817 4.39818 7.33317 4.77318 7.33317 5.23151C7.33317 5.68984 6.9665 6.06484 6.49984 6.06484C6.0415 6.06484 5.6665 5.68984 5.6665 5.23151C5.6665 4.77318 6.03317 4.39818 6.49984 4.39818ZM11.4998 10.2315C11.0332 10.2315 10.6582 9.85651 10.6582 9.39818C10.6582 8.93984 11.0332 8.56484 11.4915 8.56484C11.9498 8.56484 12.3248 8.93984 12.3248 9.39818C12.3248 9.85651 11.9665 10.2315 11.4998 10.2315ZM12.2498 4.89818L6.6415 10.5065C6.5165 10.6315 6.35817 10.6898 6.19984 10.6898C6.0415 10.6898 5.88317 10.6315 5.75817 10.5065C5.5165 10.2648 5.5165 9.86484 5.75817 9.62318L11.3665 4.01484C11.6082 3.77318 12.0082 3.77318 12.2498 4.01484C12.4915 4.25651 12.4915 4.65651 12.2498 4.89818Z" fill="currentColor"/>
</svg>
