<svg width="21" height="20" viewBox="0 0 21 20" fill="none" xmlns="http://www.w3.org/2000/svg">
<path fill-rule="evenodd" clip-rule="evenodd" d="M16.6302 2.89598C16.2326 2.66451 15.7856 2.51377 15.3123 2.44609L14.0552 3.70318L13.068 2.7159C12.6729 2.86489 12.2833 3.06796 11.9105 3.32625L13.1714 4.58706L11.6982 6.0602L10.4375 4.79951C10.1793 5.17237 9.97627 5.56204 9.82735 5.9571L10.8143 6.94408L9.55791 8.20051C9.62558 8.67379 9.77632 9.12079 10.0078 9.51839L11.6982 7.82796L12.8767 9.00648L11.1865 10.6967C11.5842 10.9281 12.0313 11.0787 12.5047 11.1462L13.7606 9.89036L14.7469 10.8766C15.1419 10.7277 15.5316 10.5247 15.9045 10.2664L14.6445 9.00648L16.1176 7.53334L17.3777 8.79343C17.636 8.42063 17.8391 8.03102 17.9881 7.63601L17.0015 6.64946L18.2581 5.39291C18.1905 4.91953 18.0399 4.4724 17.8085 4.07468L16.1176 5.76557L14.9391 4.58706L16.6302 2.89598ZM18.18 2.52398C16.0797 0.423669 12.5124 0.825897 10.225 3.11323C8.95029 4.38798 8.26104 6.06029 8.26417 7.65465C8.11893 8.63854 7.80418 9.93913 7.47384 11.0536C7.30608 11.6196 7.13758 12.1264 6.98985 12.5102C6.91571 12.7028 6.85006 12.8559 6.79551 12.9666C6.7607 13.0372 6.73855 13.0734 6.73015 13.0871C6.72926 13.0885 6.72852 13.0898 6.72793 13.0907C6.72712 13.0921 6.72662 13.0929 6.72643 13.0934L5.50562 14.3113C5.4846 14.3127 5.46344 14.315 5.44215 14.318L4.75469 14.4162C4.57619 14.4417 4.41078 14.5244 4.28329 14.6519L2.1225 16.8127C1.79706 17.1381 1.79706 17.6658 2.1225 17.9912L2.71175 18.5805C3.03719 18.9059 3.56482 18.9059 3.89026 18.5805L6.05105 16.4197C6.17855 16.2922 6.26125 16.1268 6.28675 15.9483L6.38496 15.2608C6.38822 15.238 6.39054 15.2153 6.39194 15.1928L7.61017 13.9774C7.6107 13.9773 7.61278 13.976 7.6167 13.9736C7.63042 13.9652 7.66662 13.9431 7.7372 13.9083C7.84784 13.8537 8.00093 13.7881 8.19355 13.7139C8.57735 13.5662 9.08418 13.3977 9.65017 13.2299C10.7641 12.8997 12.0641 12.5851 13.0478 12.4398C14.6426 12.4434 16.3156 11.7541 17.5907 10.4789C19.8781 8.19159 20.2803 4.62428 18.18 2.52398ZM8.6723 11.4088C8.78098 11.0422 8.88885 10.6534 8.99044 10.2594C9.17071 10.5467 9.38548 10.8179 9.63579 11.0682C9.88602 11.3184 10.1571 11.5331 10.4443 11.7133C10.0503 11.8149 9.66155 11.9228 9.29494 12.0315C8.97458 12.1264 8.66776 12.223 8.38604 12.3177C8.48079 12.036 8.57735 11.7292 8.6723 11.4088ZM14.0552 5.47094L12.5821 6.94408L13.7606 8.12259L15.2337 6.64945L14.0552 5.47094Z" fill="#D8FF68"/>
</svg>
