<svg width="21" height="20" viewBox="0 0 21 20" fill="none" xmlns="http://www.w3.org/2000/svg">
<path fill-rule="evenodd" clip-rule="evenodd" d="M19.245 10.2994C17.0746 7.9382 13.9602 6.45845 10.5002 6.45845C10.3437 6.45845 10.1879 6.46148 10.0329 6.46747C10.114 7.45925 10.3893 8.44947 10.8744 9.3828C12.3465 9.44335 13.7284 9.85953 14.9347 10.548C16.3445 11.3526 17.5151 12.5297 18.3121 13.9455C18.8696 12.8437 19.201 11.608 19.245 10.2994ZM17.5424 15.1939C15.9488 17.3511 13.3878 18.75 10.5 18.75C5.66751 18.75 1.75 14.8325 1.75 10C1.75 5.16751 5.66751 1.25 10.5 1.25C10.4999 1.25 10.5001 1.25 10.5 1.25C10.3356 1.25 10.1725 1.25453 10.0104 1.26348C9.99298 1.29287 9.97576 1.32235 9.95871 1.35192C9.1652 2.7284 8.74955 4.29655 8.75748 5.88587C8.76441 7.27484 9.09491 8.67961 9.77853 9.98476C9.21278 10.8715 8.49287 11.605 7.67452 12.1712C7.59183 12.0399 7.51131 11.9065 7.43304 11.771C5.70256 8.77366 5.42721 5.33556 6.38783 2.27467C5.83057 2.57193 5.30927 2.92773 4.83211 3.33384C4.24935 6.33106 4.70396 9.54405 6.35051 12.396C6.42876 12.5315 6.50907 12.6651 6.59139 12.7968C5.31862 13.4001 3.89376 13.6495 2.47917 13.5019C2.67654 13.9534 2.91092 14.3849 3.17846 14.7928C4.80279 14.8103 6.40715 14.385 7.80857 13.5665C9.00798 12.866 10.0593 11.8774 10.8478 10.6328C11.8986 10.6794 12.8939 10.9361 13.7933 11.3618C13.721 11.4991 13.6457 11.6356 13.5674 11.7712C13.3883 12.0814 13.1974 12.3803 12.9956 12.6678C11.2467 15.1597 8.67412 16.7977 5.8673 17.4242C6.3958 17.7547 6.96212 18.0303 7.5583 18.2431C10.0998 17.3687 12.3845 15.7145 14.0188 13.3859C14.2417 13.0683 14.4524 12.7383 14.6499 12.3962C14.7282 12.2606 14.8038 12.1242 14.8767 11.987C16.0349 12.7873 16.9629 13.8959 17.5424 15.1939ZM11.4774 1.30397C15.3278 1.73192 18.4243 4.65848 19.1088 8.42567C16.8043 6.4217 13.7939 5.20845 10.5002 5.20845C10.3438 5.20845 10.1879 5.2112 10.0327 5.21663C10.1252 4.0783 10.4693 2.96908 11.0417 1.97622C11.1747 1.7455 11.32 1.52106 11.4774 1.30397Z" fill="#D8FF68"/>
</svg>
