<?xml version="1.0" standalone="no"?>
<!DOCTYPE svg PUBLIC "-//W3C//DTD SVG 20010904//EN"
 "http://www.w3.org/TR/2001/REC-SVG-20010904/DTD/svg10.dtd">
<svg version="1.0" xmlns="http://www.w3.org/2000/svg"
 width="400.000000pt" height="400.000000pt" viewBox="0 0 400.000000 400.000000"
 preserveAspectRatio="xMidYMid meet">

<g transform="translate(0.000000,400.000000) scale(0.100000,-0.100000)"
fill="#000000" stroke="none">
<path d="M0 3778 c1 -157 4 -218 11 -206 9 17 12 17 40 2 17 -8 47 -33 68 -55
29 -29 47 -39 70 -39 17 0 31 4 31 9 0 5 9 7 20 4 11 -3 20 0 20 6 0 20 104
13 133 -9 21 -17 34 -19 69 -14 24 4 49 12 56 17 8 6 26 11 40 12 23 0 26 4
24 24 -3 20 0 23 17 18 12 -3 29 3 42 14 12 10 28 19 36 19 8 0 28 8 46 17 59
31 108 34 147 10 19 -12 42 -22 50 -22 8 0 16 -10 18 -22 3 -22 22 -33 22 -13
0 6 9 10 20 10 11 0 20 5 20 10 0 16 27 12 46 -7 16 -17 17 -16 10 19 -6 31
-3 39 14 48 33 18 50 5 51 -37 l1 -38 9 30 c5 17 7 36 4 43 -2 6 1 12 8 12 7
0 32 18 57 40 38 35 51 40 91 40 26 0 59 7 75 14 25 13 31 13 57 -2 46 -27 53
-40 31 -57 -18 -13 -17 -14 12 -15 22 0 34 -7 42 -22 36 -72 -6 -131 -69 -98
-11 7 -19 7 -19 1 0 -5 5 -11 11 -13 16 -5 -26 -53 -59 -67 -15 -6 -36 -26
-45 -44 -24 -43 -116 -139 -128 -132 -5 4 -6 -1 -3 -9 3 -9 11 -16 18 -16 83
-2 183 -15 189 -24 6 -7 7 -4 3 7 -6 20 4 22 23 5 11 -11 11 -9 0 9 -10 16
-10 25 -1 35 11 14 6 54 -9 74 -5 6 -4 11 4 12 6 0 22 4 35 7 18 6 22 4 22
-16 0 -13 7 -37 15 -53 9 -16 13 -36 11 -43 -3 -7 -1 -13 4 -13 6 0 10 5 10
10 0 11 167 12 215 1 49 -12 75 6 75 51 0 21 -4 38 -10 38 -5 0 -10 10 -10 23
0 17 2 19 10 7 5 -8 11 -12 13 -10 6 7 26 100 21 100 -9 0 -121 -64 -139 -79
-31 -28 -52 -31 -69 -12 -15 16 -15 19 -1 31 8 7 25 30 36 50 12 21 30 41 40
43 12 3 16 11 12 26 -4 17 -11 20 -40 17 -19 -3 -45 -12 -58 -20 -33 -21 -35
-21 -32 14 1 16 5 30 10 30 4 0 7 6 7 13 1 25 49 67 78 67 29 0 72 31 72 53 0
7 4 6 10 -3 16 -24 13 6 -9 85 -26 97 -34 148 -23 141 5 -3 13 -18 16 -33 9
-38 136 -353 153 -378 13 -19 13 -19 13 2 0 12 4 24 10 28 5 3 1 19 -10 38
-33 54 -60 123 -67 175 l-5 32 45 0 c39 0 44 -2 40 -19 -3 -10 0 -22 6 -25 6
-4 11 0 11 8 0 8 14 29 31 47 22 23 29 37 25 54 -8 31 6 40 21 13 9 -18 12
-19 13 -6 0 9 6 21 13 25 6 5 32 30 57 56 l44 47 -1072 0 -1072 0 0 -222z
m1793 82 c3 -11 3 -20 1 -20 -2 0 -8 9 -14 20 -6 11 -7 20 -2 20 6 0 12 -9 15
-20z m-63 -21 c0 -17 -31 -38 -56 -39 -11 0 -30 -13 -42 -30 -13 -16 -31 -30
-42 -30 -10 0 -22 -4 -25 -10 -3 -5 -10 -10 -16 -10 -11 0 -12 40 -1 56 11 16
52 24 53 11 0 -8 2 -8 6 1 2 6 11 12 19 12 8 0 14 5 14 10 0 6 9 10 20 10 11
0 20 7 20 15 0 9 9 15 25 15 14 0 25 -5 25 -11z m-1643 -71 c21 -17 -7 -48
-44 -48 -28 0 -33 4 -33 23 0 13 2 26 4 28 9 9 62 7 73 -3z m1473 -123 c-7 -9
-15 -13 -17 -11 -7 7 7 26 19 26 6 0 6 -6 -2 -15z m-13 -67 c-3 -8 -6 -5 -6 6
-1 11 2 17 5 13 3 -3 4 -12 1 -19z m-980 -50 c-3 -8 -6 -5 -6 6 -1 11 2 17 5
13 3 -3 4 -12 1 -19z"/>
<path d="M2270 3976 c0 -30 -37 -247 -51 -298 -5 -21 -13 -38 -17 -38 -4 0
-13 25 -20 56 -8 31 -23 70 -34 87 l-20 32 7 -104 c3 -58 6 -107 7 -110 3 -32
-4 -83 -10 -75 -17 18 -42 117 -42 163 0 33 -9 60 -30 96 -31 52 -41 56 -15 6
8 -16 12 -31 10 -33 -3 -3 2 -27 10 -54 20 -65 19 -85 -1 -77 -13 5 -14 2 -6
-13 14 -26 42 -162 42 -201 0 -41 -14 -42 -30 -4 -6 16 -20 37 -31 47 -10 9
-19 25 -19 34 0 10 -7 20 -15 24 -16 6 -21 -9 -6 -18 5 -4 12 -40 16 -82 6
-58 11 -74 21 -70 21 8 17 -10 -10 -38 -30 -33 -33 -32 -41 3 -3 16 -13 35
-21 42 -12 9 -14 6 -14 -19 0 -39 -16 -82 -37 -97 -9 -6 -13 -18 -10 -26 4
-11 6 -10 6 2 3 48 122 47 222 -2 10 -4 21 -3 28 4 27 27 19 -7 -19 -83 -23
-45 -44 -80 -47 -76 -3 3 7 27 22 53 15 26 21 41 12 33 -17 -17 -67 -104 -67
-117 0 -4 7 1 15 11 8 11 15 16 15 12 0 -21 66 44 111 109 29 41 56 72 61 69
4 -3 8 1 8 9 0 8 7 17 15 21 13 5 13 2 0 -27 l-16 -32 20 25 c24 29 28 15 6
-17 -9 -13 -23 -20 -34 -18 -15 3 -33 -15 -70 -66 -28 -38 -55 -69 -60 -69 -6
0 -16 -10 -22 -22 -11 -22 -11 -22 16 2 46 41 74 70 69 70 -2 0 8 18 22 40 28
42 40 51 30 23 -5 -15 -4 -15 9 1 8 11 15 16 15 12 0 -13 -22 -51 -44 -73 -12
-11 -30 -36 -40 -55 l-19 -33 23 20 23 20 -12 -22 c-14 -28 -14 -33 3 -33 8 0
16 7 20 15 3 8 10 14 17 13 6 -2 16 13 23 32 l11 35 58 -3 c32 -1 72 -8 90
-16 l32 -13 -37 -8 c-21 -4 -38 -12 -38 -17 0 -6 11 -8 28 -4 71 17 109 17
162 -2 40 -14 56 -24 58 -40 3 -17 -5 -23 -44 -34 -49 -14 -71 -38 -35 -38 26
0 91 31 91 43 0 5 15 6 33 3 26 -5 40 -1 67 19 19 14 29 25 22 25 -7 0 -12 5
-12 10 0 6 17 10 38 10 33 -1 35 -2 17 -13 -18 -11 -17 -12 15 -17 l35 -5 2
-90 c0 -49 9 -123 19 -163 17 -66 17 -74 2 -88 -22 -22 -99 -30 -129 -13 -13
7 -40 15 -59 18 -44 8 -52 40 -20 84 13 16 16 26 9 22 -25 -15 -112 -89 -141
-120 -32 -35 -37 -61 -10 -50 9 4 31 11 49 16 18 6 35 14 38 19 4 6 28 10 55
10 35 0 59 -7 89 -27 23 -15 41 -31 41 -36 0 -5 6 -7 14 -4 8 3 16 1 18 -5 3
-7 32 8 70 35 79 57 107 59 198 16 76 -36 116 -43 124 -23 8 21 32 17 43 -8 9
-22 11 -20 30 22 11 25 45 75 76 111 31 37 53 70 49 74 -4 5 -2 5 4 2 6 -4 20
4 32 16 71 75 52 203 -52 362 l-39 60 33 -30 33 -30 -26 36 c-15 20 -27 42
-27 50 0 8 -5 20 -12 27 -15 15 -6 24 33 28 17 2 46 13 64 24 35 21 60 26 50
10 -8 -13 20 -13 64 0 19 5 37 8 39 6 6 -6 -77 -42 -115 -51 -38 -8 -54 -25
-24 -25 11 0 26 -7 35 -15 21 -22 56 -19 111 10 27 13 52 22 55 20 4 -3 13
-18 20 -35 15 -37 30 -39 30 -3 0 14 -3 23 -7 20 -11 -11 -45 54 -37 72 4 9 6
25 5 37 -1 11 5 26 13 34 27 21 86 230 122 430 7 41 12 76 10 77 -2 2 -13 -32
-26 -74 -25 -86 -80 -219 -112 -272 l-21 -33 -18 23 c-14 19 -20 22 -30 12
-10 -11 -9 -22 9 -58 26 -53 30 -135 8 -135 -23 0 -31 22 -43 128 -4 41 -10
52 -23 52 -12 0 -19 -10 -23 -32 -10 -64 -29 -128 -37 -128 -18 0 -31 61 -28
140 3 85 16 110 35 68 10 -21 11 -20 18 17 4 22 13 72 21 112 8 40 14 95 14
123 0 27 4 50 9 50 5 0 9 -6 8 -12 -1 -39 4 -48 28 -48 14 0 25 -5 25 -11 0
-5 5 -7 10 -4 6 4 18 1 27 -6 13 -11 17 -10 29 5 8 12 21 17 34 13 11 -3 23 0
27 5 3 7 1 8 -5 4 -8 -5 -12 0 -12 13 0 12 5 21 11 21 5 0 7 -4 4 -10 -3 -5
-2 -10 3 -10 6 0 13 7 16 16 4 10 2 13 -6 8 -8 -5 -9 -2 -5 10 4 10 7 20 7 22
0 3 5 2 12 -2 7 -5 8 -3 4 5 -10 16 22 51 40 44 8 -3 14 0 14 6 0 8 -70 11
-236 11 -185 0 -234 -3 -228 -12 26 -45 57 -76 70 -71 8 3 14 0 14 -7 0 -6 -4
-8 -10 -5 -20 12 -9 -10 21 -45 23 -27 27 -29 18 -10 -11 22 -10 23 3 13 12
-11 17 -9 26 13 7 14 12 33 12 44 0 10 5 22 10 25 24 15 -1 -135 -40 -238 -22
-57 -40 -67 -40 -21 0 23 -14 33 -23 16 -3 -4 0 -31 5 -60 10 -47 8 -57 -13
-97 -13 -25 -27 -45 -31 -45 -14 0 -20 72 -13 154 5 68 4 86 -8 93 -8 4 -17
15 -20 23 -3 8 -6 -5 -6 -30 0 -42 1 -44 14 -26 18 23 19 17 4 -21 -8 -22 -12
-24 -19 -13 -7 11 -10 6 -10 -17 0 -18 -4 -33 -9 -33 -14 0 -28 71 -30 160 -1
46 -6 90 -10 98 -12 22 -33 -36 -40 -113 l-7 -70 -21 45 c-11 25 -38 91 -59
148 -29 78 -42 102 -56 102 -28 0 -27 -61 3 -127 23 -51 24 -59 4 -43 -12 10
-15 9 -15 -7 0 -10 -5 -24 -11 -30 -16 -16 -1 -35 24 -32 46 4 115 -42 152
-102 14 -21 25 -41 25 -44 0 -6 -101 60 -151 98 -47 35 -53 34 -33 -5 17 -33
16 -33 -3 -16 -19 17 -19 17 -15 -11 5 -34 -40 -124 -93 -186 l-35 -40 0 53
c0 32 -4 52 -11 52 -7 0 0 10 15 21 16 12 25 27 22 36 -3 8 -1 11 4 8 6 -3 10
-1 10 5 0 6 12 28 26 50 15 22 24 43 21 46 -6 7 -77 -84 -77 -100 0 -6 -4 -4
-9 3 -8 12 -12 10 -22 -11 -9 -21 -9 -38 0 -72 6 -25 11 -63 11 -85 0 -23 3
-41 6 -41 4 0 21 8 38 19 58 35 73 35 90 2 9 -17 16 -32 16 -35 0 -2 -17 -10
-37 -17 -32 -10 -35 -13 -18 -19 11 -4 22 -18 25 -31 4 -14 13 -23 23 -23 21
2 23 -29 3 -45 -8 -6 -16 -21 -19 -32 -4 -15 -2 -18 7 -10 7 6 17 7 21 3 5 -4
5 -2 2 4 -10 18 25 40 63 39 45 -1 60 -11 60 -39 0 -21 -6 -25 -47 -31 -71
-10 -107 -29 -138 -69 -15 -19 -30 -34 -33 -33 -4 1 -24 -11 -45 -27 -29 -22
-41 -26 -49 -18 -7 7 -23 12 -37 12 -15 0 -40 9 -58 20 l-32 19 -3 -22 c-2
-16 -11 -23 -30 -25 -26 -3 -28 -1 -28 35 l0 37 -17 -24 c-10 -14 -25 -34 -35
-44 -9 -10 -15 -23 -11 -29 10 -17 -81 4 -125 29 -23 14 -47 22 -52 19 -6 -4
-34 4 -63 17 -42 19 -63 22 -110 18 -32 -3 -61 -2 -63 1 -2 4 10 33 28 66 50
93 72 135 91 181 12 28 25 42 37 42 11 0 30 11 44 25 31 31 42 31 100 0 l46
-24 0 72 c0 56 -5 78 -20 97 -21 27 -26 45 -10 35 6 -3 10 -2 10 4 0 5 -16 22
-35 36 -33 26 -69 78 -108 158 -27 56 -30 40 -7 -35 34 -109 77 -206 121 -268
23 -33 40 -62 37 -65 -8 -8 -63 23 -84 46 -10 12 -32 31 -49 41 -16 11 -22 17
-12 14 15 -5 17 -2 11 17 -4 12 -13 41 -19 64 -6 23 -13 44 -15 46 -3 3 -25 7
-50 11 l-45 5 -84 -84 c-47 -47 -86 -83 -88 -82 -1 2 5 23 14 48 35 93 120
148 209 134 41 -6 46 -5 40 10 -3 9 -6 27 -6 40 0 29 -32 49 -76 47 -30 -1
-31 0 -32 46 -3 76 -22 152 -38 152 -8 0 -14 -10 -14 -24z m900 -107 c0 -5 -4
-9 -10 -9 -5 0 -10 7 -10 16 0 8 5 12 10 9 6 -3 10 -10 10 -16z m-880 -64 c0
-14 -4 -25 -10 -25 -11 0 -14 33 -3 43 11 11 13 8 13 -18z m114 -41 c33 -13
14 -22 -39 -21 -36 1 -55 6 -55 15 0 13 65 17 94 6z m-51 -41 c-7 -2 -19 -2
-25 0 -7 3 -2 5 12 5 14 0 19 -2 13 -5z m946 -149 c31 -14 64 -36 74 -49 l17
-24 -82 5 c-59 4 -97 13 -131 30 l-48 24 6 -23 c7 -22 7 -22 -9 -2 -25 32 -19
43 27 53 67 15 86 14 146 -14z m-927 -44 c4 0 8 -5 8 -12 0 -6 11 -26 25 -44
35 -46 32 -60 -7 -35 -23 14 -32 27 -30 41 4 27 -3 25 -48 -10 -20 -16 -62
-36 -91 -44 -30 -8 -66 -19 -81 -25 -33 -12 -36 -3 -12 38 26 43 113 91 171
92 29 1 37 4 21 6 -33 5 -34 10 -11 35 17 19 18 19 32 -11 8 -17 18 -31 23
-31z m1222 -67 c3 -29 3 -53 0 -53 -12 0 -30 63 -26 91 6 43 20 23 26 -38z
m-404 -7 c0 -2 -7 -7 -16 -10 -8 -3 -12 -2 -9 4 6 10 25 14 25 6z m273 -28
c27 -14 20 -28 -14 -28 -16 0 -49 -4 -72 -9 -23 -6 -55 -13 -72 -16 l-30 -7
25 -13 c35 -20 15 -18 -26 1 -40 19 -42 28 -9 50 56 37 149 47 198 22z m-1171
-91 c-20 -43 -24 -44 -159 -50 -115 -6 -126 5 -46 44 36 17 55 20 98 15 29 -3
60 -9 69 -12 9 -4 16 -1 16 6 0 11 32 42 37 36 1 -1 -5 -19 -15 -39z m68 15
c0 -5 -7 -17 -16 -28 -8 -10 -14 -14 -11 -9 2 6 7 18 10 28 7 17 17 23 17 9z
m1213 -69 c-7 -2 -19 -2 -25 0 -7 3 -2 5 12 5 14 0 19 -2 13 -5z m-1368 -23
c-3 -5 -19 -10 -36 -10 -16 0 -29 5 -29 10 0 6 16 10 36 10 21 0 33 -4 29 -10z
m1195 -130 c6 -11 8 -20 6 -20 -3 0 -10 9 -16 20 -6 11 -8 20 -6 20 3 0 10 -9
16 -20z m-102 -45 c3 -3 -2 -5 -11 -5 -9 0 -17 -4 -17 -9 0 -4 -32 -23 -71
-41 -66 -30 -76 -32 -137 -26 -63 7 -92 18 -92 37 0 5 7 9 16 9 9 0 28 8 42
19 15 10 34 21 42 24 18 7 220 0 228 -8z m51 -99 c13 -34 -11 -67 -85 -116
-53 -35 -77 -45 -109 -45 -41 0 -85 26 -85 51 0 8 -9 18 -21 24 -11 7 -18 14
-15 17 3 3 11 1 18 -5 23 -18 83 -24 129 -12 32 8 57 26 94 65 52 55 61 57 74
21z m-265 -211 c-4 -8 -10 -12 -15 -9 -11 6 -2 24 11 24 5 0 7 -7 4 -15z"/>
<path d="M2650 3996 c0 -2 7 -7 16 -10 8 -3 12 -2 9 4 -6 10 -25 14 -25 6z"/>
<path d="M2720 3990 c12 -8 10 -10 -10 -10 -22 -1 -23 -2 -7 -11 27 -16 21
-30 -9 -19 -17 7 -32 6 -46 -1 -18 -10 -17 -12 21 -31 23 -11 41 -26 41 -33 0
-7 5 -15 12 -17 6 -2 12 -14 13 -25 0 -12 7 -28 14 -37 7 -8 10 -20 7 -25 -4
-5 -2 -12 3 -15 4 -3 9 -17 9 -31 0 -13 -4 -22 -8 -20 -5 3 -3 -8 3 -25 6 -16
15 -30 19 -30 11 0 10 18 -2 25 -17 10 -11 28 6 21 14 -5 15 -4 4 9 -11 13
-10 19 5 35 21 23 34 18 15 -5 -7 -8 -10 -15 -7 -15 2 0 17 17 33 38 21 28 22
32 6 18 -22 -19 -32 -10 -11 11 8 8 6 11 -7 10 -12 -1 -19 5 -19 15 0 9 -4 20
-8 24 -4 4 -7 18 -7 32 0 17 4 22 14 19 8 -3 22 4 33 16 16 19 16 20 0 8 -15
-12 -17 -12 -10 4 5 15 3 17 -12 11 -18 -7 -18 -6 1 15 15 18 16 21 3 16 -13
-4 -16 -1 -12 14 5 17 0 19 -48 19 -39 0 -50 -3 -39 -10z m40 -170 c0 -5 -2
-10 -4 -10 -3 0 -8 5 -11 10 -3 6 -1 10 4 10 6 0 11 -4 11 -10z"/>
<path d="M3943 3993 c24 -3 37 -9 37 -19 0 -8 5 -14 10 -14 6 0 10 9 10 20 0
17 -6 20 -47 18 -44 -1 -45 -2 -10 -5z"/>
<path d="M3340 3897 c0 -14 5 -29 10 -32 7 -4 8 3 4 22 -9 38 -14 42 -14 10z"/>
<path d="M3867 3903 c-13 -12 -7 -43 8 -43 8 0 15 4 15 9 0 5 3 16 6 25 6 16
-16 23 -29 9z"/>
<path d="M2660 3866 c0 -3 14 -12 30 -21 17 -9 30 -13 30 -11 0 3 -13 12 -30
21 -16 9 -30 13 -30 11z"/>
<path d="M2824 3829 c-19 -22 -19 -22 3 -10 24 12 39 31 25 31 -5 0 -17 -10
-28 -21z"/>
<path d="M2507 3804 c-4 -4 20 -37 53 -74 33 -37 57 -70 54 -73 -3 -3 1 -16
10 -29 9 -12 16 -17 16 -11 0 7 -5 15 -11 18 -6 4 -8 13 -5 21 6 16 -8 46 -39
82 -11 13 -18 26 -17 29 6 9 -54 44 -61 37z"/>
<path d="M2988 3763 c-26 -27 -54 -68 -63 -93 -9 -25 -21 -53 -27 -64 -6 -12
-6 -22 1 -29 8 -8 11 -5 11 11 0 12 3 22 8 22 4 0 17 22 29 48 12 26 39 65 59
85 35 35 52 67 35 67 -4 0 -28 -21 -53 -47z"/>
<path d="M2730 3763 c0 -4 5 -15 10 -23 8 -13 10 -13 10 2 0 9 -4 20 -10 23
-5 3 -10 3 -10 -2z"/>
<path d="M1887 3723 c4 -52 20 -64 28 -20 7 38 1 57 -19 57 -8 0 -11 -12 -9
-37z"/>
<path d="M1046 3513 c-6 -14 -5 -15 5 -6 7 7 10 15 7 18 -3 3 -9 -2 -12 -12z"/>
<path d="M1937 3467 c-4 -10 -7 -28 -7 -40 1 -20 2 -20 11 -4 6 10 9 28 7 40
-3 20 -4 20 -11 4z"/>
<path d="M1146 3410 c9 -71 17 -80 12 -13 -2 29 -7 56 -12 60 -4 4 -4 -17 0
-47z"/>
<path d="M3985 3341 c-3 -11 -19 -34 -35 -50 -45 -50 -122 -36 -105 19 6 20 6
20 -42 -2 -26 -12 -49 -23 -51 -24 -2 -1 3 -14 10 -29 21 -39 107 -71 181 -67
l57 4 0 59 c0 34 -4 59 -10 59 -7 0 -7 7 0 21 7 11 9 23 7 26 -3 2 -8 -5 -12
-16z"/>
<path d="M1060 3315 c0 -14 -6 -25 -12 -25 -10 0 -10 -2 -1 -8 6 -4 13 -23 16
-42 2 -20 4 -7 5 33 1 37 0 67 -3 67 -3 0 -5 -11 -5 -25z"/>
<path d="M2986 3284 c-5 -14 -4 -15 9 -4 17 14 19 20 6 20 -5 0 -12 -7 -15
-16z"/>
<path d="M370 3280 c-8 -5 -10 -10 -5 -10 6 0 17 5 25 10 8 5 11 10 5 10 -5 0
-17 -5 -25 -10z"/>
<path d="M385 3265 c-46 -17 -67 -19 -45 -5 34 22 -35 1 -230 -70 l-85 -31 60
5 c135 11 203 24 288 55 64 24 132 33 156 22 9 -4 31 -15 49 -24 18 -9 30 -12
26 -6 -7 11 63 2 81 -11 11 -8 75 -22 75 -16 0 3 -24 12 -52 22 -29 9 -59 22
-67 28 -8 6 -29 12 -48 12 -18 1 -46 7 -63 14 -22 9 -37 9 -61 1 -42 -15 -47
-14 -23 4 19 14 19 14 -1 14 -11 0 -38 -6 -60 -14z"/>
<path d="M1171 3264 c0 -11 3 -14 6 -6 3 7 2 16 -1 19 -3 4 -6 -2 -5 -13z"/>
<path d="M1860 3220 c6 -11 13 -20 16 -20 2 0 0 9 -6 20 -6 11 -13 20 -16 20
-2 0 0 -9 6 -20z"/>
<path d="M628 3193 c6 -2 18 -2 25 0 6 3 1 5 -13 5 -14 0 -19 -2 -12 -5z"/>
<path d="M1980 3183 c14 -3 30 -9 35 -15 7 -7 -13 -9 -62 -6 -58 4 -75 2 -86
-11 -21 -23 -39 -62 -33 -68 2 -3 12 11 20 31 15 36 33 45 53 25 17 -17 94
-14 146 6 26 10 47 21 47 25 0 9 -64 20 -110 19 -27 -1 -29 -3 -10 -6z"/>
<path d="M3906 3162 c7 -4 14 -16 17 -27 4 -18 5 -18 6 3 0 12 5 22 10 22 4 0
11 -55 14 -121 5 -106 8 -124 26 -143 l21 -20 0 147 0 147 -52 0 c-29 0 -48
-4 -42 -8z m83 -202 c-1 -33 -5 -58 -8 -55 -7 8 -11 96 -5 107 12 18 15 5 13
-52z"/>
<path d="M3858 3153 c6 -2 18 -2 25 0 6 3 1 5 -13 5 -14 0 -19 -2 -12 -5z"/>
<path d="M2941 3136 c-7 -8 -22 -17 -34 -19 -20 -4 -20 -4 -2 -5 21 -1 62 24
53 33 -3 3 -11 -1 -17 -9z"/>
<path d="M1215 3123 c-11 -3 -24 -9 -29 -14 -5 -5 5 -4 24 1 51 15 55 25 5 13z"/>
<path d="M3616 3083 c21 -70 21 -228 1 -277 -10 -22 -58 -78 -116 -135 -55
-53 -99 -103 -99 -111 1 -8 0 -35 0 -59 -2 -42 -3 -44 -18 -25 -14 18 -15 15
-9 -35 4 -33 13 -60 23 -69 9 -7 11 -11 5 -7 -19 9 -16 -3 9 -38 49 -70 104
-112 127 -97 12 7 8 14 -18 35 -17 15 -29 30 -26 34 4 3 14 -5 24 -18 15 -20
29 -24 89 -29 50 -3 72 -1 72 7 0 6 6 11 14 11 29 0 27 21 -3 52 -17 17 -28
35 -25 40 8 12 32 10 36 -4 3 -7 7 -6 11 5 5 13 1 17 -16 17 -12 0 -28 -4 -36
-9 -19 -12 -54 25 -43 44 4 8 5 41 4 74 -3 48 -8 63 -23 72 -29 15 -39 3 -39
-47 0 -49 16 -88 63 -149 26 -34 27 -37 6 -17 -14 12 -28 20 -31 16 -3 -3 -9
0 -14 7 -4 8 -3 10 4 5 7 -4 12 -3 12 3 0 5 -4 12 -9 16 -6 3 -24 30 -41 61
-28 48 -31 61 -26 102 6 45 6 46 -8 22 -26 -43 -19 5 8 58 21 42 87 122 100
122 2 0 2 -16 -1 -37 -5 -27 -3 -34 6 -29 7 5 9 16 5 28 -4 14 -2 18 5 14 8
-5 11 17 11 74 0 45 4 79 9 76 4 -3 23 -36 42 -73 22 -44 59 -92 105 -138 79
-79 94 -101 94 -139 0 -24 3 -26 50 -26 l50 0 0 35 c0 19 -4 35 -10 35 -5 0
-7 -7 -4 -15 9 -24 -9 -18 -46 15 -22 19 -27 27 -13 20 32 -15 41 -12 15 6
-12 8 -22 20 -22 26 0 6 10 3 23 -6 39 -28 57 -37 57 -29 0 5 -12 16 -27 25
-39 23 -93 69 -93 79 0 5 20 -3 45 -17 58 -32 58 -24 0 17 -32 23 -42 35 -33
41 10 6 2 18 -28 46 -56 51 -83 72 -93 72 -5 0 -14 7 -21 15 -11 13 -10 14 6
9 16 -6 15 -3 -5 19 -24 27 -17 38 9 15 7 -7 4 -1 -7 14 -11 14 -34 39 -52 54
-18 14 -45 53 -62 85 -16 33 -31 59 -33 59 -2 0 2 -21 10 -47z m114 -133 c0
-5 -2 -10 -4 -10 -3 0 -8 5 -11 10 -3 6 -1 10 4 10 6 0 11 -4 11 -10z m-300
-564 c0 -6 -5 -3 -11 7 -6 9 -13 15 -17 13 -4 -3 -8 5 -8 16 0 19 1 19 18 -2
10 -12 18 -27 18 -34z"/>
<path d="M1480 3095 c14 -8 34 -14 45 -14 13 0 8 5 -15 14 -46 18 -61 18 -30
0z"/>
<path d="M1423 2973 c25 -4 27 -7 15 -21 -11 -15 -10 -15 8 1 13 11 37 17 69
17 43 0 46 -2 34 -17 -13 -15 -12 -15 7 -5 18 9 24 8 35 -4 11 -14 8 -16 -27
-14 -56 3 -66 1 -59 -9 7 -12 -25 -30 -41 -24 -6 2 -23 -8 -38 -22 -15 -14
-31 -23 -34 -21 -4 2 -18 -4 -32 -14 l-24 -18 29 -25 29 -25 13 25 c7 14 10
29 7 34 -3 5 -2 14 2 20 4 7 17 0 35 -17 22 -21 29 -24 29 -12 0 9 7 24 17 33
12 13 13 19 4 24 -9 6 -8 11 3 21 13 10 17 9 22 -4 5 -13 9 -14 20 -5 11 9 14
8 14 -7 1 -18 1 -18 12 1 6 11 17 24 25 28 8 5 11 16 8 28 -7 21 5 25 23 7 9
-9 12 -9 12 3 0 11 2 11 9 1 6 -10 10 -10 21 3 10 13 9 15 -6 16 -95 4 -263 5
-241 2z"/>
<path d="M136 2945 c-6 -23 -10 -25 -71 -25 -58 0 -65 -2 -65 -20 0 -18 7 -20
70 -20 90 0 93 19 3 22 l-68 1 70 7 c82 7 108 17 101 37 -3 8 -6 17 -6 19 0 2
-6 4 -14 4 -8 0 -17 -11 -20 -25z"/>
<path d="M190 2950 c0 -11 7 -20 15 -20 8 0 15 9 15 20 0 11 -7 20 -15 20 -8
0 -15 -9 -15 -20z"/>
<path d="M693 2949 c-1 -11 3 -19 9 -17 15 5 19 38 4 38 -6 0 -12 -9 -13 -21z"/>
<path d="M742 2953 c2 -10 11 -19 20 -21 12 -2 15 2 11 17 -7 25 -36 28 -31 4z"/>
<path d="M1181 2941 c-28 -40 -27 -58 7 -63 26 -4 27 -2 27 38 0 36 2 42 20
41 11 0 23 -5 26 -10 3 -5 9 -2 12 7 5 13 -1 16 -33 16 -31 0 -43 -5 -59 -29z"/>
<path d="M2145 2941 c-8 -17 -12 -31 -7 -31 5 0 14 10 21 23 9 17 10 18 5 2
-3 -11 -9 -41 -13 -68 -11 -64 -24 -74 -17 -12 9 72 -2 43 -13 -35 -5 -40 -5
-73 1 -85 9 -20 9 -20 -6 -1 -9 11 -16 32 -16 47 0 16 -6 32 -14 36 -8 4 -16
17 -20 28 -3 11 -3 -9 0 -45 7 -81 26 -122 75 -161 22 -17 37 -34 34 -39 -3
-4 3 -14 13 -21 15 -13 16 -12 3 4 -8 10 -9 17 -3 17 10 0 26 -18 27 -30 1 -3
14 -29 29 -59 15 -30 29 -63 31 -75 2 -12 8 -56 15 -98 l13 -77 -36 -69 -35
-69 29 -17 c28 -16 28 -16 44 11 l16 28 -5 -37 c-3 -25 0 -38 9 -42 15 -6 41
20 48 49 3 14 5 11 6 -10 0 -17 -5 -37 -11 -43 -10 -10 -10 -15 2 -22 28 -17
45 15 45 85 0 48 -4 69 -17 82 -16 16 -18 16 -18 1 0 -9 5 -20 10 -23 6 -3 10
-11 10 -18 0 -6 -7 -1 -16 11 -17 25 -44 121 -44 159 0 15 -3 23 -7 20 -3 -4
-21 32 -39 79 -17 47 -41 95 -53 108 -12 12 -18 25 -15 29 4 4 1 14 -7 23 -11
13 -14 59 -15 193 -2 169 -3 176 -22 179 -15 2 -26 -6 -37 -27z m-14 -248 c13
-16 12 -17 -3 -4 -10 7 -18 15 -18 17 0 8 8 3 21 -13z m189 -484 c0 -11 -4
-18 -10 -14 -5 3 -7 12 -3 20 7 21 13 19 13 -6z"/>
<path d="M0 2950 c0 -5 15 -10 34 -10 19 0 43 -3 53 -7 16 -6 16 -5 4 10 -15
19 -91 24 -91 7z"/>
<path d="M270 2948 c0 -4 84 -7 188 -7 103 1 178 3 167 5 -46 7 -355 9 -355 2z"/>
<path d="M823 2948 c-2 -5 60 -7 139 -6 145 2 130 5 -40 10 -52 2 -96 0 -99
-4z"/>
<path d="M1285 2943 c-12 -22 -7 -76 6 -67 5 3 6 10 3 16 -4 6 -2 8 4 5 15
-10 43 3 35 17 -3 6 -3 8 2 4 13 -12 45 11 39 27 -9 22 -76 20 -89 -2z"/>
<path d="M312 2913 c54 -2 142 -2 196 0 53 1 9 3 -98 3 -107 0 -151 -2 -98 -3z"/>
<path d="M628 2913 c7 -3 16 -2 19 1 4 3 -2 6 -13 5 -11 0 -14 -3 -6 -6z"/>
<path d="M1033 2913 c9 -2 25 -2 35 0 9 3 1 5 -18 5 -19 0 -27 -2 -17 -5z"/>
<path d="M220 2888 c0 -10 52 -12 235 -10 142 2 235 7 235 12 0 6 -91 10 -235
10 -181 0 -235 -3 -235 -12z"/>
<path d="M970 2890 c25 -4 49 -4 55 1 5 5 -13 8 -45 8 l-55 -2 45 -7z"/>
<path d="M1125 2880 c-3 -6 1 -7 9 -4 18 7 21 14 7 14 -6 0 -13 -4 -16 -10z"/>
<path d="M2020 2820 c0 -17 7 -46 14 -65 17 -40 30 -48 16 -9 -6 14 -10 40
-10 59 0 19 -4 37 -10 40 -6 4 -10 -7 -10 -25z"/>
<path d="M1721 2766 l-44 -51 48 47 c27 26 47 49 45 52 -3 2 -25 -19 -49 -48z"/>
<path d="M1297 2803 c-4 -3 -7 -19 -7 -35 0 -25 4 -29 23 -26 12 2 20 7 19 12
-2 5 1 12 7 16 16 10 2 40 -18 40 -10 0 -21 -3 -24 -7z"/>
<path d="M1473 2765 c0 -22 2 -30 4 -17 2 12 2 30 0 40 -3 9 -5 -1 -4 -23z"/>
<path d="M3510 2770 c-6 -11 -8 -20 -6 -20 3 0 10 9 16 20 6 11 8 20 6 20 -3
0 -10 -9 -16 -20z"/>
<path d="M3395 2724 c-18 -20 -36 -45 -38 -56 -5 -18 -3 -18 21 5 29 28 67 87
56 87 -3 0 -21 -16 -39 -36z"/>
<path d="M3501 2709 c-56 -59 -75 -95 -27 -49 39 36 81 89 75 93 -2 2 -24 -18
-48 -44z"/>
<path d="M1392 2730 c0 -14 2 -19 5 -12 2 6 2 18 0 25 -3 6 -5 1 -5 -13z"/>
<path d="M0 2706 c0 -31 6 -34 13 -6 3 11 1 23 -4 26 -5 3 -9 -6 -9 -20z"/>
<path d="M915 2720 c-3 -5 -1 -10 4 -10 6 0 11 5 11 10 0 6 -2 10 -4 10 -3 0
-8 -4 -11 -10z"/>
<path d="M1694 2708 l-19 -23 23 19 c21 18 27 26 19 26 -2 0 -12 -10 -23 -22z"/>
<path d="M3711 2714 c0 -11 3 -14 6 -6 3 7 2 16 -1 19 -3 4 -6 -2 -5 -13z"/>
<path d="M50 2708 c0 -5 -7 -8 -17 -8 -9 0 -13 -3 -9 -7 3 -4 24 -6 46 -5 33
2 39 0 43 -20 l4 -23 2 23 c0 12 6 22 11 22 6 0 10 6 10 13 0 8 -15 12 -45 12
-25 0 -45 -3 -45 -7z"/>
<path d="M220 2706 c0 -12 23 -15 133 -18 189 -4 337 1 337 12 0 6 -88 10
-225 10 -124 -1 -230 2 -235 5 -6 4 -10 -1 -10 -9z"/>
<path d="M780 2700 c0 -5 18 -10 40 -10 22 0 40 5 40 10 0 6 -18 10 -40 10
-22 0 -40 -4 -40 -10z"/>
<path d="M3710 2642 l5 -47 3 39 c2 21 0 42 -5 47 -4 4 -6 -13 -3 -39z"/>
<path d="M272 2660 c0 -14 2 -19 5 -12 2 6 2 18 0 25 -3 6 -5 1 -5 -13z"/>
<path d="M2362 2660 c0 -14 2 -19 5 -12 2 6 2 18 0 25 -3 6 -5 1 -5 -13z"/>
<path d="M1111 2631 c-10 -6 -10 -10 -1 -16 7 -4 19 0 28 9 14 13 14 16 2 16
-8 0 -21 -4 -29 -9z"/>
<path d="M1238 2633 c7 -3 16 -2 19 1 4 3 -2 6 -13 5 -11 0 -14 -3 -6 -6z"/>
<path d="M2002 2577 c-2 -35 -15 -99 -32 -149 -27 -79 -28 -91 -16 -111 8 -12
17 -33 21 -47 7 -24 7 -24 -16 4 l-23 29 -22 -52 c-21 -48 -44 -67 -44 -38 0
7 -6 22 -14 32 -13 18 -14 17 -14 -11 0 -51 15 -57 66 -29 24 14 46 25 49 25
2 0 -58 -69 -134 -153 -164 -181 -243 -272 -243 -281 0 -10 58 -7 65 4 3 5 11
8 18 6 7 -1 9 -1 5 1 -14 8 -8 24 24 71 18 26 34 48 35 50 1 2 34 8 74 13 55
7 85 5 129 -6 32 -8 68 -15 81 -14 13 0 -5 8 -41 16 -38 10 -101 16 -150 15
-59 -1 -80 1 -70 8 8 5 26 10 40 11 17 1 20 3 7 6 -30 8 16 61 59 69 25 4 32
9 23 15 -23 14 -3 20 37 11 22 -4 50 -5 64 -1 21 6 19 7 -15 8 -35 1 -89 20
-58 21 6 0 18 6 25 14 8 7 46 17 84 21 l70 7 27 -36 c25 -32 26 -36 10 -45
-16 -9 -15 -10 5 -11 49 0 100 -52 71 -71 -10 -6 -6 -9 13 -9 43 0 44 -20 1
-21 -36 -2 -36 -2 10 -8 36 -5 54 -14 71 -36 28 -35 71 -114 65 -120 -11 -10
-110 -8 -121 3 -7 7 -21 12 -32 12 -19 0 -19 -1 3 -13 32 -16 39 -37 12 -37
-34 0 -35 -20 -1 -66 25 -36 30 -50 25 -75 -4 -17 -13 -33 -21 -36 -8 -3 -11
-9 -8 -14 3 -5 1 -9 -5 -9 -5 0 -12 6 -15 13 -4 6 -4 -5 -2 -25 3 -26 0 -38
-10 -42 -9 -3 -12 -10 -9 -16 4 -6 -7 -9 -27 -9 -22 1 -26 3 -11 6 17 3 22 13
25 51 3 32 0 51 -9 58 -21 18 -16 41 9 40 35 -1 32 26 -7 76 -38 50 -42 66
-22 88 10 12 9 12 -6 0 -15 -11 -23 -11 -37 -2 -16 10 -18 9 -13 -5 5 -12 3
-14 -8 -8 -11 6 -12 5 -1 -6 22 -23 13 -51 -29 -91 -43 -41 -44 -50 -7 -52 37
-2 30 -38 -9 -48 -26 -7 -33 -14 -33 -33 0 -14 -5 -25 -11 -25 -7 0 -10 12 -7
30 3 17 1 30 -3 30 -3 0 -9 8 -12 18 -4 9 -15 28 -26 42 -12 14 -22 41 -23 60
-1 19 -6 38 -10 41 -14 9 0 33 30 52 15 9 22 17 16 17 -7 0 -22 -8 -35 -19
-22 -18 -23 -18 -51 11 -15 16 -28 33 -28 38 0 6 -5 10 -10 10 -14 0 -1 -52
16 -66 18 -15 18 -34 -1 -34 -12 0 -15 -13 -15 -60 0 -46 3 -60 14 -60 22 0
28 -17 13 -32 -8 -8 -20 -30 -28 -51 -15 -43 -31 -50 -23 -9 4 19 1 32 -10 41
-12 10 -16 33 -16 90 -1 51 -5 82 -15 95 -8 11 -12 28 -9 39 5 17 3 17 -28 -4
l-33 -21 0 -92 c0 -83 -2 -91 -20 -94 -43 -7 -62 -23 -57 -48 3 -19 0 -24 -17
-24 -18 0 -21 5 -19 32 1 18 -3 33 -10 36 -6 2 -12 12 -12 22 0 9 -7 23 -15
30 -8 7 -15 19 -15 27 0 8 -4 12 -9 9 -5 -3 -11 5 -13 19 -3 14 -2 25 2 25 4
0 11 7 14 16 4 10 2 13 -7 9 -6 -4 -3 0 7 9 17 14 17 16 3 22 -10 3 -23 4 -31
1 -30 -12 -25 23 6 39 29 15 32 15 43 0 11 -14 21 -6 76 56 35 40 60 70 54 67
-5 -4 -54 -32 -108 -64 -96 -57 -100 -58 -165 -56 -55 2 -71 -1 -84 -16 -46
-51 -7 -152 65 -169 27 -6 27 -6 27 45 0 37 -4 51 -14 51 -7 0 -16 10 -18 23
-4 21 -1 22 41 19 l46 -4 3 -89 2 -89 -39 0 c-22 0 -43 -5 -46 -10 -4 -6 -16
-8 -27 -4 -13 4 -18 2 -14 -4 9 -14 -4 -43 -16 -36 -5 3 -7 17 -4 30 4 13 2
24 -3 24 -10 0 -23 21 -60 95 -12 22 -21 33 -21 24 0 -28 -40 -55 -305 -206
-257 -147 -367 -203 -399 -203 -10 0 -23 -15 -32 -35 -19 -47 -18 -49 15 -26
l29 21 21 -29 c20 -28 30 -101 14 -101 -5 0 -26 14 -47 30 l-40 30 -22 -21
-22 -21 -28 54 c-28 50 -31 53 -64 50 -19 -2 -36 -5 -38 -7 -2 -2 8 -26 22
-53 24 -48 28 -51 80 -62 74 -15 176 -67 176 -89 0 -9 7 -26 15 -38 13 -18 1
-15 -77 22 -94 43 -171 65 -233 65 -40 0 -55 16 -24 25 21 7 21 7 -5 30 -14
12 -26 31 -26 42 0 25 -37 66 -77 87 -17 8 -33 22 -36 30 -4 9 -13 13 -22 10
-9 -4 -15 -1 -16 7 0 8 -4 5 -9 -7 -9 -23 -2 -76 10 -69 11 7 42 -25 37 -38
-1 -5 -28 -11 -60 -12 -53 -1 -56 0 -60 24 -2 14 -5 -20 -6 -76 l-1 -103 172
0 c94 0 169 -2 166 -6 -7 -7 -119 -13 -240 -14 l-98 0 0 -510 0 -510 2000 0
2000 0 0 721 c0 620 -2 720 -14 716 -8 -3 -20 1 -26 8 -7 8 -16 12 -21 10 -12
-8 -30 31 -22 51 4 11 3 15 -4 11 -10 -7 -23 13 -23 35 0 7 5 7 13 -1 10 -8
19 -7 33 3 17 13 21 12 41 -12 l22 -27 1 132 0 131 -28 10 c-16 5 -64 32 -106
60 -43 28 -83 49 -90 46 -17 -6 -86 88 -101 138 -14 50 -36 59 -59 24 -15 -23
-15 -25 0 -19 14 5 15 3 5 -14 -9 -17 -29 -32 -51 -38 -3 0 -31 -11 -63 -23
-32 -12 -72 -23 -90 -23 -23 -1 -26 -3 -9 -6 26 -5 29 -20 5 -25 -24 -5 -64 3
-59 11 2 3 -32 21 -76 38 -71 28 -78 30 -62 11 19 -21 19 -21 -3 -9 -13 6 -23
8 -23 3 0 -21 34 -105 38 -94 2 7 27 -22 55 -64 29 -43 66 -86 82 -97 36 -24
103 -114 140 -188 14 -30 34 -64 43 -76 l17 -23 1 25 c1 14 -2 25 -6 25 -4 0
-11 26 -15 58 -4 31 -12 63 -18 70 -8 10 -7 16 2 21 10 7 10 15 -3 40 -24 45
2 42 51 -7 21 -21 47 -38 58 -38 11 1 25 -10 33 -24 l14 -25 -7 29 c-6 27 -5
28 11 15 16 -13 17 -12 11 10 -9 36 12 11 29 -35 l14 -39 -2 53 -3 53 22 -26
c13 -15 25 -46 29 -75 5 -39 11 -50 24 -50 10 0 20 -7 24 -15 6 -18 -7 -19
-36 -4 -16 8 -24 8 -35 -4 -19 -19 -9 -37 22 -37 25 0 128 -103 140 -140 3
-11 10 -20 15 -20 4 0 15 -12 24 -27 9 -16 -4 -5 -29 22 l-46 50 -19 -25 c-11
-14 -20 -28 -20 -32 0 -4 -7 -5 -14 -2 -19 7 -83 -55 -79 -76 2 -8 -8 -27 -21
-41 l-25 -27 22 -10 c20 -9 18 -10 -18 -16 -119 -20 -165 -33 -237 -68 -44
-21 -80 -38 -81 -38 -1 0 -2 14 -1 32 1 29 6 35 59 60 33 15 84 33 115 39 67
14 73 18 99 74 24 51 25 55 11 55 -5 0 -10 -7 -10 -16 0 -9 -7 -14 -17 -12
-11 2 -17 11 -16 23 2 17 1 17 -9 -3 -13 -26 -25 -28 -31 -5 -4 17 -5 17 -6 1
-1 -11 -9 -18 -21 -18 -17 0 -20 7 -20 50 0 28 -4 50 -10 50 -5 0 -10 -22 -10
-50 0 -43 -3 -50 -20 -50 -17 0 -20 7 -20 50 0 36 -4 50 -14 50 -10 0 -12 7
-9 23 l6 22 -27 -24 c-26 -24 -27 -24 -62 -8 -20 10 -32 22 -28 28 4 7 0 9
-13 5 -13 -4 -94 37 -268 137 -334 191 -302 166 -295 229 7 65 -11 103 -41 87
-25 -13 -24 -29 1 -29 13 0 20 -7 20 -20 0 -13 -7 -20 -20 -20 -18 0 -20 -7
-20 -80 0 -73 -2 -80 -19 -80 -11 0 -22 4 -25 8 -3 5 -6 57 -8 115 -1 59 -5
107 -8 107 -2 0 -14 -12 -26 -27 -20 -25 -23 -26 -40 -13 -18 14 -18 14 -1 -6
38 -45 11 -155 -45 -185 -32 -17 -48 -41 -42 -61 4 -13 0 -18 -15 -18 -23 0
-30 33 -10 45 7 5 2 16 -12 31 -12 13 -19 24 -15 24 3 0 0 13 -9 30 -8 16 -15
43 -15 60 0 21 -4 29 -12 24 -11 -7 -9 10 7 47 7 19 -39 76 -253 312 -121 133
-144 164 -103 138 15 -10 51 7 51 23 0 6 11 22 25 36 14 15 31 46 39 71 11 33
14 38 15 19 1 -14 4 -35 7 -47 5 -18 8 -20 19 -9 19 18 30 101 16 118 -25 29
-59 87 -54 92 8 7 -46 74 -80 98 l-31 22 35 -47 c19 -25 40 -46 47 -47 6 0 12
-5 12 -11 0 -5 -5 -7 -12 -3 -6 4 -2 -8 10 -28 32 -51 27 -58 -6 -9 -26 39
-104 111 -142 131 -14 7 -16 0 -18 -53z m110 -111 c4 -31 12 -65 18 -76 15
-28 4 -61 -18 -53 -30 11 -54 37 -74 80 -16 37 -17 48 -7 83 7 21 16 37 20 34
5 -3 9 0 9 7 0 8 7 7 23 -3 16 -12 24 -29 29 -72z m1243 -586 c4 -6 10 -8 15
-5 10 6 153 -69 170 -90 30 -37 -153 40 -189 79 -14 14 -19 26 -13 26 6 0 14
-5 17 -10z m244 -15 c6 -3 7 -13 4 -21 -6 -17 -23 -15 -105 7 -62 16 -46 31
27 26 35 -3 69 -8 74 -12z m91 -15 c-8 -5 -22 -9 -30 -9 -10 0 -8 3 5 9 27 12
43 12 25 0z m-767 -277 c85 -49 153 -96 158 -108 5 -11 16 -49 24 -84 14 -57
15 -66 1 -79 -16 -16 -19 -8 -47 119 l-12 57 -96 55 c-140 82 -208 126 -192
127 8 0 82 -39 164 -87z m-1698 68 c-6 -6 -68 -44 -140 -86 l-130 -75 -16 -68
c-15 -63 -15 -68 1 -87 19 -22 19 -21 27 -120 6 -87 -17 -170 -64 -224 -18
-22 -33 -43 -33 -48 0 -26 -86 -42 -133 -24 -98 37 -175 244 -133 355 9 24 24
50 34 58 24 20 99 46 150 51 23 2 45 7 49 10 3 3 12 0 20 -8 23 -24 32 -18 43
28 5 23 16 52 23 65 12 23 270 181 297 182 9 0 10 -3 5 -9z m2625 -100 c-1
-25 -1 -25 -15 -7 -19 26 -19 47 0 40 8 -4 15 -18 15 -33z m-1150 -1 c-30 -43
-37 -43 -38 -5 -1 33 1 35 29 35 l30 0 -21 -30z m1171 -43 c-5 -5 -12 -4 -15
2 -4 6 -3 11 2 11 5 0 8 12 6 28 -4 27 -4 27 6 -3 5 -16 6 -33 1 -38z m-2537
4 c-2 -3 -12 3 -22 13 -16 17 -16 18 5 5 12 -7 20 -15 17 -18z m499 -28 c-7
-2 -19 -2 -25 0 -7 3 -2 5 12 5 14 0 19 -2 13 -5z m160 0 c-7 -2 -19 -2 -25 0
-7 3 -2 5 12 5 14 0 19 -2 13 -5z m660 0 c-7 -2 -19 -2 -25 0 -7 3 -2 5 12 5
14 0 19 -2 13 -5z m1197 -43 c0 -5 -2 -10 -4 -10 -3 0 -8 5 -11 10 -3 6 -1 10
4 10 6 0 11 -4 11 -10z m-639 -62 c16 1 29 -2 29 -8 0 -5 24 -10 54 -10 57 0
66 -7 66 -55 0 -22 -4 -24 -62 -27 -69 -3 -85 -21 -51 -55 54 -55 131 -151
137 -170 4 -12 2 -40 -5 -62 -17 -58 -53 -72 -156 -64 l-79 6 -10 43 -10 44
73 0 c69 0 73 1 73 23 -1 24 -36 69 -63 80 -9 3 -17 13 -17 20 0 8 -9 22 -21
33 -51 46 -60 114 -23 171 7 12 11 30 7 40 -6 16 -5 17 11 3 10 -8 31 -13 47
-12z m-1016 -14 c-7 -3 -8 -79 -3 -221 7 -205 6 -219 -12 -248 -20 -31 -28
-28 -10 5 8 16 4 19 -36 25 l-45 6 2 137 c1 75 -2 137 -7 139 -5 1 -27 -22
-48 -52 -22 -30 -42 -55 -45 -55 -3 1 -23 25 -44 56 -22 31 -43 52 -49 48 -7
-5 -8 -51 -4 -147 l8 -140 -39 6 c-21 4 -46 7 -55 7 -17 0 -18 16 -18 193 0
105 3 202 6 215 5 18 13 22 49 22 42 0 45 -2 91 -65 47 -64 65 -75 70 -43 1 9
20 40 41 70 l40 53 59 -4 c32 -2 55 -5 49 -7z m-1043 -171 l-3 -173 79 0 78 0
-10 -43 c-7 -31 -15 -44 -30 -47 -23 -4 -163 -4 -198 0 l-23 3 0 216 0 217 55
-1 55 0 -3 -172z m318 163 c0 -21 50 -126 61 -126 5 0 9 6 9 14 0 8 9 38 20
68 l21 53 67 1 c37 1 61 -1 55 -3 -7 -3 -13 -9 -13 -15 0 -6 -25 -63 -56 -127
l-56 -116 4 -94 4 -94 -45 -29 c-43 -27 -47 -28 -59 -11 -11 14 -12 43 -7 124
l7 106 -57 114 c-32 63 -64 122 -73 132 -14 16 -11 17 51 17 50 0 67 -3 67
-14z m1380 -7 c0 -5 -12 -38 -26 -72 -15 -34 -29 -90 -32 -124 -4 -55 -2 -67
19 -98 22 -32 28 -35 72 -35 l47 0 0 139 c0 76 3 152 6 169 6 28 10 30 53 34
l46 3 0 -218 0 -218 -23 -6 c-12 -3 -57 -2 -100 2 -42 5 -96 9 -119 10 -23 1
-49 7 -56 14 -12 9 -14 8 -14 -6 0 -46 -4 -53 -25 -53 -19 0 -20 -2 -8 -10 8
-5 11 -10 5 -10 -13 1 -45 25 -45 35 0 5 3 6 6 2 8 -7 54 58 54 76 0 7 -7 32
-16 57 -17 48 -14 97 11 181 18 63 52 136 66 141 19 6 79 -4 79 -13z m-307 -3
c38 -15 67 -55 67 -88 -1 -30 -32 -99 -53 -117 -9 -7 -14 -17 -11 -22 3 -5 2
-8 -3 -7 -4 2 -24 -9 -44 -24 -19 -15 -51 -34 -70 -42 l-36 -15 5 -55 c4 -54
4 -56 -21 -56 -13 0 -39 3 -56 6 l-31 7 2 158 3 159 50 0 50 0 -3 -60 c-2 -33
-1 -60 3 -60 3 0 16 9 28 20 12 11 27 18 33 16 7 -3 18 3 26 12 11 15 11 16
-2 7 -9 -5 -6 -1 7 10 25 23 30 54 11 73 -8 8 -48 12 -115 12 -111 0 -113 1
-93 54 9 26 11 26 115 26 67 0 118 -5 138 -14z m1117 -130 c0 -2 -8 -10 -17
-17 -16 -13 -17 -12 -4 4 13 16 21 21 21 13z m-234 -40 c-2 -52 -52 -97 -71
-66 -5 9 58 100 69 100 2 0 2 -15 2 -34z m79 24 c-3 -5 -12 -10 -18 -10 -7 0
-6 4 3 10 19 12 23 12 15 0z m-3266 -50 c11 -24 11 -24 -3 -6 -9 11 -16 24
-16 30 0 12 5 7 19 -24z m3534 5 c-3 -9 -8 -14 -10 -11 -3 3 -2 9 2 15 9 16
15 13 8 -4z m-3195 -212 l23 -14 -21 -26 c-11 -14 -20 -32 -20 -39 0 -8 -4
-14 -9 -14 -5 0 -17 -7 -26 -17 -13 -13 -18 -14 -25 -3 -6 10 -9 8 -13 -6 -4
-16 -5 -16 -6 4 -2 39 -21 23 -21 -18 0 -22 -4 -40 -10 -40 -5 0 -10 6 -10 13
0 20 40 168 51 189 9 17 11 17 37 1 15 -9 37 -22 50 -30z m2388 -75 c-15 -10
-19 -3 -10 24 7 22 7 22 14 3 4 -11 3 -23 -4 -27z m-1947 -46 c25 -20 62 -49
81 -64 41 -31 112 -94 90 -81 -29 18 -230 174 -230 179 0 11 17 1 59 -34z m55
-1 c10 -11 40 -24 66 -30 40 -9 375 -176 497 -247 152 -90 258 -155 311 -191
l64 -43 51 31 c29 17 103 67 166 111 138 97 591 338 637 338 16 0 35 3 40 8 6
4 -11 -14 -37 -39 -35 -34 -97 -70 -250 -147 -169 -84 -475 -255 -579 -324
-25 -17 -28 -16 -205 88 -99 58 -285 157 -414 220 -167 81 -250 128 -289 162
-30 26 -64 55 -76 64 -11 10 -16 18 -10 18 6 0 19 -9 28 -19z m26 -121 c133
-112 135 -114 143 -158 6 -30 5 -32 -11 -20 -50 37 -352 281 -352 284 0 2 6 1
13 -2 8 -3 20 2 27 11 17 20 28 13 180 -115z m1900 127 c0 -5 -117 -98 -165
-132 l-40 -28 44 39 c41 36 153 123 159 124 1 0 2 -1 2 -3z m120 -23 c0 -2
-324 -261 -352 -282 -16 -12 -17 -10 -12 20 6 36 39 70 183 191 81 68 90 73
134 72 26 0 47 -1 47 -1z m175 -74 c8 -13 -5 -13 -25 0 -13 8 -13 10 2 10 9 0
20 -4 23 -10z m-894 -152 c-14 -10 -33 -15 -41 -12 -8 3 -11 2 -7 -2 11 -11
-79 -65 -97 -58 -12 5 -96 -41 -96 -53 0 -5 15 3 52 29 27 19 60 26 43 9 -25
-25 -229 -141 -247 -141 -11 0 -39 12 -62 28 -22 15 -71 45 -108 67 -64 38
-82 55 -57 55 6 0 25 -11 42 -24 36 -26 68 -44 52 -29 -34 32 -88 64 -101 59
-17 -7 -104 30 -104 43 0 10 25 16 150 35 58 10 169 13 346 12 253 -1 261 -2
235 -18z"/>
<path d="M3540 1866 c0 -2 7 -7 16 -10 8 -3 12 -2 9 4 -6 10 -25 14 -25 6z"/>
<path d="M743 1273 c-30 -6 -53 -40 -53 -78 0 -49 29 -149 48 -163 15 -11 18
-10 23 15 l5 28 8 -33 c4 -18 13 -31 19 -29 19 6 57 68 57 93 0 13 5 26 10 29
14 9 12 97 -3 116 -13 17 -77 30 -114 22z"/>
<path d="M1174 731 c10 -16 447 -234 454 -227 7 7 35 -8 -222 121 -246 124
-241 122 -232 106z"/>
<path d="M2600 625 c-124 -63 -219 -114 -212 -114 16 -1 429 205 437 219 3 5
5 10 3 9 -2 0 -104 -51 -228 -114z"/>
<path d="M1960 318 c0 -2 13 -14 29 -26 27 -20 30 -20 43 -5 11 15 11 16 -5
10 -10 -4 -28 0 -43 9 -13 9 -24 14 -24 12z"/>
<path d="M24 2623 c4 -4 25 -6 46 -4 l40 3 0 -114 c1 -142 19 -126 27 23 l6
99 -63 0 c-35 0 -60 -3 -56 -7z"/>
<path d="M221 2542 c1 -99 16 -170 19 -92 1 25 5 65 9 90 8 44 9 43 11 -25 1
-38 4 -64 7 -57 7 18 23 4 24 -21 0 -12 3 -16 6 -9 2 6 20 12 39 12 20 0 34 5
35 13 1 6 4 1 8 -11 6 -23 11 -24 84 -24 46 0 83 5 92 12 8 7 28 10 45 8 25
-4 31 -1 36 19 4 13 10 23 15 23 5 0 10 24 10 53 l1 52 9 -40 c4 -22 9 -60 10
-85 l1 -45 9 40 c4 22 8 68 8 101 l1 61 -220 2 c-120 1 -228 4 -240 6 -19 4
-20 -1 -19 -83z"/>
<path d="M820 2626 c0 -2 16 -6 35 -8 19 -2 35 0 35 4 0 4 -16 8 -35 8 -19 0
-35 -2 -35 -4z"/>
<path d="M1167 2624 c-8 -8 1 -24 14 -24 5 0 9 7 9 15 0 15 -12 20 -23 9z"/>
<path d="M780 2563 c0 -32 3 -75 6 -95 12 -69 24 -39 24 57 0 78 -3 95 -15 95
-12 0 -15 -13 -15 -57z"/>
<path d="M1060 2610 c-13 -8 -13 -10 2 -10 9 0 20 5 23 10 8 13 -5 13 -25 0z"/>
<path d="M1010 2590 c-13 -8 -12 -10 3 -10 9 0 17 5 17 10 0 12 -1 12 -20 0z"/>
<path d="M1095 2590 c3 -5 13 -10 21 -10 8 0 12 5 9 10 -3 6 -13 10 -21 10 -8
0 -12 -4 -9 -10z"/>
<path d="M1045 2580 c-3 -5 -1 -10 4 -10 6 0 11 5 11 10 0 6 -2 10 -4 10 -3 0
-8 -4 -11 -10z"/>
<path d="M3646 2538 c-9 -35 -7 -76 4 -83 6 -4 10 15 10 49 0 60 -4 70 -14 34z"/>
<path d="M3677 2533 c-4 -3 -7 -16 -7 -29 0 -29 36 -39 50 -14 13 24 13 40 0
20 -8 -12 -10 -11 -10 8 0 21 -19 30 -33 15z"/>
<path d="M1304 2517 c-3 -9 -4 -24 -2 -34 3 -16 5 -15 17 6 9 16 10 26 2 34
-7 7 -12 6 -17 -6z"/>
<path d="M2861 2523 c-1 -6 4 -15 9 -18 6 -3 10 -11 10 -18 0 -6 -7 -2 -15 10
-17 24 -46 24 -74 0 -25 -21 -87 -47 -113 -47 -47 0 -122 -31 -174 -71 -29
-22 -54 -45 -57 -52 -8 -21 10 -120 32 -175 12 -29 21 -65 21 -80 1 -22 2 -24
10 -11 6 11 6 28 -1 49 -6 17 -9 48 -5 68 4 26 2 32 -4 22 -8 -12 -10 -9 -10
13 0 15 5 27 10 27 6 0 10 7 10 16 0 10 6 14 14 11 14 -6 25 12 30 49 1 7 6
17 11 21 4 4 5 2 0 -6 -6 -10 -4 -12 4 -7 7 5 10 15 7 23 -3 8 -2 11 3 8 5 -3
12 -1 16 5 4 6 10 8 15 5 5 -3 11 -1 15 5 3 5 21 10 38 10 18 0 41 7 51 15 11
8 37 15 59 15 31 0 38 -3 35 -17 -2 -11 -18 -22 -41 -27 -20 -5 -37 -13 -37
-17 0 -5 7 -5 17 -2 12 5 14 3 8 -8 -4 -8 -5 -11 -1 -7 4 3 21 2 38 -2 19 -6
36 -5 47 2 12 7 29 6 63 -5 25 -9 56 -14 69 -12 12 3 28 0 36 -6 16 -14 17 3
1 19 -7 7 -9 12 -6 12 4 0 21 -15 37 -32 17 -18 31 -28 31 -22 0 23 40 23 56
1 15 -20 16 -21 10 -2 -4 14 1 12 19 -10 22 -26 24 -36 19 -75 l-7 -45 42 44
c39 41 42 47 39 95 -2 39 -8 53 -23 61 -11 6 -32 18 -46 28 -14 9 -45 19 -70
21 -24 3 -57 9 -72 15 -21 8 -26 8 -21 -1 9 -14 -5 -6 -83 48 -34 24 -64 49
-66 56 -4 9 -6 10 -6 1z m55 -124 c9 -15 -14 -29 -46 -29 l-25 1 24 19 c27 23
37 25 47 9z m-346 -3 c0 -2 -12 -11 -27 -20 l-28 -17 24 20 c23 21 31 25 31
17z"/>
<path d="M3772 2500 c0 -14 2 -19 5 -12 2 6 2 18 0 25 -3 6 -5 1 -5 -13z"/>
<path d="M3897 2468 c-8 -5 -12 -36 -11 -92 2 -99 19 -126 79 -126 l35 0 0
109 0 109 -46 4 c-25 2 -51 0 -57 -4z"/>
<path d="M2357 2432 c-10 -10 -17 -27 -17 -37 0 -23 12 -11 28 28 14 32 11 34
-11 9z"/>
<path d="M1018 2383 c7 -3 16 -2 19 1 4 3 -2 6 -13 5 -11 0 -14 -3 -6 -6z"/>
<path d="M1610 2354 c-6 -14 -10 -34 -10 -44 0 -10 -4 -21 -9 -24 -5 -3 -12
-21 -15 -40 -5 -23 -13 -36 -29 -40 -17 -4 -19 -8 -10 -17 10 -10 18 -10 38
-1 15 7 30 10 35 7 12 -7 56 42 71 78 9 21 9 31 0 40 -8 8 -11 4 -12 -18 0
-28 -1 -28 -9 -8 -6 14 -15 21 -23 17 -13 -5 -33 23 -23 33 11 11 56 12 56 2
0 -7 3 -10 6 -7 10 11 -20 48 -39 48 -10 0 -22 -11 -27 -26z"/>
<path d="M871 2360 c0 -3 6 -25 13 -50 l15 -45 0 43 c1 24 -3 41 -8 38 -5 -4
-12 0 -14 6 -3 7 -6 11 -6 8z"/>
<path d="M1025 2340 c-3 -5 -1 -10 4 -10 6 0 11 5 11 10 0 6 -2 10 -4 10 -3 0
-8 -4 -11 -10z"/>
<path d="M20 2330 c0 -5 5 -10 10 -10 6 0 10 5 10 10 0 6 -4 10 -10 10 -5 0
-10 -4 -10 -10z"/>
<path d="M2187 2311 c-4 -17 -3 -21 5 -13 5 5 8 16 6 23 -3 8 -7 3 -11 -10z"/>
<path d="M2381 2284 c0 -11 3 -14 6 -6 3 7 2 16 -1 19 -3 4 -6 -2 -5 -13z"/>
<path d="M2139 2253 c-13 -16 -12 -17 4 -4 9 7 17 15 17 17 0 8 -8 3 -21 -13z"/>
<path d="M3323 2215 c-11 -30 -17 -53 -12 -49 5 3 9 0 9 -5 0 -6 7 -11 15 -11
13 0 19 -11 17 -31 -1 -3 14 -21 33 -39 31 -30 33 -35 18 -45 -15 -11 -13 -13
16 -20 44 -9 114 11 146 43 31 31 28 42 -12 56 -18 6 -35 15 -40 19 -4 5 4 4
19 -2 16 -6 45 -7 70 -2 l43 7 -55 8 c-30 4 -75 16 -99 27 -53 23 -57 24 -40
2 13 -16 12 -17 -3 -4 -10 7 -16 17 -13 21 2 4 -7 13 -20 20 -14 7 -32 24 -40
37 -9 12 -19 23 -23 23 -4 0 -17 -25 -29 -55z"/>
<path d="M3570 2205 c29 -17 76 -19 85 -5 3 6 -4 10 -17 11 -13 0 -39 2 -58 4
-35 4 -35 4 -10 -10z"/>
<path d="M3789 2193 c-13 -16 -12 -17 4 -4 16 13 21 21 13 21 -2 0 -10 -8 -17
-17z"/>
<path d="M3520 2190 c-9 -6 -10 -10 -3 -10 6 0 15 5 18 10 8 12 4 12 -15 0z"/>
<path d="M3811 2183 c-12 -8 -19 -18 -16 -23 3 -4 -24 -20 -60 -35 -36 -16
-65 -30 -65 -33 0 -8 51 -83 74 -110 14 -16 16 -21 5 -17 -8 3 -23 19 -33 36
-10 17 -20 28 -23 25 -15 -15 49 -84 105 -114 34 -18 64 -38 68 -44 7 -11 107
-58 124 -58 6 0 10 58 10 144 0 142 0 145 -22 149 l-23 4 23 8 c14 5 22 15 22
31 0 19 -7 24 -37 29 -21 3 -49 8 -63 11 -59 12 -69 11 -89 -3z m29 3 c0 -2
-8 -10 -17 -17 -16 -13 -17 -12 -4 4 13 16 21 21 21 13z m12 -127 c30 -51 -3
-30 -52 34 -12 17 -12 17 11 7 13 -6 32 -24 41 -41z m-61 -126 c13 -16 12 -17
-3 -4 -17 13 -22 21 -14 21 2 0 10 -8 17 -17z"/>
<path d="M3718 2147 c-21 -6 -38 -14 -38 -18 0 -10 60 7 74 21 5 5 8 9 6 9 -3
-1 -22 -6 -42 -12z"/>
<path d="M3196 2124 c-11 -30 -6 -61 14 -79 25 -22 27 -43 3 -24 -16 13 -17
12 -5 -3 14 -18 47 -14 35 5 -3 6 -1 7 5 3 6 -4 9 -13 6 -21 -3 -7 3 -18 15
-24 31 -17 36 -13 10 9 -15 12 -19 19 -10 20 11 0 11 3 1 15 -7 9 -18 14 -25
11 -17 -6 -48 58 -40 83 7 24 0 29 -9 5z"/>
<path d="M3152 2100 c0 -14 2 -19 5 -12 2 6 2 18 0 25 -3 6 -5 1 -5 -13z"/>
<path d="M360 2026 c0 -12 -30 -14 -180 -13 l-180 2 0 -32 0 -33 561 0 c444 0
560 3 556 13 -3 8 -32 12 -101 12 -71 0 -95 3 -92 12 3 7 -1 10 -10 6 -9 -3
-25 -1 -37 5 -14 7 -102 13 -230 14 -172 3 -209 6 -217 18 -8 13 -10 13 -10
-2 0 -18 -32 -18 -38 0 -5 17 -22 15 -22 -2z"/>
<path d="M2133 1953 c9 -2 23 -2 30 0 6 3 -1 5 -18 5 -16 0 -22 -2 -12 -5z"/>
<path d="M2088 1943 c7 -3 16 -2 19 1 4 3 -2 6 -13 5 -11 0 -14 -3 -6 -6z"/>
<path d="M2048 1933 c7 -3 16 -2 19 1 4 3 -2 6 -13 5 -11 0 -14 -3 -6 -6z"/>
<path d="M2391 1870 c54 -61 63 -68 74 -54 10 14 15 15 35 4 14 -8 19 -15 11
-19 -6 -4 5 -7 24 -7 19 0 35 1 35 2 0 3 -231 144 -236 144 -3 0 22 -31 57
-70z"/>
<path d="M3161 1903 c-27 -103 -25 -125 15 -204 23 -46 39 -67 42 -57 2 9 -2
26 -7 37 -6 11 -11 30 -11 43 0 13 -5 29 -11 35 -16 16 -23 117 -11 152 6 17
7 31 2 31 -5 0 -14 -17 -19 -37z"/>
<path d="M0 1906 l0 -23 524 -2 c315 0 527 3 531 8 3 5 0 13 -7 17 -9 6 -5 10
12 15 14 4 -219 7 -517 8 l-543 1 0 -24z m273 7 c-7 -2 -19 -2 -25 0 -7 3 -2
5 12 5 14 0 19 -2 13 -5z m637 -8 c10 -12 9 -15 -4 -15 -10 0 -15 4 -12 9 4 5
0 12 -6 14 -8 4 -9 6 -2 6 6 1 17 -6 24 -14z m68 8 c-10 -2 -28 -2 -40 0 -13
2 -5 4 17 4 22 1 32 -1 23 -4z m49 1 c-3 -3 -12 -4 -19 -1 -8 3 -5 6 6 6 11 1
17 -2 13 -5z"/>
<path d="M1322 1871 c-23 -4 -50 -16 -60 -26 -16 -17 -16 -17 8 -1 13 9 39 16
57 16 17 0 35 5 38 10 3 6 5 9 3 9 -2 -1 -22 -5 -46 -8z"/>
<path d="M1393 1863 c9 -2 23 -2 30 0 6 3 -1 5 -18 5 -16 0 -22 -2 -12 -5z"/>
<path d="M1440 1848 c0 -9 5 -20 10 -23 13 -8 13 5 0 25 -8 13 -10 13 -10 -2z"/>
<path d="M3230 1835 c0 -5 5 -17 10 -25 5 -8 10 -10 10 -5 0 6 -5 17 -10 25
-5 8 -10 11 -10 5z"/>
<path d="M1988 1793 c7 -3 16 -2 19 1 4 3 -2 6 -13 5 -11 0 -14 -3 -6 -6z"/>
<path d="M1567 1743 c-13 -12 -7 -68 9 -91 8 -12 26 -22 40 -22 23 0 24 3 24
60 l0 60 -33 0 c-19 0 -37 -3 -40 -7z"/>
<path d="M1954 1725 c-7 -27 0 -55 14 -55 19 0 62 42 62 61 0 15 -7 19 -35 19
-29 0 -36 -4 -41 -25z"/>
<path d="M2481 1736 c-22 -26 9 -115 41 -116 30 -1 60 89 38 115 -16 19 -64
19 -79 1z"/>
<path d="M3240 1711 c0 -5 7 -12 16 -15 14 -5 15 -4 4 9 -14 17 -20 19 -20 6z"/>
<path d="M251 1568 c3 -25 -1 -51 -7 -45 -13 13 -43 -41 -47 -84 -3 -40 -4
-38 -6 16 -3 73 -13 106 -26 84 -5 -8 -11 -22 -12 -32 -2 -10 -9 -28 -17 -40
-8 -12 -13 -39 -11 -62 2 -22 4 -48 4 -57 1 -19 45 -26 55 -9 4 5 23 5 46 -1
70 -18 74 -12 67 106 -4 57 -9 111 -13 120 -7 19 -36 22 -33 4z"/>
<path d="M610 1545 c0 -14 -10 -45 -21 -67 -15 -29 -18 -43 -10 -46 8 -3 6 -9
-6 -18 -16 -13 -16 -13 7 -5 14 5 24 14 22 21 -1 6 2 9 8 5 9 -5 120 50 120
60 0 7 -40 -8 -46 -16 -7 -12 -32 13 -44 47 -8 21 -8 29 2 36 9 5 6 8 -9 8
-18 0 -23 -6 -23 -25z"/>
<path d="M3610 1550 c0 -5 5 -10 10 -10 6 0 10 5 10 10 0 6 -4 10 -10 10 -5 0
-10 -4 -10 -10z"/>
<path d="M3645 1531 c4 -7 -1 -23 -9 -36 -16 -25 -16 -25 18 -25 19 0 38 5 41
10 3 6 2 10 -4 10 -5 0 -11 10 -13 22 -2 13 -11 24 -22 26 -12 3 -16 0 -11 -7z"/>
<path d="M3715 1509 c-4 -6 -5 -12 -2 -15 2 -3 7 2 10 11 7 17 1 20 -8 4z"/>
<path d="M3220 1470 l25 -21 -30 6 c-25 5 -24 3 10 -11 22 -10 42 -21 45 -24
3 -4 15 -10 28 -14 39 -13 25 17 -21 44 -61 36 -89 46 -57 20z"/>
<path d="M3335 1481 l-40 -6 33 -18 c18 -10 41 -15 51 -12 22 7 109 -21 134
-43 21 -19 22 -36 2 -28 -8 3 -15 1 -15 -4 0 -6 14 -10 31 -10 16 0 29 3 27 8
-55 113 -94 133 -223 113z"/>
<path d="M761 1468 c-1 -10 -6 -18 -12 -18 -5 0 -7 5 -3 11 9 15 -34 -8 -59
-32 -11 -10 -24 -16 -29 -13 -4 3 -8 -2 -8 -10 0 -8 -8 -20 -17 -25 -17 -10
-17 -10 -1 -11 9 0 19 4 23 9 3 5 19 12 35 16 17 4 30 13 30 21 0 8 9 14 20
14 22 0 35 21 27 42 -4 8 -6 6 -6 -4z"/>
<path d="M3660 1413 c-72 -5 -90 -12 -90 -33 0 -10 9 -22 20 -25 11 -4 18 -11
14 -16 -3 -5 -2 -19 2 -32 7 -20 8 -19 19 13 13 40 45 54 45 21 0 -19 6 -21
66 -21 36 0 63 3 60 8 -2 4 13 6 34 4 38 -4 61 10 39 24 -8 5 -9 3 -4 -7 4 -8
-2 -4 -14 9 -40 40 -108 60 -191 55z"/>
<path d="M352 1380 c0 -19 2 -27 5 -17 2 9 2 25 0 35 -3 9 -5 1 -5 -18z"/>
<path d="M3338 1383 c6 -2 18 -2 25 0 6 3 1 5 -13 5 -14 0 -19 -2 -12 -5z"/>
<path d="M585 1359 c-10 -15 3 -25 16 -12 7 7 7 13 1 17 -6 3 -14 1 -17 -5z"/>
<path d="M3397 1363 c-3 -5 2 -15 11 -23 14 -13 15 -12 9 2 -3 9 -1 19 6 22 7
2 5 5 -5 5 -9 1 -19 -2 -21 -6z"/>
</g>
</svg>
